<?xml version="1.0" encoding="UTF-8" standalone="no"?>
<!-- Created with Inkscape (http://www.inkscape.org/) -->

<svg
   width="16.083408mm"
   height="40.456795mm"
   viewBox="0 0 16.083408 40.456795"
   version="1.1"
   id="svg1"
   xml:space="preserve"
   xmlns="http://www.w3.org/2000/svg"
   xmlns:svg="http://www.w3.org/2000/svg"><defs
     id="defs1" /><g
     id="layer1"
     transform="translate(-107.33409,-25.842511)"><path
       d="m 113.5903,66.24037 c -0.2378,-0.0962 -0.38938,-0.83739 -0.70946,-3.46913 -0.27699,-2.27737 -0.46453,-3.46049 -1.24829,-7.87501 -0.5494,-3.09451 -1.3103,-6.38242 -1.95803,-8.46083 -0.16276,-0.52226 -0.35224,-1.59989 -0.43436,-2.47032 -0.25385,-2.6908 -0.33943,-3.14853 -0.77592,-4.15035 -0.23377,-0.53656 -0.58152,-1.61475 -0.77277,-2.39599 -0.30907,-1.26248 -0.34868,-1.65393 -0.35625,-3.5202 -0.008,-1.88914 0.0206,-2.1865 0.28151,-2.96438 0.34152,-1.0181 1.00751,-2.17597 1.45328,-2.52661 0.68129,-0.5359 1.47753,-0.66961 3.26665,-0.54856 1.53687,0.10398 1.71224,0.0925 2.63773,-0.17317 0.54527,-0.15651 1.43606,-0.5382 1.97953,-0.84821 0.77236,-0.44058 1.26021,-0.61832 2.23417,-0.814 1.56388,-0.3142 1.95239,-0.2502 2.64383,0.43554 1.19902,1.18913 1.68896,3.26067 1.56761,6.6281 -0.0621,1.72295 -0.13335,2.2778 -0.4508,3.50997 -0.34878,1.35379 -0.94102,2.76802 -1.47901,3.53178 -0.653,0.92702 -1.28578,4.8861 -1.7384,10.87648 -0.0744,0.98504 -0.18532,1.98552 -0.24644,2.22329 -0.0611,0.23777 -0.25722,1.0715 -0.43579,1.85274 -0.17857,0.78123 -0.43123,1.64641 -0.56146,1.92261 -0.13024,0.2762 -0.23679,0.59281 -0.23679,0.70358 0,0.11078 -0.19688,0.96865 -0.43752,1.90638 -0.52551,2.04791 -1.29166,3.6936 -2.46132,5.28693 -0.9389,1.27898 -1.27649,1.53563 -1.7617,1.33936 z m 0.88278,-0.55897 c 0.1425,-0.20344 0.15458,-0.31068 0.0493,-0.43754 -0.0974,-0.11737 -0.10035,-0.20716 -0.01,-0.29774 0.0906,-0.0906 0.0435,-0.34181 -0.15611,-0.83307 -0.22454,-0.5526 -0.31762,-1.13925 -0.43425,-2.73681 -0.0816,-1.11839 -0.19716,-2.12705 -0.25672,-2.24147 -0.0596,-0.11442 -0.10829,-0.37515 -0.10829,-0.57941 0,-0.20426 -0.0556,-0.40573 -0.12351,-0.44772 -0.0679,-0.042 -0.12352,-0.26938 -0.12352,-0.50532 0,-0.23594 -0.0801,-0.62078 -0.17809,-0.8552 -0.15849,-0.37934 -0.15662,-0.43824 0.017,-0.53541 0.17535,-0.0981 0.16837,-0.19726 -0.0689,-0.97854 -0.28723,-0.94565 -0.31551,-1.13979 -0.16605,-1.13979 0.0539,0 0.16009,0.20843 0.23598,0.46318 0.29182,0.97954 0.51406,1.45278 0.69997,1.49047 0.22682,0.046 0.26154,0.24591 0.44371,2.55468 0.13979,1.77165 0.33046,2.86912 0.53648,3.08789 0.073,0.0776 0.0855,-0.12175 0.0335,-0.53575 -0.088,-0.70076 0.0912,-0.80916 0.23738,-0.14359 0.10974,0.49965 0.27874,0.57162 0.45157,0.19231 0.11116,-0.24398 0.10786,-0.42467 -0.0145,-0.79553 -0.0871,-0.26391 -0.12819,-0.55575 -0.0913,-0.64853 0.0414,-0.10424 0.0708,-0.0715 0.0768,0.0856 0.005,0.13987 0.0849,0.35708 0.17674,0.48268 0.15792,0.21597 0.17129,0.21127 0.24602,-0.0865 0.0503,-0.20019 -0.0143,-0.52593 -0.17731,-0.89437 -0.14099,-0.31872 -0.23086,-0.60497 -0.19972,-0.63611 0.0311,-0.0311 0.14649,0.16802 0.25635,0.44257 0.10985,0.27455 0.22343,0.49919 0.25239,0.49919 0.029,0 0.14058,0.0337 0.24803,0.075 0.10932,0.042 0.19538,0.0115 0.19538,-0.069 0,-0.0792 -0.0556,-0.10967 -0.12352,-0.0677 -0.0696,0.043 -0.12351,-0.0571 -0.12351,-0.22951 0,-0.16821 -0.11651,-0.57446 -0.25891,-0.90278 -0.37881,-0.87341 -0.48215,-1.15276 -0.42643,-1.15276 0.0273,0 0.19626,0.3196 0.37546,0.71022 0.28193,0.61456 0.34303,0.67962 0.45365,0.48306 0.12659,-0.22491 0.10106,-0.53011 -0.0843,-1.008 -0.0788,-0.2032 -0.0663,-0.21964 0.0706,-0.0926 0.48628,0.4512 0.4615,-0.24742 -0.0482,-1.35868 -0.17916,-0.39062 -0.27087,-0.71021 -0.20379,-0.71021 0.0671,0 0.12196,0.0687 0.12196,0.15262 0,0.0839 0.14943,0.44796 0.33206,0.80894 0.32133,0.63508 0.33696,0.64718 0.48323,0.37387 0.16875,-0.31532 0.0852,-0.5919 -0.0996,-0.32961 -0.0821,0.1165 -0.0962,0.0669 -0.0463,-0.16274 0.047,-0.21648 -0.056,-0.64927 -0.2988,-1.25574 -0.2038,-0.50897 -0.36411,-1.05511 -0.35623,-1.21362 0.0123,-0.24792 0.0218,-0.25368 0.0679,-0.0412 0.11811,0.54418 0.57207,1.66746 0.67389,1.66746 0.0596,0 0.10846,0.11116 0.10846,0.24703 0,0.13587 0.0631,0.24703 0.1403,0.24703 0.22912,0 0.0255,-1.04212 -0.37102,-1.89878 -0.19619,-0.42386 -0.39219,-0.96208 -0.43556,-1.19604 -0.0533,-0.28731 0.0164,-0.18483 0.21454,0.31572 0.44864,1.13326 0.47079,1.1762 0.57394,1.11245 0.053,-0.0327 0.13083,-0.29644 0.173,-0.58599 0.057,-0.39118 -0.003,-0.75961 -0.23278,-1.43379 -0.1702,-0.49902 -0.30605,-1.02705 -0.3019,-1.1734 0.004,-0.14634 0.12921,0.15079 0.27791,0.66029 0.1487,0.50951 0.32594,0.92637 0.39387,0.92637 0.19765,0 0.21874,-0.79469 0.0289,-1.0895 -0.0953,-0.14805 -0.23268,-0.43592 -0.30525,-0.63972 -0.0726,-0.2038 -0.22147,-0.57898 -0.33089,-0.83373 -0.10942,-0.25475 -0.1536,-0.46319 -0.0982,-0.46319 0.0554,0 0.25986,0.41687 0.4543,0.92637 0.19443,0.50951 0.39411,0.92637 0.44373,0.92637 0.0496,0 0.11171,-0.22553 0.138,-0.50118 0.0346,-0.36264 -0.0651,-0.78089 -0.36056,-1.51307 -0.22459,-0.55654 -0.39245,-1.09473 -0.37302,-1.19598 0.0194,-0.10125 0.17233,0.21835 0.33979,0.71022 0.16745,0.49187 0.34125,0.89431 0.38621,0.89431 0.0982,0 0.2919,-0.8745 0.23252,-1.04989 -0.023,-0.0679 -0.17179,-0.50747 -0.33066,-0.97675 -0.15887,-0.46927 -0.26188,-0.8802 -0.22891,-0.91316 0.033,-0.033 0.0847,0.0175 0.11501,0.11213 0.0303,0.0946 0.14582,0.4596 0.25671,0.81103 0.28766,0.91158 0.507,1.05199 0.59627,0.38169 0.0386,-0.28962 0.10795,-0.65164 0.15417,-0.80449 0.0521,-0.17246 0.0317,-0.27791 -0.0539,-0.27791 -0.0759,0 -0.13792,0.0834 -0.13792,0.18527 0,0.1019 -0.0542,0.18528 -0.12046,0.18528 -0.0768,0 -0.0787,-0.10973 -0.005,-0.30302 0.08,-0.21033 0.0556,-0.52199 -0.0797,-1.019 -0.10719,-0.3938 -0.21625,-0.85495 -0.24234,-1.02479 -0.0451,-0.29368 -0.0409,-0.29217 0.0869,0.0309 0.0739,0.18682 0.1886,0.33967 0.25488,0.33967 0.0663,0 0.0873,-0.0538 0.0466,-0.11951 -0.0406,-0.0657 0.0368,-0.34857 0.17207,-0.62852 0.17419,-0.36055 0.19732,-0.49036 0.0793,-0.44507 -0.20451,0.0785 -0.33241,-0.59342 -0.14806,-0.77777 0.0829,-0.0829 0.0785,-0.21678 -0.0132,-0.40431 -0.0754,-0.15422 -0.19838,-0.47494 -0.27325,-0.71271 -0.30347,-0.96369 -0.68964,-1.14384 -2.01407,-0.93961 -0.43449,0.067 -0.64277,0.17283 -0.7938,0.40333 -0.26854,0.40984 -0.32544,1.46028 -0.0897,1.65593 0.0966,0.0802 0.17562,0.20565 0.17562,0.27885 0,0.0867 -0.0516,0.0814 -0.14822,-0.0151 -0.25027,-0.25027 -0.34584,-0.16759 -0.34584,0.29921 0,0.3745 0.0289,0.42348 0.17707,0.30047 0.14777,-0.12264 0.17657,-0.0791 0.17403,0.26279 -0.002,0.22536 0.0379,0.82097 0.0879,1.32359 0.0622,0.6253 0.0502,0.88867 -0.0381,0.83411 -0.16846,-0.10411 -0.44625,-1.26581 -0.34273,-1.43331 0.044,-0.0712 0.0366,-0.19885 -0.0165,-0.28377 -0.0531,-0.0849 -0.10763,-0.22821 -0.12129,-0.31843 -0.0137,-0.0902 -0.0654,-0.25697 -0.11509,-0.37055 -0.0496,-0.11358 -0.0782,-0.30378 -0.0635,-0.42266 0.0156,-0.12604 -0.0547,-0.21615 -0.16865,-0.21615 -0.14967,0 -0.17617,-0.0766 -0.11326,-0.32722 0.0578,-0.23028 0.0402,-0.3013 -0.0594,-0.23974 -0.0778,0.0481 -0.14631,0.18146 -0.15215,0.29633 -0.006,0.11488 -0.0591,0.0469 -0.11826,-0.1511 -0.0592,-0.19798 -0.0752,-0.41249 -0.0355,-0.47669 0.0397,-0.0642 -0.06,-0.2365 -0.22141,-0.38288 -0.16145,-0.14639 -0.3552,-0.37653 -0.43056,-0.51144 -0.12418,-0.22232 -0.2687,-0.24528 -1.54394,-0.24528 -1.65143,0 -2.07507,0.14665 -2.25676,0.78119 -0.1335,0.46627 0.0166,1.548 0.40655,2.92935 0.13502,0.47833 0.35791,1.50659 0.49532,2.28505 0.1374,0.77845 0.41812,2.09535 0.62382,2.92643 0.20571,0.83109 0.37401,1.74856 0.37401,2.03883 0,0.29027 0.0588,0.72193 0.13068,0.95925 0.0719,0.23732 0.18416,0.78844 0.24953,1.2247 0.0654,0.43627 0.17621,0.86231 0.24629,0.94676 0.0701,0.0844 0.18058,0.67239 0.24556,1.30655 0.065,0.63416 0.17028,1.45872 0.234,1.83235 0.11046,0.6477 0.26852,1.73145 0.69355,4.75536 0.22379,1.59216 0.27328,1.79098 0.44574,1.79098 0.0788,0 0.10233,-0.18001 0.0605,-0.46318 l -0.0685,-0.46319 0.13602,0.40716 c 0.0864,0.25873 0.19644,0.38396 0.30177,0.34354 0.22328,-0.0857 0.21064,0.10818 -0.0195,0.29919 -0.1019,0.0846 -0.18527,0.20254 -0.18527,0.26215 0,0.19949 0.23102,0.11125 0.42178,-0.1611 z m 1.67799,-8.53182 c 0,-0.0174 -0.0546,-0.22212 -0.12136,-0.45485 -0.0678,-0.23652 -0.0717,-0.37236 -0.009,-0.30798 0.13967,0.14285 0.30801,0.79452 0.20525,0.79452 -0.0413,0 -0.0751,-0.0143 -0.0751,-0.0317 z m -3.18027,-6.69992 c 0.001,-0.27173 0.0267,-0.36835 0.0562,-0.21471 0.0295,0.15364 0.0284,0.37597 -0.002,0.49406 -0.0309,0.11809 -0.0551,-0.008 -0.0537,-0.27935 z m -0.68192,-0.19517 c 0.0437,-0.16702 0.0997,-0.22301 0.1305,-0.1305 0.0297,0.0891 -0.005,0.22074 -0.0765,0.29251 -0.0917,0.0917 -0.10774,0.0434 -0.054,-0.16201 z m 0.1586,-0.55622 c 0.001,-0.1302 0.0583,-0.32011 0.12727,-0.42201 0.0916,-0.13531 0.10302,-0.0853 0.0425,0.18527 -0.10159,0.45416 -0.17228,0.55275 -0.16976,0.23674 z m -0.74298,-0.58206 c 0,-0.15813 0.51985,-1.46103 0.56495,-1.41594 0.0257,0.0257 -0.068,0.34916 -0.20823,0.71874 -0.24456,0.64452 -0.35672,0.86372 -0.35672,0.6972 z m 0.75084,-0.77661 c 0.006,-0.14389 0.0352,-0.17316 0.0746,-0.0746 0.0357,0.0892 0.0313,0.19569 -0.01,0.23674 -0.041,0.041 -0.0702,-0.0319 -0.0649,-0.16212 z m 0.30356,-0.93537 c 0.09,-0.29509 0.19792,-0.69594 0.23992,-0.89077 0.042,-0.19483 0.0991,-0.33148 0.12696,-0.30365 0.0812,0.0812 -0.27016,1.47068 -0.40639,1.60691 -0.0682,0.0682 -0.0504,-0.1174 0.0395,-0.41249 z m -1.02115,-0.54077 c 0.13771,-0.37382 0.26977,-0.66028 0.29347,-0.63657 0.0645,0.0645 -0.33474,1.18701 -0.44684,1.25629 -0.0533,0.033 0.0157,-0.2459 0.15337,-0.61972 z m 0.65864,-0.0106 c 0.031,-0.38181 0.11038,-0.79502 0.17633,-0.91825 0.066,-0.12322 0.1199,-0.33558 0.1199,-0.47191 0,-0.13632 0.0476,-0.27725 0.10568,-0.31317 0.0581,-0.0359 0.0817,0.0859 0.0523,0.27062 -0.10233,0.64426 -0.43013,2.12691 -0.47024,2.12691 -0.0222,0 -0.015,-0.31239 0.016,-0.6942 z m -1.06055,-0.13224 c 10e-4,-0.055 0.0558,-0.1833 0.12163,-0.2852 0.10318,-0.15967 0.11999,-0.15641 0.12162,0.0236 0.001,0.11488 -0.0537,0.24322 -0.12162,0.2852 -0.0679,0.042 -0.12267,0.0314 -0.12163,-0.0236 z m -0.12162,-0.47047 c 0,-0.0679 0.0539,-0.20689 0.11973,-0.30879 0.0658,-0.1019 0.11973,-0.12969 0.11973,-0.0618 0,0.0679 -0.0539,0.20689 -0.11973,0.30879 -0.0658,0.1019 -0.11973,0.12969 -0.11973,0.0618 z m 0.86461,-0.24703 c 0,-0.0679 0.0539,-0.20689 0.11973,-0.30879 0.0658,-0.1019 0.11973,-0.12969 0.11973,-0.0618 0,0.0679 -0.0539,0.20689 -0.11973,0.30879 -0.0658,0.1019 -0.11973,0.12969 -0.11973,0.0618 z m -0.98134,-0.43231 c -0.004,-0.1019 0.0471,-0.26865 0.11294,-0.37055 0.14592,-0.22578 0.14592,-0.0308 0,0.30879 -0.07,0.16289 -0.10846,0.18393 -0.11294,0.0618 z m 1.23434,-0.31908 c 0.006,-0.14389 0.0352,-0.17316 0.0746,-0.0746 0.0357,0.0892 0.0313,0.19569 -0.01,0.23674 -0.041,0.041 -0.0702,-0.0319 -0.0649,-0.16212 z m 2.07517,-0.70159 c -0.15997,-0.35574 -0.31008,-0.68848 -0.33358,-0.73943 -0.0235,-0.051 0.0227,-0.0926 0.10266,-0.0926 0.0799,0 0.17445,0.11116 0.20998,0.24703 0.0355,0.13587 0.1137,0.24703 0.17371,0.24703 0.06,0 0.10911,0.12784 0.10911,0.28409 0,0.15625 0.0604,0.34451 0.13428,0.41836 0.0844,0.0844 0.0897,0.16179 0.0145,0.20831 -0.0659,0.0407 -0.25068,-0.21702 -0.41065,-0.57276 z m -2.69813,0.3795 c -0.002,-0.11487 0.0512,-0.24321 0.11914,-0.2852 0.0679,-0.042 0.12352,-0.1875 0.12352,-0.32337 0,-0.13586 0.0556,-0.21268 0.12351,-0.17069 0.0679,0.042 0.12352,0.19348 0.12352,0.33666 0,0.14318 -0.0388,0.22153 -0.0862,0.17411 -0.0474,-0.0474 -0.15661,0.0406 -0.24265,0.19557 -0.11979,0.21577 -0.15747,0.23285 -0.16082,0.0729 z m -0.35756,-0.0999 c 0,-0.1019 0.0478,-0.29644 0.10616,-0.4323 0.0669,-0.15571 0.10615,-0.17854 0.10615,-0.0618 0,0.1019 -0.0478,0.29643 -0.10615,0.4323 -0.0669,0.15571 -0.10616,0.17854 -0.10616,0.0618 z m -0.3852,-0.0576 c -0.002,-0.10822 0.3677,-1.17916 0.44329,-1.28253 0.0174,-0.0238 0.0968,-0.003 0.17655,0.0463 0.0989,0.0611 0.10352,0.11515 0.0145,0.17019 -0.0717,0.0443 -0.24321,0.3292 -0.38102,0.63301 -0.13782,0.30382 -0.25179,0.49868 -0.25329,0.43301 z m 1.23935,-0.73691 c -0.12543,-0.15113 -0.13332,-0.24009 -0.0304,-0.34299 0.1029,-0.1029 0.15902,-0.0866 0.21639,0.0629 0.1263,0.32913 0.006,0.5109 -0.18598,0.28007 z m 2.74369,20.40157 c 0.10355,-0.26985 -0.19469,-1.45021 -0.36642,-1.45021 -0.0885,0 -0.16089,-0.11116 -0.16089,-0.24703 0,-0.13586 -0.0556,-0.24703 -0.12351,-0.24703 -0.18551,0 -0.14878,0.59995 0.0754,1.23103 0.10939,0.30797 0.21881,0.62943 0.24315,0.71435 0.0572,0.19955 0.25555,0.19889 0.3323,-0.001 z m 1.57712,-2.60932 c 0.8001,-1.61423 1.29389,-3.0979 2.10128,-6.31359 0.1684,-0.67069 0.35265,-2.06818 0.28363,-2.15123 -0.1128,-0.13575 -0.21974,0.19051 -0.31093,0.94865 -0.0872,0.72462 -0.56003,1.95227 -1.10548,2.87004 -0.19148,0.32218 -0.7673,2.32409 -0.7673,2.66762 0,0.0953 -0.0804,0.17325 -0.17871,0.17325 -0.14032,0 -0.16422,0.12603 -0.11128,0.5867 0.0371,0.32268 0.0393,0.48943 0.005,0.37054 -0.0344,-0.11888 -0.11022,-0.21615 -0.1686,-0.21615 -0.21812,0 -0.25227,0.49563 -0.0613,0.88932 l 0.19775,0.4076 -0.26172,-0.3022 c -0.21766,-0.25131 -0.28181,-0.2721 -0.38097,-0.12351 -0.0656,0.0983 -0.0918,0.401 -0.0582,0.67274 0.053,0.42904 0.0428,0.45703 -0.0779,0.21267 -0.0764,-0.15477 -0.1992,-0.26158 -0.27288,-0.23736 -0.19559,0.0643 -0.23874,0.56513 -0.0666,0.77258 0.0815,0.0982 0.10575,0.17848 0.054,0.17848 -0.0518,0 -0.16798,-0.0973 -0.25823,-0.21616 -0.15284,-0.20133 -0.16435,-0.19816 -0.16801,0.0463 -0.002,0.14436 0.0329,0.44655 0.0779,0.67153 l 0.0818,0.40906 0.35958,-0.4245 c 0.19777,-0.23347 0.68699,-1.08505 1.08715,-1.8924 z m -1.73388,0.41802 c 0,-0.2038 -0.0556,-0.37055 -0.12351,-0.37055 -0.0679,0 -0.12352,0.16675 -0.12352,0.37055 0,0.2038 0.0556,0.37055 0.12352,0.37055 0.0679,0 0.12351,-0.16675 0.12351,-0.37055 z m 0.42703,-0.2385 c 0.0391,-0.0632 0.0146,-0.14989 -0.0545,-0.19256 -0.069,-0.0427 -0.12553,0.009 -0.12553,0.11498 0,0.21696 0.0741,0.2489 0.18,0.0776 z m -0.92109,-0.99666 c 0,-0.13587 -0.0556,-0.24703 -0.12352,-0.24703 -0.0679,0 -0.12351,0.11116 -0.12351,0.24703 0,0.13587 0.0556,0.24703 0.12351,0.24703 0.0679,0 0.12352,-0.11116 0.12352,-0.24703 z m -0.33681,-3.23826 c -0.11696,-0.25148 -0.14064,-0.25859 -0.21916,-0.0658 -0.12639,0.31031 0.0284,0.66963 0.21014,0.48787 0.10092,-0.10091 0.10344,-0.21905 0.009,-0.42208 z m -0.0836,-1.02306 c 0.007,-0.30569 -0.0411,-0.55579 -0.10585,-0.55579 -0.0647,0 -0.0857,0.0834 -0.0466,0.18527 0.0391,0.1019 0.0173,0.18528 -0.0485,0.18528 -0.13453,0 -0.16461,0.53143 -0.0373,0.65875 0.17248,0.17248 0.22682,0.0645 0.23829,-0.47351 z m 4.20057,-1.07928 c 0.2199,-0.51932 0.24235,-0.66847 0.11176,-0.74226 -0.0954,-0.0539 -0.13469,-0.20221 -0.0944,-0.3562 0.0499,-0.19084 0.0211,-0.24714 -0.10413,-0.20343 -0.11491,0.0401 -0.16123,0.20951 -0.13775,0.5038 0.0195,0.24385 -0.05,0.64776 -0.15439,0.89756 -0.10438,0.2498 -0.18977,0.54189 -0.18977,0.64908 0,0.32185 0.26086,-0.0215 0.5687,-0.74855 z m -0.40467,-1.8959 c -0.0606,-0.15801 -0.11292,-0.1083 -0.22169,0.21081 -0.19369,0.56824 -0.0706,0.90674 0.14109,0.38798 0.088,-0.2156 0.12424,-0.48505 0.0806,-0.59879 z m 0.77562,0.25035 c -0.0269,-0.37777 -0.0789,-0.71683 -0.11551,-0.75347 -0.12251,-0.12251 -0.33008,0.0933 -0.33008,0.34325 0,0.15528 0.053,0.2143 0.1426,0.1589 0.0834,-0.0515 0.10926,-0.0342 0.0623,0.0418 -0.10523,0.17028 0.0416,0.89639 0.18129,0.89639 0.0596,0 0.0863,-0.30909 0.0594,-0.68686 z m 0.34696,-0.99829 c 0.0428,-0.11163 0.0525,-0.22836 0.0214,-0.2594 -0.0982,-0.0982 -0.31991,0.099 -0.31991,0.28436 0,0.24228 0.20242,0.22535 0.29848,-0.025 z m -0.91606,-0.0985 c 0,-0.03 -0.0556,-0.0888 -0.12352,-0.13081 -0.0679,-0.042 -0.12351,-0.0175 -0.12351,0.0545 0,0.0719 0.0556,0.13081 0.12351,0.13081 0.0679,0 0.12352,-0.0245 0.12352,-0.0545 z m 0.61323,-0.55499 c 0.16781,-0.31355 0.16318,-0.53859 -0.009,-0.43225 -0.0931,0.0575 -0.10867,-0.004 -0.0488,-0.1926 0.0647,-0.20396 0.0438,-0.26246 -0.0794,-0.22159 -0.0995,0.033 -0.17684,0.26416 -0.19077,0.57044 -0.0249,0.54837 0.11779,0.66852 0.32786,0.276 z m 0.62004,-0.28604 c -0.002,-0.21698 -0.0268,-0.23858 -0.11537,-0.0985 -0.0624,0.0987 -0.0861,0.22372 -0.0526,0.27791 0.10713,0.17335 0.16989,0.10632 0.16794,-0.17937 z m -0.24514,-0.77197 c 0,-0.1019 -0.0556,-0.18527 -0.12352,-0.18527 -0.0679,0 -0.12352,0.0834 -0.12352,0.18527 0,0.1019 0.0556,0.18527 0.12352,0.18527 0.0679,0 0.12352,-0.0834 0.12352,-0.18527 z m 0.37054,-0.24111 c 0,-0.0906 -0.0834,-0.19676 -0.18527,-0.23586 -0.19768,-0.0759 -0.23125,0.0282 -0.11057,0.34264 0.0845,0.22032 0.29584,0.14406 0.29584,-0.10678 z m -0.41149,-1.0144 c -0.12629,-0.1263 -0.3296,0.0982 -0.3296,0.36391 v 0.26723 l 0.19787,-0.2825 c 0.10883,-0.15538 0.16811,-0.31227 0.13173,-0.34864 z m 0.51233,0.16522 c 0.0215,-0.18158 -0.0202,-0.33014 -0.0926,-0.33014 -0.0724,0 -0.13248,0.0417 -0.1334,0.0926 -9.3e-4,0.051 -0.0371,0.22514 -0.0805,0.38708 -0.0588,0.21954 -0.0348,0.27996 0.0943,0.23751 0.0952,-0.0313 0.19071,-0.20551 0.2122,-0.38709 z m -0.96277,-0.3919 c 0.0359,-0.56679 0.008,-0.70085 -0.12619,-0.61758 -0.0679,0.042 -0.12352,0.33429 -0.12352,0.64957 0,0.62579 0.20971,0.59893 0.24971,-0.032 z m 0.86193,-0.23974 c 0,-0.03 -0.0556,-0.0888 -0.12351,-0.13081 -0.0679,-0.042 -0.12352,-0.0175 -0.12352,0.0545 0,0.0719 0.0556,0.13081 0.12352,0.13081 0.0679,0 0.12351,-0.0245 0.12351,-0.0545 z m -0.22587,-0.6866 c 0.11354,-0.27034 0.16438,-0.51751 0.11299,-0.54928 -0.093,-0.0575 -0.5047,0.69635 -0.5047,0.92399 0,0.27412 0.19926,0.0835 0.39171,-0.37471 z m 0.34939,-0.007 c 0,-0.0639 -0.0556,-0.11623 -0.12352,-0.11623 -0.0679,0 -0.12351,0.0866 -0.12351,0.19256 0,0.10591 0.0556,0.15822 0.12351,0.11623 0.0679,-0.042 0.12352,-0.12864 0.12352,-0.19256 z m 0.0809,-0.92441 c 0.10002,-0.26066 -0.0669,-0.40139 -0.20924,-0.17637 -0.1512,0.2391 -0.14817,0.36697 0.009,0.36697 0.0701,0 0.16031,-0.0858 0.20054,-0.1906 z m -9.09755,-0.73577 c 0,-0.1019 -0.0556,-0.18527 -0.12352,-0.18527 -0.0679,0 -0.12351,0.0834 -0.12351,0.18527 0,0.1019 0.0556,0.18528 0.12351,0.18528 0.0679,0 0.12352,-0.0834 0.12352,-0.18528 z m 8.95248,0.0598 c 0.11641,0.0966 0.17816,0.0815 0.23115,-0.0566 0.0441,-0.11494 0.003,-0.18842 -0.10493,-0.18842 -0.13853,0 -0.12053,-0.0961 0.0825,-0.44017 0.18065,-0.30617 0.2204,-0.47948 0.1306,-0.56928 -0.15205,-0.15205 -0.80335,1.10127 -0.67783,1.30436 0.0485,0.0785 0.0965,0.068 0.12855,-0.0282 0.0368,-0.11056 0.0956,-0.11661 0.20999,-0.0216 z m -9.076,-0.62744 c 0,-0.40724 -0.37833,-1.60361 -0.48606,-1.53702 -0.0534,0.033 -0.0214,0.35152 0.071,0.70784 0.0924,0.35632 0.16805,0.7469 0.16805,0.86796 0,0.12107 0.0556,0.22012 0.12351,0.22012 0.0679,0 0.12352,-0.11651 0.12352,-0.2589 z m 8.89831,-0.73888 c 0.0756,-0.14118 0.10156,-0.34961 0.0578,-0.46319 -0.0689,-0.17888 -0.093,-0.18172 -0.17985,-0.0212 -0.0551,0.1019 -0.13852,0.31034 -0.18529,0.46319 -0.10798,0.35296 0.12132,0.3688 0.30734,0.0212 z m -0.32989,-0.38506 c 0.0728,-0.0473 0.0892,-0.12902 0.0365,-0.1817 -0.11444,-0.11443 -0.32884,0.19117 -0.31773,0.45289 0.007,0.16469 0.0157,0.16469 0.0784,0 0.0388,-0.1019 0.13006,-0.22393 0.20282,-0.27119 z m -3.38075,0.14768 c 0,-0.0679 -0.0589,-0.12352 -0.13081,-0.12352 -0.0719,0 -0.0965,0.0556 -0.0545,0.12352 0.042,0.0679 0.10085,0.12351 0.13081,0.12351 0.03,0 0.0545,-0.0556 0.0545,-0.12351 z m 4.23842,-0.80704 c 0.24212,-0.50773 0.24911,-0.55164 0.0878,-0.55164 -0.12732,0 -0.49724,0.63867 -0.49724,0.85848 0,0.26992 0.20913,0.11319 0.40943,-0.30684 z m 0.0649,-0.82955 c 0.33783,-0.54799 0.48062,-1.13147 0.2588,-1.05753 -0.17478,0.0583 -0.72371,1.03967 -0.72968,1.30457 -0.006,0.27955 0.21916,0.16127 0.47088,-0.24704 z m -0.59787,-0.64847 c 0,-0.1019 -0.0218,-0.18527 -0.0485,-0.18527 -0.0267,0 -0.0805,0.0834 -0.11964,0.18527 -0.0391,0.1019 -0.0173,0.18527 0.0485,0.18527 0.0658,0 0.11964,-0.0834 0.11964,-0.18527 z m 0.94928,-0.70087 c 0.25869,-0.24302 0.38792,-0.59605 0.21819,-0.59605 -0.0938,0 -0.66472,0.65825 -0.66951,0.77198 -0.007,0.16382 0.15817,0.0995 0.45132,-0.17593 z m -1.19631,-0.2255 c 0,-0.0679 -0.0589,-0.12352 -0.13081,-0.12352 -0.0719,0 -0.0965,0.0556 -0.0545,0.12352 0.042,0.0679 0.10085,0.12352 0.1308,0.12352 0.03,0 0.0545,-0.0556 0.0545,-0.12352 z m 0.98812,-0.10886 c 0,-0.0599 0.17759,-0.28248 0.39463,-0.49468 0.27807,-0.27186 0.35595,-0.42451 0.26366,-0.5168 -0.0923,-0.0923 -0.24533,0.0245 -0.51815,0.3955 -0.40609,0.5522 -0.46888,0.72484 -0.26365,0.72484 0.0679,0 0.12351,-0.049 0.12351,-0.10886 z m -0.49406,-0.3852 c 0,-0.0679 -0.0556,-0.12352 -0.12352,-0.12352 -0.0679,0 -0.12351,0.0556 -0.12351,0.12352 0,0.0679 0.0556,0.12351 0.12351,0.12351 0.0679,0 0.12352,-0.0556 0.12352,-0.12351 z m -0.86461,-0.3015 c 0,-0.0979 -0.0517,-0.20997 -0.11498,-0.24905 -0.14685,-0.0908 -0.29454,0.14053 -0.19381,0.30352 0.11358,0.18377 0.30879,0.14934 0.30879,-0.0545 z m 1.43163,-0.16078 c -0.0857,-0.0857 -0.31999,0.0884 -0.31999,0.23766 0,0.0819 0.0709,0.0725 0.18826,-0.0249 0.10354,-0.0859 0.16282,-0.18168 0.13173,-0.21277 z m -9.10863,-0.28258 c 0.0373,-0.25599 0.0177,-0.27244 -0.1544,-0.1296 -0.23307,0.19344 -0.26496,0.54683 -0.0427,0.47365 0.0849,-0.028 0.17363,-0.18279 0.19714,-0.34405 z m 0.38956,0.0728 c 0,-0.03 -0.0556,-0.0888 -0.12351,-0.13081 -0.0679,-0.042 -0.12352,-0.0175 -0.12352,0.0545 0,0.0719 0.0556,0.13081 0.12352,0.13081 0.0679,0 0.12351,-0.0245 0.12351,-0.0545 z m 2.09977,-0.0691 c 0,-0.0679 -0.0556,-0.12352 -0.12351,-0.12352 -0.0679,0 -0.12352,0.0556 -0.12352,0.12352 0,0.0679 0.0556,0.12351 0.12352,0.12351 0.0679,0 0.12351,-0.0556 0.12351,-0.12351 z m 0.86461,-0.12352 c 0,-0.0679 -0.0556,-0.12351 -0.12351,-0.12351 -0.0679,0 -0.12352,0.0556 -0.12352,0.12351 0,0.0679 0.0556,0.12352 0.12352,0.12352 0.0679,0 0.12351,-0.0556 0.12351,-0.12352 z m 2.22329,0 c 0.12785,-0.0826 -0.13279,-0.12032 -0.84102,-0.12162 -0.65319,-10e-4 -0.99855,0.043 -0.94996,0.12162 0.0977,0.15813 1.5463,0.15813 1.79098,0 z m -5.76337,-0.30252 c 0.3506,0.0485 1.16549,0.076 1.81086,0.0612 2.46465,-0.0567 3.31926,-0.0612 4.75536,-0.025 1.40094,0.0353 2.64984,-0.14255 3.27317,-0.46619 0.26266,-0.13638 1.23423,-1.61526 1.30396,-1.98483 0.0606,-0.3211 0.26992,-0.94205 0.70787,-2.09976 0.39452,-1.04288 0.45341,-4.91238 0.10652,-6.99851 -0.13737,-0.82613 -0.31362,-1.60431 -0.39167,-1.72929 -0.20131,-0.32235 -1.04265,-0.90463 -1.49426,-1.03415 -0.69756,-0.20005 -3.05536,0.5512 -3.35733,1.06974 -0.0543,0.0933 -0.15493,0.16961 -0.22356,0.16961 -0.43182,0 -1.94182,1.56378 -1.74088,1.80288 0.0478,0.0569 0.004,0.0411 -0.0983,-0.0352 -0.1019,-0.0763 -0.39312,-0.13835 -0.64715,-0.13797 -0.25403,3.8e-4 -0.75427,-0.11193 -1.11164,-0.24957 -0.35737,-0.13764 -0.84431,-0.30852 -1.08208,-0.37974 -0.40157,-0.12027 -0.38861,-0.12447 0.18238,-0.0591 0.33808,0.0387 0.8222,0.17623 1.07584,0.30563 0.44933,0.22923 1.08859,0.3187 1.08859,0.15236 0,-0.0456 -0.092,-0.18456 -0.20442,-0.30879 -0.21971,-0.24278 -0.0623,-0.3197 0.17288,-0.0845 0.10616,0.10616 0.16216,0.0586 0.22481,-0.19103 0.0459,-0.18282 0.0571,-0.35871 0.025,-0.39086 -0.0322,-0.0322 -1.081,-0.0712 -2.33076,-0.0869 -2.2515,-0.0282 -2.27804,-0.0254 -2.89945,0.30252 -0.70829,0.37377 -1.06897,0.79625 -1.66823,1.95409 -0.40401,0.7806 -0.41678,0.85079 -0.46044,2.53208 -0.0247,0.95107 0.0142,2.11829 0.0864,2.59383 0.39742,2.6177 0.7205,3.50133 1.67911,4.59239 0.32583,0.37085 0.50855,0.67304 0.4346,0.71875 -0.0702,0.0434 -0.0863,0.1445 -0.0359,0.22473 0.0623,0.099 0.10613,0.0732 0.13653,-0.0804 0.0393,-0.19851 0.1229,-0.21543 0.68223,-0.13805 z m 8.19994,-0.6856 c -0.0862,-0.28357 -0.10713,-0.29149 -0.25667,-0.0969 -0.12395,0.16126 -0.19721,0.17748 -0.30676,0.0679 -0.10955,-0.10955 -0.14392,-0.10796 -0.14392,0.007 0,0.19928 -0.57168,0.0615 -1.00719,-0.24269 -0.18033,-0.12597 -0.43045,-0.22978 -0.55583,-0.23071 -0.32527,-0.002 -0.78412,-0.13672 -0.78189,-0.22887 0.007,-0.27139 0.22793,-0.40493 0.46283,-0.27921 0.20981,0.11229 0.26016,0.091 0.3192,-0.13471 0.0687,-0.26283 0.075,-0.26355 0.32534,-0.037 0.19568,0.17709 0.28916,0.19709 0.40055,0.0857 0.20358,-0.20358 0.46644,-0.18105 0.46644,0.04 0,0.1019 0.0556,0.18528 0.12352,0.18528 0.0679,0 0.12351,-0.13896 0.12351,-0.30879 0,-0.48888 0.22799,-0.35873 0.27046,0.15439 0.055,0.66464 0.27259,0.57096 0.3586,-0.15439 0.0748,-0.63048 0.0983,-0.66656 0.17398,-0.26659 0.0796,0.42082 0.18509,0.37332 0.18509,-0.0834 0,-0.24909 0.0556,-0.4529 0.12352,-0.4529 0.0679,0 0.12351,0.16347 0.12351,0.36326 0,0.19979 0.0498,0.39401 0.11058,0.4316 0.14845,0.0918 0.25784,-0.22221 0.26972,-0.77408 l 0.01,-0.45308 0.12872,0.35364 c 0.1528,0.41983 0.33513,0.23754 0.3537,-0.35364 l 0.0116,-0.37055 0.12406,0.33967 c 0.16906,0.46289 0.3505,0.42773 0.3505,-0.0679 0,-0.22418 0.0682,-0.47575 0.15144,-0.55904 0.16364,-0.16363 0.44534,-1.34417 0.45821,-1.92023 0.007,-0.29095 0.0393,-0.32878 0.18211,-0.21023 0.26586,0.22064 0.36904,-1.32467 0.26221,-3.9269 -0.0492,-1.19786 -0.0598,-2.14901 -0.0237,-2.11366 0.0362,0.0353 0.15382,0.75792 0.26144,1.60571 0.10762,0.84779 0.22566,1.70818 0.26231,1.91198 0.0505,0.28111 0.0355,0.32583 -0.0625,0.18527 -0.10417,-0.14946 -0.12949,-0.12261 -0.13101,0.13896 -0.001,0.17833 0.0364,0.51182 0.0833,0.74109 0.0823,0.40244 0.0883,0.40618 0.17297,0.10808 0.17002,-0.59828 0.12113,0.67363 -0.0629,1.63528 -0.43168,2.25615 -1.06078,3.62486 -1.98629,4.32147 -0.33966,0.25565 -0.65552,0.46511 -0.70189,0.46545 -0.0464,3.4e-4 -0.12137,-0.11613 -0.16666,-0.25884 -0.10418,-0.32824 -0.27329,-0.16215 -0.32706,0.32122 -0.0409,0.36763 -0.042,0.36812 -0.13505,0.0618 z m -0.76911,-0.49406 c 0.042,-0.0679 0.0175,-0.12352 -0.0545,-0.12352 -0.0719,0 -0.1308,0.0556 -0.1308,0.12352 0,0.0679 0.0245,0.12351 0.0545,0.12351 0.03,0 0.0888,-0.0556 0.1308,-0.12351 z m 1.56865,-0.27174 c -0.11528,-0.11528 -0.14821,-0.0823 -0.14821,0.14822 0,0.23056 0.0329,0.2635 0.14821,0.14822 0.11528,-0.11528 0.11528,-0.18116 0,-0.29644 z m 0.93872,-0.24703 c 0.23315,-0.23315 0.17325,-0.36793 -0.0988,-0.22233 -0.13586,0.0727 -0.24703,0.18584 -0.24703,0.25138 0,0.16358 0.16726,0.14953 0.34585,-0.0291 z m 0.49221,-0.99429 c 0.0572,-0.22078 0.0784,-0.53533 0.0471,-0.699 -0.054,-0.28231 -0.0655,-0.28586 -0.224,-0.069 -0.19122,0.2615 -0.22781,1.16945 -0.0471,1.16945 0.066,0 0.16679,-0.18064 0.224,-0.40142 z m 0.54003,-1.53647 c 0.0685,-0.0825 0.0853,-0.27347 0.0374,-0.42435 l -0.0871,-0.27432 -0.16579,0.29927 c -0.17896,0.32302 -0.23303,1.24861 -0.0819,1.40203 0.051,0.0517 0.11067,-0.11895 0.13272,-0.37927 0.0221,-0.26033 0.0961,-0.54084 0.1646,-0.62336 z m 0.35114,-1.4588 c 0,-0.1019 -0.0556,-0.18528 -0.12351,-0.18528 -0.0679,0 -0.12352,0.0834 -0.12352,0.18528 0,0.1019 0.0556,0.18527 0.12352,0.18527 0.0679,0 0.12351,-0.0834 0.12351,-0.18527 z m 0.12352,-0.70404 c 0,-0.19953 -0.0365,-0.23521 -0.13746,-0.13428 -0.0756,0.0756 -0.10011,0.19788 -0.0545,0.27173 0.12776,0.20673 0.19193,0.16078 0.19193,-0.13745 z m -10.37533,5.26939 c -0.33787,-0.10545 -0.57197,-0.12643 -0.597,-0.0535 -0.0813,0.23702 -0.25222,0.11342 -0.30374,-0.21968 -0.051,-0.32969 -0.0553,-0.33143 -0.14681,-0.0592 -0.0744,0.22128 -0.13021,0.25069 -0.26446,0.13927 -0.13268,-0.11011 -0.17018,-0.0971 -0.17018,0.0591 0,0.11022 -0.0618,0.2004 -0.13727,0.2004 -0.0894,0 -0.1096,-0.14745 -0.058,-0.42268 0.0436,-0.23247 0.0258,-0.45574 -0.0396,-0.49615 -0.0654,-0.0404 -0.14214,0.0803 -0.17055,0.26828 -0.0318,0.21053 -0.0588,0.11368 -0.0702,-0.25223 -0.0201,-0.644 -0.26554,-0.70942 -0.26554,-0.0708 0,0.21558 -0.0517,0.33862 -0.12352,0.29421 -0.0679,-0.042 -0.12351,-0.18294 -0.12351,-0.31323 0,-0.13029 -0.13361,-0.32444 -0.2969,-0.43143 -0.25153,-0.16481 -0.30955,-0.3304 -0.3797,-1.08361 -0.0455,-0.489 -0.14276,-1.25036 -0.21604,-1.69193 -0.20479,-1.23391 -0.20898,-1.58379 -0.0208,-1.73993 0.14388,-0.11941 0.17238,-0.0326 0.17238,0.52529 0,0.69915 0.33147,1.54613 0.68183,1.7422 0.10338,0.0579 0.15811,0.15352 0.1216,0.21259 -0.0365,0.0591 -0.01,0.1423 0.0592,0.18497 0.069,0.0427 0.12553,0.20998 0.12553,0.37179 0,0.40758 0.22512,0.50804 0.36377,0.16233 0.10124,-0.25245 0.11555,-0.23087 0.12247,0.18463 0.004,0.25876 0.0589,0.43892 0.12129,0.40035 0.0624,-0.0386 0.15256,0.10786 0.20034,0.3254 0.0785,0.35749 0.10208,0.37472 0.24502,0.17923 0.14045,-0.19207 0.16762,-0.16025 0.24272,0.28425 0.13009,0.77 0.35721,0.78852 0.28366,0.0231 -0.0689,-0.71664 0.0253,-0.75582 0.13874,-0.0577 0.0839,0.51616 0.37635,0.71697 0.39151,0.26883 0.0105,-0.30934 0.0478,-0.24183 0.16884,0.30552 0.0617,0.27882 0.12539,0.33122 0.32552,0.2677 0.13686,-0.0434 0.31758,-0.0219 0.40158,0.0478 0.084,0.0697 0.48431,0.14718 0.88956,0.17212 l 0.73683,0.0454 -0.80903,0.0234 c -0.4944,0.0143 -0.86667,-0.0343 -0.95725,-0.12486 -0.11412,-0.11412 -0.18184,-0.11459 -0.29438,-0.002 -0.19668,0.19668 -0.0806,0.28738 0.38491,0.30062 0.2132,0.006 0.41673,0.0581 0.45228,0.11561 0.0975,0.15767 -0.55751,0.11047 -1.18509,-0.0854 z m 0.12351,-0.29084 c 0,-0.0607 -0.0834,-0.1423 -0.18527,-0.1814 -0.11286,-0.0433 -0.18528,-1.9e-4 -0.18528,0.1103 0,0.0998 0.0834,0.1814 0.18528,0.1814 0.1019,0 0.18527,-0.0496 0.18527,-0.1103 z m -1.11164,-0.75431 c 0,-0.13587 -0.0556,-0.24703 -0.12352,-0.24703 -0.0679,0 -0.12351,0.11116 -0.12351,0.24703 0,0.13587 0.0556,0.24703 0.12351,0.24703 0.0679,0 0.12352,-0.11116 0.12352,-0.24703 z m -1.35868,-1.60571 c 0,-0.0679 -0.0556,-0.12351 -0.12351,-0.12351 -0.0679,0 -0.12352,0.0556 -0.12352,0.12351 0,0.0679 0.0556,0.12352 0.12352,0.12352 0.0679,0 0.12351,-0.0556 0.12351,-0.12352 z m 6.1758,-2.49816 c 0,-0.17503 3.08769,-2.93653 3.28339,-2.93653 0.14202,0 -0.0154,0.15355 -0.74587,0.72762 -0.43857,0.34466 -1.03988,0.86387 -1.33624,1.1538 -0.7976,0.78028 -1.20128,1.13484 -1.20128,1.05511 z m -0.61703,-0.51083 c -10e-4,-0.25998 1.10331,-1.38444 2.08068,-2.11796 0.58759,-0.44099 1.11989,-0.80181 1.18289,-0.80181 0.063,0 -0.32605,0.3228 -0.86457,0.71733 -0.53851,0.39453 -1.29847,1.07542 -1.68878,1.51307 -0.39031,0.43766 -0.70991,0.74787 -0.71022,0.68937 z m -0.0602,-1.06354 c -0.0408,-0.066 0.0117,-0.25109 0.11666,-0.41129 0.25406,-0.38774 0.0753,-0.54569 -0.20877,-0.18446 l -0.22292,0.28347 0.12556,-0.34771 c 0.16504,-0.45703 0.15957,-0.49462 -0.0597,-0.41047 -0.10815,0.0415 -0.18528,0.002 -0.18528,-0.0952 0,-0.0914 0.0834,-0.23547 0.18528,-0.32004 0.1019,-0.0846 0.18612,-0.27202 0.18716,-0.41655 0.001,-0.14453 0.0558,-0.34616 0.12163,-0.44806 0.17462,-0.2702 0.16404,0.43458 -0.0114,0.76247 -0.0947,0.17695 -0.0961,0.29106 -0.005,0.38254 0.16029,0.16029 0.38658,-0.37006 0.38658,-0.90602 0,-0.19938 0.0556,-0.36251 0.12351,-0.36251 0.0679,0 0.12997,-0.12506 0.13785,-0.27791 0.0108,-0.20913 0.0283,-0.22442 0.0708,-0.0618 0.0773,0.2959 0.2854,0.27339 0.2854,-0.0309 0,-0.13587 0.0556,-0.24703 0.12352,-0.24703 0.0679,0 0.12351,-0.0886 0.12351,-0.19684 0,-0.10826 0.11054,-0.22574 0.24565,-0.26107 0.1351,-0.0353 0.21486,-0.11405 0.17723,-0.17492 -0.0777,-0.12571 0.48872,-0.63064 1.23473,-1.1007 0.90889,-0.57271 0.88687,-0.51782 -0.20911,0.52109 -1.02981,0.9762 -1.5694,1.62444 -1.5712,1.88756 -4.5e-4,0.0656 0.29099,-0.15773 0.64765,-0.49632 1.31946,-1.25263 1.47723,-1.30988 0.30879,-0.11204 -1.2784,1.31056 -1.64403,1.86443 -0.55583,0.842 0.67811,-0.63713 1.54447,-1.22732 1.64867,-1.12313 0.0335,0.0335 -0.1779,0.20236 -0.46969,0.37533 -0.74676,0.44269 -1.97495,1.7245 -2.01669,2.10476 -0.0343,0.31226 -0.41445,0.93449 -0.57543,0.94181 -0.0469,0.002 -0.11873,-0.0501 -0.15953,-0.11615 z m 2.46816,-4.20303 c 0.042,-0.0679 0.0208,-0.12351 -0.0472,-0.12351 -0.0679,0 -0.15786,0.0556 -0.19985,0.12351 -0.042,0.0679 -0.0208,0.12352 0.0472,0.12352 0.0679,0 0.15787,-0.0556 0.19985,-0.12352 z m -1.66746,3.37561 c 0,-0.26344 2.07645,-2.01746 2.38714,-2.01647 0.0797,2.5e-4 -0.0303,0.10733 -0.24456,0.23796 -0.21422,0.13062 -0.78394,0.6096 -1.26604,1.06438 -0.4821,0.45479 -0.87654,0.77615 -0.87654,0.71413 z m -1.40618,-0.81306 c 0.051,-0.15285 0.13112,-0.50024 0.17813,-0.77198 0.0539,-0.3114 0.0907,-0.3799 0.0996,-0.18527 0.0227,0.49791 -0.12928,1.23516 -0.25469,1.23516 -0.0651,0 -0.0751,-0.12159 -0.023,-0.27791 z m -0.36104,-0.27791 c 0.0716,-0.49985 0.12441,-0.63912 0.20685,-0.54553 0.0249,0.0283 -0.0273,0.27379 -0.11614,0.54553 l -0.16148,0.49406 z m -0.3249,-0.39067 c 0.0818,-0.2152 0.0831,-0.37082 0.004,-0.45017 -0.0794,-0.0794 -0.14961,-0.008 -0.20325,0.20539 -0.0451,0.17966 -0.1298,0.32666 -0.18824,0.32666 -0.0584,0 -0.0698,-0.0973 -0.0252,-0.21616 0.0709,-0.18928 0.0551,-0.19508 -0.12739,-0.0466 -0.18053,0.14686 -0.2084,0.14096 -0.2084,-0.0441 0,-0.14111 -0.0642,-0.18897 -0.18923,-0.141 -0.18821,0.0722 -0.42835,-0.339 -0.42835,-0.73356 0,-0.26666 0.21907,-0.21289 0.31085,0.0763 0.0643,0.20249 0.11569,0.22431 0.25536,0.10839 0.13947,-0.11575 0.17489,-0.1015 0.17489,0.0704 0,0.16482 0.0385,0.1836 0.16351,0.0798 0.1194,-0.0991 0.2027,-0.0965 0.30879,0.01 0.11136,0.11137 0.14528,0.10426 0.14528,-0.0304 0,-0.1144 0.0631,-0.0857 0.18075,0.0824 0.14702,0.20991 0.15349,0.33029 0.0347,0.64507 -0.0803,0.21285 -0.18809,0.387 -0.23945,0.387 -0.0514,0 -0.0371,-0.14801 0.0317,-0.32891 z m 1.84509,-2.14141 c 0,-0.33967 -0.0556,-0.61758 -0.12351,-0.61758 -0.0679,0 -0.12352,0.27791 -0.12352,0.61758 0,0.33967 0.0556,0.61758 0.12352,0.61758 0.0679,0 0.12351,-0.27791 0.12351,-0.61758 z m 7.53447,0.25432 c 0,-0.0639 -0.0556,-0.15058 -0.12352,-0.19256 -0.0679,-0.042 -0.12351,0.0103 -0.12351,0.11623 0,0.10591 0.0556,0.19256 0.12351,0.19256 0.0679,0 0.12352,-0.0523 0.12352,-0.11623 z m -6.87222,-0.93366 c 0.0433,-0.11285 1.9e-4,-0.18527 -0.1103,-0.18527 -0.0998,0 -0.1814,0.0834 -0.1814,0.18527 0,0.1019 0.0496,0.18528 0.1103,0.18528 0.0607,0 0.14229,-0.0834 0.1814,-0.18528 z m 0.44939,-0.30879 c 0,-0.0679 -0.0589,-0.12351 -0.1308,-0.12351 -0.0719,0 -0.0965,0.0556 -0.0545,0.12351 0.042,0.0679 0.10085,0.12352 0.1308,0.12352 0.03,0 0.0545,-0.0556 0.0545,-0.12352 z m 0.49218,-0.36613 c 0.002,-0.1508 -0.0313,-0.14764 -0.198,0.019 -0.11013,0.11012 -0.15866,0.2666 -0.10808,0.34844 0.10688,0.17294 0.30289,-0.0624 0.30608,-0.36747 z m 4.20143,-0.99254 c -0.23947,-0.15476 -0.37055,-0.15476 -0.37055,0 0,0.0679 0.12506,0.12266 0.27791,0.12162 0.22473,-0.002 0.24246,-0.0248 0.0926,-0.12162 z"
       style="fill:#000000"
       id="path1-9" /></g></svg>
