<?xml version="1.0" encoding="UTF-8" standalone="no"?>
<!-- Created with Inkscape (http://www.inkscape.org/) -->

<svg
   width="11.528552mm"
   height="41.017654mm"
   viewBox="0 0 11.528552 41.017654"
   version="1.1"
   id="svg1"
   xml:space="preserve"
   xmlns="http://www.w3.org/2000/svg"
   xmlns:svg="http://www.w3.org/2000/svg"><defs
     id="defs1" /><g
     id="layer1"
     transform="translate(-81.836913,-25.12755)"><path
       d="m 87.622639,66.03018 c 0.03903,-0.0631 -0.0911,-0.38969 -0.289183,-0.72564 -0.198083,-0.33595 -0.430687,-0.92601 -0.516899,-1.31124 -0.150174,-0.67105 -0.361947,-1.04107 -0.361947,-0.63241 0,0.17177 0.346199,1.55908 0.556726,2.23095 0.04212,0.13441 -0.017,0.0822 -0.13137,-0.11603 -0.257073,-0.44555 -0.848682,-3.25877 -1.171004,-5.56834 -0.688874,-4.9361 -0.686333,-4.88517 -0.613092,-12.28983 0.03016,-3.04883 0.0075,-3.51685 -0.221367,-4.57009 -0.14023,-0.64537 -0.38959,-1.4791 -0.554132,-1.85273 -0.164543,-0.37364 -0.56259,-1.51307 -0.88455,-2.53208 -0.32196,-1.019 -0.815097,-2.51972 -1.09586,-3.33493 -0.503189,-1.46102 -0.510348,-1.506 -0.501277,-3.14965 0.0083,-1.50497 0.04179,-1.75172 0.34363,-2.53207 0.625632,-1.61748 1.158283,-2.33265 2.456698,-3.29855 1.447234,-1.0766 2.94669,-1.48817 3.799802,-1.04297 0.491005,0.25624 1.458166,1.35346 2.230752,2.53074 0.386084,0.58833 1.10234,1.52871 1.59168,2.08974 0.584219,0.66981 0.92656,1.17873 0.997033,1.48219 0.150814,0.64939 0.139548,4.67694 -0.01532,5.47854 -0.0707,0.36593 -0.237451,1.30451 -0.370561,2.08575 -0.133111,0.78124 -0.489714,2.25417 -0.792451,3.27317 -0.607641,2.04531 -0.939076,3.78041 -1.238673,6.48458 -0.109133,0.98504 -0.308171,2.66422 -0.442306,3.73151 -0.134135,1.06728 -0.297212,2.95708 -0.362392,4.19953 -0.06518,1.24246 -0.150453,2.53693 -0.189495,2.8766 -0.15371,1.33728 -0.561431,3.63996 -0.724649,4.09258 -0.319108,0.88494 -0.903973,2.09269 -1.116143,2.30486 -0.221584,0.22159 -0.505142,0.29241 -0.383646,0.0958 z m 0.678272,-1.34975 c 0.297799,-0.81474 0.471808,-2.06705 0.269878,-1.94225 -0.07696,0.0476 -0.139926,0.17653 -0.139926,0.28658 0,0.32026 -0.532839,1.88509 -0.641891,1.88509 -0.05456,0 -0.0992,-0.0615 -0.0992,-0.13673 0,-0.0752 -0.08626,-0.10363 -0.191689,-0.0632 -0.105429,0.0405 -0.162281,0.026 -0.126337,-0.0322 0.03594,-0.0582 -0.01675,-0.53486 -0.117101,-1.05934 -0.216731,-1.13275 -0.214169,-1.08956 -0.05894,-0.99362 0.07246,0.0448 0.123515,-0.0861 0.123515,-0.31662 0,-0.3217 -0.03117,-0.36709 -0.171894,-0.25031 -0.142069,0.11791 -0.194381,0.008 -0.301496,-0.63333 -0.07128,-0.4268 -0.166527,-1.10949 -0.211657,-1.51708 -0.07498,-0.67719 -0.066,-0.72004 0.104162,-0.49694 0.203231,0.26646 0.120126,0.47383 0.979074,-2.44313 0.136091,-0.46216 0.274098,-0.81363 0.306682,-0.78105 0.03259,0.0326 -0.05585,0.43851 -0.196522,0.90205 -0.140672,0.46355 -0.373618,1.24586 -0.517659,1.73848 -0.14404,0.49262 -0.304226,0.92184 -0.355968,0.95381 -0.108214,0.0669 0.135799,0.92962 0.262929,0.92962 0.04633,0 0.111768,-0.0973 0.145418,-0.21615 0.03365,-0.11888 0.05162,0.034 0.03994,0.33967 -0.03165,0.82804 0.204177,0.78889 0.371961,-0.0618 l 0.146177,-0.74109 -0.0708,0.92637 c -0.03894,0.5095 -0.118615,0.94489 -0.177056,0.96754 -0.147308,0.0571 -0.133758,0.60659 0.01726,0.69992 0.06973,0.0431 0.123516,-0.0578 0.123516,-0.2317 0,-0.16942 0.05672,-0.45723 0.126046,-0.63957 0.06933,-0.18234 0.180623,-0.72788 0.247329,-1.21232 0.158204,-1.14891 0.387446,-2.05419 0.520183,-2.05419 0.05817,0 0.07486,-0.20843 0.03708,-0.46318 -0.05379,-0.36277 -0.04169,-0.40963 0.05585,-0.21615 0.102577,0.20348 0.112778,0.17996 0.05787,-0.13346 -0.03666,-0.20927 -0.0039,-0.65393 0.07275,-0.98813 0.07668,-0.3342 0.155605,-1.08008 0.175398,-1.65752 0.01979,-0.57744 0.09499,-1.1975 0.16711,-1.37791 0.176561,-0.4417 0.372943,-1.9403 0.4966,-3.78959 0.06089,-0.91063 0.159104,-1.55914 0.244071,-1.61166 0.0782,-0.0483 0.218223,-0.55764 0.311165,-1.1318 0.16115,-0.99554 0.173447,-1.0219 0.265237,-0.56854 0.162856,0.80437 0.307264,0.25426 0.309315,-1.17832 0.0011,-0.74495 0.05573,-1.35378 0.125408,-1.39685 0.442982,-0.27378 -0.603067,-1.76853 -1.553152,-2.21937 -0.532398,-0.25264 -0.473277,-0.39742 0.08309,-0.20347 0.850544,0.2965 0.819772,0.0766 -0.06795,-0.48562 -0.72358,-0.45824 -0.85067,-0.69458 -0.407362,-0.75754 0.152851,-0.0217 0.332319,-0.16347 0.398818,-0.31502 0.191748,-0.43698 0.434914,-0.4534 0.434914,-0.0294 0,0.52842 0.201912,0.4514 0.291898,-0.11135 0.04204,-0.26291 0.160309,-0.54763 0.262818,-0.6327 0.102509,-0.0851 0.18723,-0.27293 0.188271,-0.41747 0.0014,-0.1982 0.02846,-0.22083 0.110012,-0.0921 0.121535,0.1919 0.134089,0.16096 0.385294,-0.94935 0.08152,-0.36032 0.17601,-0.62734 0.209977,-0.59337 0.03397,0.034 -0.0014,0.32877 -0.07869,0.65512 -0.07724,0.32636 -0.163985,0.70454 -0.192757,0.8404 -0.02877,0.13587 -0.146663,0.56781 -0.26198,0.95988 -0.22021,0.74868 -0.151363,1.05839 0.145138,0.65291 0.205204,-0.28064 0.222199,-0.2086 0.05472,0.23191 -0.09629,0.25325 -0.0831,0.31683 0.06574,0.31683 0.102408,0 0.232459,-0.12506 0.289003,-0.27791 0.05654,-0.15285 0.151475,-0.25012 0.210959,-0.21615 0.05948,0.034 0.148369,-0.10499 0.19752,-0.30879 0.0706,-0.29274 0.07981,-0.26032 0.04384,0.15439 -0.05626,0.64881 0.09093,0.67586 0.336098,0.0618 0.412859,-1.03414 0.635168,-2.86821 0.640029,-5.2803 0.0056,-2.75942 -0.06038,-3.02787 -0.948281,-3.86078 -0.758926,-0.71193 -1.447597,-1.75845 -2.332092,-3.54389 -0.367072,-0.74098 -0.848168,-1.53976 -1.069103,-1.77508 -0.393773,-0.41942 -0.416329,-0.42633 -1.142987,-0.35038 -0.847138,0.0885 -1.648724,0.45797 -2.564659,1.18197 -0.760402,0.60107 -0.936052,0.89253 -0.829697,1.37676 0.09492,0.43217 0.256814,0.4696 0.378113,0.0874 l 0.08756,-0.27588 0.102055,0.27588 c 0.153297,0.4144 0.363358,0.33831 0.27572,-0.0999 -0.05607,-0.28033 -0.01821,-0.4174 0.149065,-0.53971 0.25368,-0.18549 0.563788,-0.006 0.459393,0.26636 -0.03272,0.0853 -0.0039,0.15504 0.06402,0.15504 0.170651,0 0.288504,-0.34494 0.1353,-0.39601 -0.08066,-0.0269 -0.07345,-0.17059 0.02054,-0.40941 0.13177,-0.3348 0.153087,-0.34571 0.236463,-0.12094 0.08854,0.23867 0.09463,0.23763 0.179994,-0.0309 0.0486,-0.15285 0.138449,-0.27791 0.199673,-0.27791 0.06122,0 0.07582,0.0925 0.03244,0.20553 -0.05303,0.1382 -0.03153,0.17628 0.06564,0.11623 0.07948,-0.0491 0.144506,-0.1626 0.144506,-0.25217 0,-0.0896 0.09247,-0.23915 0.205495,-0.33238 0.185763,-0.15324 0.191693,-0.14361 0.06176,0.10027 -0.173577,0.3258 -0.184548,0.53306 -0.02822,0.53306 0.06354,0 0.185867,-0.19453 0.271845,-0.4323 0.08598,-0.23777 0.197904,-0.43231 0.248724,-0.43231 0.05082,0 0.01186,0.19275 -0.08657,0.42834 -0.223814,0.53566 -0.225021,0.62825 -0.0058,0.44633 0.09524,-0.079 0.207459,-0.28038 0.249385,-0.44743 0.100273,-0.39952 0.271101,-0.38609 0.375409,0.0295 0.06672,0.26583 0.10802,0.29706 0.204191,0.1544 0.09154,-0.1358 0.111796,-0.10453 0.08415,0.12995 -0.02278,0.19325 0.02056,0.29751 0.115817,0.27864 0.08372,-0.0166 0.187633,0.12237 0.230911,0.30879 0.04328,0.18642 0.31697,0.83918 0.608202,1.45059 0.588268,1.23499 0.742466,1.66876 0.591814,1.66482 -0.157793,-0.004 -0.709563,-0.8522 -1.063058,-1.63395 -0.216294,-0.47832 -0.393958,-0.71155 -0.544138,-0.71432 -0.259815,-0.005 -0.778807,-0.40622 -0.778807,-0.60239 0,-0.39516 -1.316893,0.0931 -2.197576,0.8147 -0.304449,0.24947 -0.579723,0.39315 -0.624676,0.32605 -0.0442,-0.066 -0.177639,-0.15585 -0.296523,-0.19972 -0.118884,-0.0439 -0.216153,-0.19266 -0.216153,-0.33066 0,-0.40441 -0.440153,-0.30553 -0.730388,0.16408 -0.461527,0.74676 -0.626824,1.44434 -0.763887,3.22371 -0.127129,1.65041 -0.11916,1.81446 0.135713,2.79369 0.148925,0.57218 0.346701,1.21109 0.439502,1.41981 0.0928,0.20871 0.314543,0.84791 0.492761,1.42043 0.178217,0.57252 0.541579,1.63593 0.80747,2.36312 0.265892,0.7272 0.484291,1.42197 0.485331,1.54395 0.0036,0.42468 0.173912,0.55153 0.548956,0.40894 0.65739,-0.24994 1.318108,-0.35933 1.268328,-0.20999 -0.02549,0.0765 -0.260244,0.1835 -0.521665,0.23781 -0.786929,0.1635 -0.820071,0.23281 -0.747843,1.56386 0.03538,0.65204 0.09641,3.51998 0.135615,6.3732 0.04906,3.57063 0.128534,5.59192 0.254949,6.48458 0.101016,0.7133 0.234838,1.78508 0.297382,2.38172 0.06254,0.59665 0.167234,1.29142 0.232644,1.54395 0.06541,0.25253 0.233588,1.15889 0.373727,2.01413 0.325461,1.98621 0.672259,3.13939 0.901508,2.99771 0.177611,-0.10977 0.349187,0.22191 0.26457,0.51145 -0.157938,0.54043 0.327115,-0.13315 0.565461,-0.78524 z m -0.848423,-4.65975 c 0.0059,-0.14388 0.03519,-0.17315 0.07462,-0.0746 0.03568,0.0892 0.03129,0.1957 -0.0098,0.23674 -0.04104,0.041 -0.07024,-0.0319 -0.06487,-0.16212 z m 0.26381,-0.97783 c -0.0015,-0.13586 0.06862,-0.52494 0.155928,-0.86461 0.08731,-0.33966 0.160011,-0.50641 0.161559,-0.37054 0.0015,0.13586 -0.06862,0.52494 -0.155927,0.86461 -0.08731,0.33967 -0.160011,0.50641 -0.16156,0.37054 z m 0.487036,-0.55582 c 0,-0.16983 0.02804,-0.23931 0.0623,-0.15439 0.03426,0.0849 0.03426,0.22387 0,0.30879 -0.03426,0.0849 -0.0623,0.0154 -0.0623,-0.1544 z m 0.163996,-0.98812 c 0.06054,-0.54476 0.05793,-0.54968 -0.131151,-0.24703 -0.137145,0.2195 -0.170045,0.23736 -0.113791,0.0618 0.04352,-0.13587 0.191538,-0.71948 0.32892,-1.29692 0.222722,-0.93614 0.459598,-1.59999 0.469862,-1.31681 0.0064,0.17666 -0.499692,3.10055 -0.559303,3.2313 -0.03097,0.0679 -0.02851,-0.1266 0.0055,-0.4323 z m -1.339808,-0.0618 c 0.0391,-0.1019 0.09294,-0.18528 0.119639,-0.18528 0.0267,0 0.04854,0.0834 0.04854,0.18528 0,0.1019 -0.05384,0.18527 -0.11964,0.18527 -0.0658,0 -0.08765,-0.0834 -0.04854,-0.18527 z m 0.177481,-0.38566 c -0.01261,-0.18802 0.588697,-2.01632 0.743296,-2.26003 0.09846,-0.15521 0.108864,-0.14019 0.05082,0.0733 -0.164677,0.60576 -0.785491,2.31525 -0.794114,2.1867 z m 0.131382,-1.7898 c 0.340578,-0.90944 0.664624,-1.70038 0.720103,-1.75764 0.05548,-0.0573 -0.168362,0.63202 -0.497424,1.53173 -0.329062,0.8997 -0.653108,1.69064 -0.720103,1.75763 -0.06699,0.067 0.156847,-0.62228 0.497424,-1.53172 z m -0.35595,-0.73284 c 0.27067,-0.81832 0.518322,-1.46167 0.550337,-1.42965 0.07724,0.0772 -0.85994,2.91752 -0.962662,2.91752 -0.04389,0 0.141654,-0.66954 0.412325,-1.48787 z m 1.099026,1.30259 c 0,-0.13587 0.102549,-0.52494 0.227886,-0.86461 0.125337,-0.33967 0.227886,-0.50641 0.227886,-0.37055 0,0.13587 -0.102549,0.52495 -0.227886,0.86461 -0.125337,0.33967 -0.227886,0.50642 -0.227886,0.37055 z m -1.744632,-0.67934 c -0.0069,-0.27987 0.768995,-2.71734 0.864934,-2.71734 0.07893,0 -0.113827,0.67761 -0.632454,2.22328 -0.125367,0.37364 -0.229984,0.59596 -0.23248,0.49406 z m -0.19317,-0.98838 c 0.237693,-0.94413 0.667215,-2.2499 0.670303,-2.03775 0.0044,0.30513 -0.521783,2.12009 -0.652634,2.25095 -0.05244,0.0524 -0.06039,-0.0435 -0.01767,-0.2132 z m -0.16878,-0.65881 c -0.01737,-0.14539 0.367658,-1.69863 0.494911,-1.99652 0.177152,-0.41471 -0.02609,0.67501 -0.264919,1.42043 -0.119712,0.37363 -0.223208,0.63288 -0.229992,0.57609 z m -0.05875,-1.43628 c 0.09754,-0.53741 0.396596,-1.36136 0.408259,-1.12483 0.0091,0.18404 -0.192512,0.88005 -0.378169,1.30568 -0.07415,0.16999 -0.08353,0.11358 -0.03009,-0.18085 z m -0.110301,-1.22968 c -0.05373,-0.20545 -0.03765,-0.25367 0.054,-0.16202 0.07178,0.0718 0.106199,0.20341 0.0765,0.29252 -0.03084,0.0925 -0.08682,0.0365 -0.1305,-0.1305 z m 0.166466,-0.4525 c 0.0059,-0.14389 0.0352,-0.17316 0.07462,-0.0746 0.03568,0.0892 0.03129,0.1957 -0.0098,0.23674 -0.04104,0.041 -0.07024,-0.0319 -0.06487,-0.16211 z m -0.04906,-0.85432 c 0.07942,-0.39735 0.133176,-0.50378 0.213164,-0.42201 0.02769,0.0283 -0.02561,0.21821 -0.118441,0.42201 l -0.168782,0.37055 z m -0.727229,-8.79125 c -0.267736,-0.29584 -0.495302,-0.90409 -0.415782,-1.11131 0.03461,-0.0902 0.0031,-0.16398 -0.06993,-0.16398 -0.07307,0 -0.09868,-0.089 -0.05692,-0.19788 0.07728,-0.20138 -0.582643,-2.37812 -0.857438,-2.82825 -0.08294,-0.13587 -0.183594,-0.38924 -0.22367,-0.56303 -0.04008,-0.1738 -0.16837,-0.53509 -0.2851,-0.80286 -0.11673,-0.26777 -0.221814,-0.62581 -0.233521,-0.79564 -0.01171,-0.16984 -0.08889,-0.74943 -0.171526,-1.288 -0.155287,-1.01208 -0.112761,-1.54481 0.176716,-2.21376 0.09258,-0.21395 0.201483,-0.49421 0.242008,-0.62282 0.04053,-0.12861 0.100758,-0.20676 0.133852,-0.17366 0.03309,0.0331 -0.0238,0.29815 -0.126424,0.58903 -0.350331,0.99294 -0.162333,2.532 0.374913,3.06924 l 0.303106,0.30311 0.0084,-0.29476 c 0.0078,-0.27553 0.01541,-0.27864 0.116391,-0.0477 0.308505,0.70545 1.101726,3.07699 1.291031,3.85987 0.226875,0.93825 0.467181,1.2286 0.357802,0.43231 -0.03499,-0.25475 -0.228242,-1.03996 -0.429441,-1.74491 -0.377212,-1.32165 -0.417973,-1.90063 -0.05163,-0.73341 0.113319,0.36105 0.280359,0.851 0.371198,1.08877 0.09084,0.23776 0.230102,0.7519 0.309471,1.14252 0.08605,0.42347 0.208707,0.71021 0.303815,0.71021 0.08773,0 0.255662,0.3057 0.373185,0.67934 0.22068,0.7016 0.353595,0.82968 0.49057,0.47273 0.06998,-0.18236 0.101341,-0.17511 0.26725,0.0618 0.103383,0.1476 0.292701,0.26836 0.420707,0.26836 0.128006,0 0.26709,0.0556 0.309075,0.12352 0.122925,0.1989 -0.509776,0.14255 -0.678208,-0.0604 -0.20433,-0.2462 -0.401993,-0.10619 -0.300689,0.21299 0.06371,0.20075 0.03838,0.23896 -0.118492,0.17876 -0.10974,-0.0421 -0.199527,-0.0168 -0.199527,0.0563 0,0.0731 -0.08159,0.10154 -0.181318,0.0633 -0.09972,-0.0383 -0.210275,-0.0227 -0.245668,0.0345 -0.03539,0.0573 -0.255455,0.13997 -0.489029,0.18379 -0.233574,0.0438 -0.444043,0.13776 -0.467708,0.20875 -0.02367,0.071 -0.135006,0.0275 -0.247424,-0.0968 z m 1.287745,-1.26985 c -0.03035,-0.20679 -0.104457,-0.37598 -0.16468,-0.37598 -0.125441,0 -0.145255,0.38067 -0.0348,0.66852 0.121472,0.31655 0.259222,0.11453 0.199477,-0.29254 z m -0.622463,-0.64248 c -0.08307,-0.30021 -0.13676,-0.35968 -0.196804,-0.21799 -0.04542,0.10717 -0.0181,0.35729 0.06071,0.55582 0.183322,0.46185 0.286499,0.20573 0.136096,-0.33783 z m -0.51632,-1.02894 c 0,-0.10109 -0.166622,-0.6986 -0.370271,-1.3278 -0.574115,-1.7738 -0.837158,-1.95932 -0.308575,-0.21763 0.113394,0.37364 0.266305,0.91556 0.339802,1.20428 0.129016,0.50681 0.339044,0.71814 0.339044,0.34115 z m -1.037019,-3.2412 c -0.125555,-0.12555 -0.229152,0.0635 -0.126136,0.23016 0.07782,0.12592 0.106912,0.12601 0.14875,5e-4 0.02861,-0.0858 0.01843,-0.18961 -0.02261,-0.23066 z m -0.321655,0.0901 c 0,-0.0679 -0.02451,-0.12351 -0.05447,-0.12351 -0.02996,0 -0.08882,0.0556 -0.130805,0.12351 -0.04198,0.0679 -0.01747,0.12352 0.05447,0.12352 0.07194,0 0.130806,-0.0556 0.130805,-0.12352 z m 7.17367,4.9921 c 0.0059,-0.14389 0.03519,-0.17315 0.07462,-0.0746 0.03568,0.0892 0.03129,0.1957 -0.0098,0.23674 -0.04104,0.041 -0.07024,-0.0319 -0.06487,-0.16211 z m 0.557271,-0.42201 c 0.0447,-0.3424 0.377349,-1.95402 0.522638,-2.53207 0.07652,-0.30445 0.09611,-0.24386 0.10983,0.33966 0.0092,0.39062 -0.03714,0.71022 -0.102931,0.71022 -0.068,0 -0.08726,0.17323 -0.04463,0.40143 0.05629,0.30129 0.01416,0.46657 -0.168893,0.66259 -0.134137,0.14365 -0.269184,0.36598 -0.300105,0.49407 -0.03092,0.12809 -0.03808,0.0939 -0.01591,-0.0759 z m -0.441615,-0.072 c 0.001,-0.13021 0.05831,-0.32011 0.127268,-0.42201 0.09156,-0.13531 0.103022,-0.0853 0.04249,0.18527 -0.101588,0.45416 -0.172283,0.55275 -0.169758,0.23674 z m -7.028571,-0.31222 c -0.07609,-0.21828 -0.116738,-0.4185 -0.09032,-0.44492 0.02642,-0.0264 0.110293,0.13057 0.186387,0.34885 0.0761,0.21829 0.116739,0.4185 0.09032,0.44492 -0.02642,0.0264 -0.110293,-0.13056 -0.186387,-0.34885 z m 7.283462,-0.55239 c 0.0059,-0.14389 0.03519,-0.17316 0.07462,-0.0746 0.03568,0.0892 0.03129,0.1957 -0.0098,0.23674 -0.04104,0.041 -0.07024,-0.0319 -0.06487,-0.16212 z m 0.138279,-0.66904 c -8.97e-4,-0.34649 0.311454,-1.6484 0.325971,-1.35868 0.0051,0.1019 -0.06597,0.51877 -0.157944,0.92637 -0.09198,0.4076 -0.167587,0.60214 -0.168027,0.43231 z M 83.80696,37.40208 c -0.06703,-0.17603 -0.05284,-0.19022 0.06914,-0.0691 0.08441,0.0838 0.122363,0.18345 0.08433,0.22148 -0.03803,0.038 -0.107094,-0.0305 -0.153478,-0.15234 z m 4.376871,25.26996 c 0,-0.29792 -0.04903,-0.46376 -0.123516,-0.41773 -0.06793,0.042 -0.123515,0.29867 -0.123515,0.5704 0,0.29793 0.04904,0.46376 0.123515,0.41773 0.06793,-0.042 0.123516,-0.29867 0.123516,-0.5704 z m -1.770935,-0.13982 c -0.03427,-0.0849 -0.0623,-0.0154 -0.0623,0.1544 0,0.16983 0.02803,0.23931 0.0623,0.15439 0.03426,-0.0849 0.03426,-0.22387 0,-0.30879 z m -0.139047,-1.27268 c -0.04596,-0.36784 -0.142637,-0.70531 -0.214841,-0.74993 -0.132514,-0.0819 -0.03766,1.12876 0.120787,1.54167 0.131671,0.34313 0.182445,-0.0843 0.09405,-0.79174 z m 2.370093,-0.94289 c 0.05429,-0.83806 0.03633,-1.10452 -0.07003,-1.03879 -0.07868,0.0486 -0.145474,0.32136 -0.148432,0.60606 -0.003,0.28471 -0.05292,0.76397 -0.111033,1.06503 -0.05811,0.30105 -0.0752,0.62673 -0.03797,0.72373 0.137423,0.35812 0.293796,-0.21893 0.367465,-1.35603 z m -1.448237,1.07305 c 0,-0.1019 -0.05558,-0.18527 -0.123516,-0.18527 -0.06793,0 -0.123516,0.0834 -0.123516,0.18527 0,0.1019 0.05558,0.18528 0.123516,0.18528 0.06793,0 0.123516,-0.0834 0.123516,-0.18528 z m -0.288746,-0.83373 c -0.03426,-0.0849 -0.0623,-0.0154 -0.0623,0.15439 0,0.16984 0.02803,0.23932 0.0623,0.1544 0.03426,-0.0849 0.03426,-0.22387 0,-0.30879 z m 2.395801,-0.70311 c 0.0613,-0.48816 0.144028,-0.94028 0.183851,-1.00472 0.03982,-0.0644 0.117867,-0.65837 0.173432,-1.31987 0.05557,-0.66149 0.278677,-2.94343 0.495804,-5.07098 0.217127,-2.12754 0.352443,-3.96175 0.300703,-4.07602 -0.06558,-0.14483 -0.121602,-0.0207 -0.184966,0.40982 -0.133411,0.90647 -0.58093,4.89828 -0.796219,7.10216 -0.193105,1.97679 -0.354717,3.43628 -0.499218,4.50832 -0.06468,0.47987 -0.04997,0.5865 0.06596,0.47821 0.08206,-0.0767 0.199356,-0.53877 0.260651,-1.02692 z m 0.857325,-11.06177 c 0,-0.1019 -0.05558,-0.18528 -0.123516,-0.18528 -0.06793,0 -0.123516,0.0834 -0.123516,0.18528 0,0.1019 0.05558,0.18527 0.123516,0.18527 0.06793,0 0.123516,-0.0834 0.123516,-0.18527 z m 1.432913,-6.18155 c 0.08732,-0.3479 0.01218,-0.49454 -0.189537,-0.36987 -0.165393,0.10222 -0.174385,0.68442 -0.01057,0.68442 0.06664,0 0.156688,-0.14155 0.200107,-0.31455 z m -0.568302,-0.21746 c 0,-0.0889 -0.07489,-0.26408 -0.16642,-0.38925 -0.234269,-0.32039 -0.36058,-0.0451 -0.130215,0.28376 0.214663,0.30648 0.296635,0.33563 0.296635,0.10549 z M 90.43182,39.8117 c -0.115282,-0.11528 -0.148219,-0.0823 -0.148219,0.14822 0,0.23056 0.03294,0.2635 0.148219,0.14822 0.115281,-0.11528 0.115281,-0.18116 0,-0.29644 z m 2.569129,-8.37437 c 0,-0.13587 -0.05558,-0.24704 -0.123516,-0.24704 -0.06793,0 -0.123515,0.11117 -0.123515,0.24704 0,0.13586 0.05558,0.24703 0.123515,0.24703 0.06793,0 0.123516,-0.11117 0.123516,-0.24703 z m -0.654043,-0.68782 c 0.0078,-0.27366 -0.05321,-0.46599 -0.160795,-0.50727 -0.09531,-0.0366 -0.173289,-0.14065 -0.173289,-0.23127 0,-0.18341 -0.226941,-0.36413 -0.329041,-0.26203 -0.03607,0.0361 0.02283,0.22228 0.130887,0.4138 0.108054,0.19152 0.251049,0.50107 0.317767,0.68789 0.159763,0.44735 0.199454,0.42864 0.214471,-0.10112 z m -0.681987,-0.45059 c -0.08863,-0.0886 -0.14616,-0.0959 -0.14616,-0.0185 0,0.16487 0.146071,0.31094 0.228504,0.22851 0.0351,-0.0351 -0.002,-0.12959 -0.08234,-0.20998 z m -0.14616,-0.77609 c 0,-0.1019 -0.05558,-0.18527 -0.123516,-0.18527 -0.06793,0 -0.123516,0.0834 -0.123516,0.18527 0,0.1019 0.05558,0.18527 0.123516,0.18527 0.06793,0 0.123516,-0.0834 0.123516,-0.18527 z m -0.247032,-0.38778 c 0,-0.12421 -1.351475,-2.14429 -1.434576,-2.14429 -0.224418,0 0.253546,0.97099 0.878763,1.78522 0.101896,0.1327 0.185266,0.28555 0.185266,0.33967 0,0.0541 0.08337,0.0984 0.185274,0.0984 0.1019,0 0.185273,-0.0356 0.185273,-0.079 z m -5.249423,-1.65023 c 0.04199,-0.0679 0.01748,-0.12352 -0.05447,-0.12352 -0.07194,0 -0.130806,0.0556 -0.130806,0.12352 0,0.0679 0.02451,0.12352 0.05447,0.12352 0.02996,0 0.08882,-0.0556 0.130806,-0.12352 z m 1.612357,-0.50483 c 0.04564,-0.0739 0.02858,-0.18869 -0.03793,-0.25519 -0.07888,-0.0789 -0.144117,-0.0322 -0.187651,0.13428 -0.07013,0.26819 0.08362,0.3506 0.225579,0.12091 z"
       style="fill:#000000"
       id="path1-2" /></g></svg>
