<?xml version="1.0" encoding="UTF-8" standalone="no"?>
<!-- Created with Inkscape (http://www.inkscape.org/) -->

<svg
   width="12.574382mm"
   height="42.549721mm"
   viewBox="0 0 12.574382 42.549721"
   version="1.1"
   id="svg1"
   xml:space="preserve"
   xmlns="http://www.w3.org/2000/svg"
   xmlns:svg="http://www.w3.org/2000/svg"><defs
     id="defs1" /><g
     id="layer1"
     transform="translate(-56.183887,-84.483916)"><path
       d="m 60.150954,84.622589 c -0.522549,0.15783 -0.775575,0.16346 -1.644353,0.0366 -0.663416,-0.0969 -1.141918,-0.10942 -1.352148,-0.0355 -0.854513,0.30051 -1.111384,1.7415 -0.900876,5.0537 0.08203,1.29074 0.252774,3.06937 0.379424,3.95251 0.12665,0.88314 0.266352,2.13373 0.31045,2.7791 0.0441,0.64537 0.215534,2.36842 0.38097,3.828991 0.165435,1.46058 0.408558,4.46361 0.540274,6.6734 0.286329,4.80377 0.967629,10.4516 1.609872,13.34553 0.321165,1.44715 1.297609,4.34399 1.756634,5.21145 0.20736,0.39186 0.598184,0.91229 0.868497,1.1565 0.460702,0.41622 0.53291,0.44059 1.15307,0.38916 1.228685,-0.10189 1.166522,0.1747 1.129709,-5.02651 -0.03504,-4.95092 0.01743,-5.56769 0.789008,-9.27443 0.205042,-0.98503 0.425923,-2.20784 0.490847,-2.71734 0.12668,-0.99414 0.258947,-1.88211 0.542747,-3.64372 0.0985,-0.6114 0.264881,-2.11212 0.369738,-3.33493 0.247472,-2.88592 0.37195,-3.793311 0.671894,-4.897771 0.715074,-2.63306 1.504809,-7.49572 1.51146,-9.30655 0.0086,-2.35326 -0.518222,-3.54264 -1.808036,-4.08155 -0.383761,-0.16035 -0.847072,-0.19719 -2.221599,-0.17665 -0.955195,0.0143 -2.236957,-0.007 -2.84836,-0.0463 -0.812462,-0.0528 -1.277854,-0.022 -1.729222,0.11428 z m 3.13383,0.43598 c 0.385332,0.13433 0.635229,0.43145 0.631512,0.75086 -0.0014,0.12093 -0.03131,0.11599 -0.116871,-0.0193 -0.09735,-0.15392 -0.12846,-0.14668 -0.202876,0.0472 -0.04834,0.12598 -0.02035,0.33721 0.0622,0.46941 0.08916,0.14276 0.106372,0.2991 0.0424,0.38506 -0.06259,0.0841 -0.05138,0.30864 0.02675,0.53601 l 0.13446,0.3913 0.712424,-0.68462 c 0.769075,-0.73906 0.889492,-1.04277 0.159223,-0.40158 -0.308939,0.27125 -0.445276,0.33352 -0.445276,0.20338 0,-0.10316 0.247354,-0.4053 0.549675,-0.67141 0.425093,-0.37418 0.533806,-0.54453 0.479658,-0.75159 -0.05952,-0.22759 -0.01813,-0.26775 0.275938,-0.26775 0.933988,0 2.183415,1.07372 2.626041,2.25674 l 0.259189,0.69275 -0.299391,2.70419 c -0.42693,3.85617 -0.850566,5.67439 -1.622077,6.96186 -0.684636,1.1425 -1.703421,1.93637 -2.896663,2.25719 -0.559972,0.150551 -0.604706,0.181271 -0.273886,0.188071 0.685781,0.0141 1.713809,-0.325161 2.433701,-0.803141 0.382153,-0.25374 0.724537,-0.43162 0.760853,-0.39531 0.03632,0.0363 0.01116,0.41992 -0.05591,0.85246 -0.06707,0.432531 -0.185178,1.620161 -0.262471,2.639161 -0.25693,3.3873 -0.660434,6.12633 -1.464777,9.94303 -0.35449,1.6821 -0.714901,3.75721 -0.847376,4.87887 -0.03209,0.27174 -0.108241,0.54687 -0.169217,0.61141 -0.270285,0.28607 -0.03288,-2.25447 0.564988,-6.0461 0.397469,-2.52072 0.559557,-4.69613 0.330851,-4.4404 -0.05772,0.0645 -0.229203,0.53421 -0.381081,1.04371 -0.519098,1.74141 -0.57148,1.77814 -1.181444,0.82849 -0.203801,-0.3173 -0.414189,-0.57793 -0.46753,-0.57918 -0.13418,-0.003 0.07379,0.36157 0.597094,1.04714 0.437633,0.57333 0.480588,0.77448 0.137252,0.64273 -0.268842,-0.10317 -0.980984,-1.42322 -0.892373,-1.65414 0.07993,-0.2083 -0.509559,-1.22911 -0.636482,-1.10218 -0.0864,0.0864 0.385753,1.41096 0.788269,2.21137 0.163568,0.32526 0.431292,0.65238 0.594941,0.72694 0.370084,0.16863 0.403426,0.26691 0.33844,0.9976 -0.06044,0.67954 -0.234199,0.75569 -0.439461,0.19258 -0.213117,-0.58466 -1.190693,-2.53017 -1.192227,-2.37269 -7.28e-4,0.0747 0.33217,0.83822 0.739772,1.69674 0.713528,1.50287 0.880158,2.0582 0.617579,2.0582 -0.06793,0 -0.123516,-0.0592 -0.123516,-0.13161 0,-0.22744 -0.863075,-2.01087 -0.937246,-1.93669 -0.03884,0.0388 0.01185,0.2005 0.112652,0.35924 0.1008,0.15875 0.306424,0.59433 0.456944,0.96797 0.15052,0.37363 0.355746,0.86575 0.456057,1.09358 0.121205,0.2753 0.141083,0.45555 0.05926,0.53738 -0.08182,0.0818 -0.15232,0.0257 -0.210155,-0.16722 -0.114489,-0.38195 -0.958887,-1.70831 -1.088443,-1.70969 -0.05558,-6e-4 0.01686,0.16451 0.160976,0.36689 0.330032,0.46349 0.989956,1.90917 0.989956,2.16868 0,0.31639 -0.175771,0.11818 -0.548496,-0.61849 -0.192228,-0.37994 -0.377264,-0.66303 -0.411193,-0.6291 -0.08251,0.0825 0.214707,0.81998 0.435037,1.07942 0.09667,0.11383 0.153142,0.30837 0.125502,0.43231 -0.03708,0.16624 -0.10513,0.0989 -0.25948,-0.25681 -0.115073,-0.26518 -0.240162,-0.45121 -0.277977,-0.41339 -0.03781,0.0378 0.05175,0.30496 0.199032,0.59365 0.459631,0.90095 0.630433,1.47529 0.438734,1.47529 -0.0904,0 -0.253417,-0.18064 -0.362256,-0.40142 -0.108839,-0.22079 -0.198788,-0.31806 -0.199887,-0.21616 -0.0011,0.1019 0.108433,0.35202 0.243405,0.55583 0.303488,0.45825 0.344954,0.91436 0.06176,0.67933 -0.240407,-0.19952 -0.234052,-0.13289 0.058,0.60804 0.158849,0.40301 0.198861,0.64464 0.115298,0.69628 -0.143677,0.0888 -0.145777,0.0872 -0.336598,-0.25443 -0.09599,-0.17187 -0.138572,-0.19066 -0.139934,-0.0618 -0.0026,0.24423 0.351698,1.25558 0.504203,1.43934 0.07751,0.0934 0.07707,0.17079 -0.0012,0.21919 -0.06658,0.0412 -0.208239,-0.0496 -0.314788,-0.20176 -0.267995,-0.38261 -0.233772,-0.1284 0.05331,0.39597 0.159291,0.29095 0.23837,0.35826 0.241854,0.20586 0.0079,-0.34485 0.30855,-0.1708 0.352978,0.20433 0.02963,0.25018 -0.0053,0.31237 -0.145383,0.25863 -0.140594,-0.054 -0.167243,-0.005 -0.112191,0.20535 0.105673,0.40409 -0.180082,0.18789 -0.392444,-0.29693 -0.09443,-0.21558 -0.176228,-0.33018 -0.18177,-0.25466 -0.0055,0.0755 0.156671,0.50506 0.360472,0.95454 0.203801,0.44947 0.370547,0.87402 0.370547,0.94345 0,0.26014 -0.215923,0.11176 -0.438317,-0.3012 -0.126602,-0.23509 -0.253669,-0.40395 -0.282371,-0.37525 -0.0287,0.0287 0.109052,0.31832 0.306121,0.64359 0.596217,0.98407 0.673289,1.15189 0.590528,1.2858 -0.04596,0.0744 -0.227812,-0.0449 -0.43147,-0.28294 -0.193617,-0.2263 -0.354289,-0.3488 -0.35705,-0.2722 -0.0028,0.0766 0.07774,0.20796 0.178894,0.29191 0.101153,0.0839 0.154463,0.20029 0.118468,0.25853 -0.03599,0.0582 0.01735,0.266 0.118546,0.46169 0.134455,0.26001 0.1472,0.3926 0.04734,0.49246 -0.09798,0.098 -0.09893,0.18211 -0.0034,0.29726 0.439552,0.52962 0.696293,2.19666 0.338309,2.19666 -0.472915,0 -1.152813,-0.88732 -2.010917,-2.62442 -0.478283,-0.96822 -0.931134,-1.98272 -1.006336,-2.25445 -0.28672,-1.03604 -0.735246,-3.49911 -0.809723,-4.44657 -0.04272,-0.54347 -0.155923,-1.34941 -0.251561,-1.79098 -0.454655,-2.0992 -0.749042,-5.04481 -0.91965,-9.20193 -0.06691,-1.63041 -0.156889,-3.50631 -0.199949,-4.16866 -0.08029,-1.2351 -0.01996,-1.40198 0.366988,-1.01504 0.177629,0.17763 0.291389,0.57221 0.372762,1.29295 0.01918,0.16983 0.148946,0.55624 0.28838,0.85867 l 0.253518,0.54988 0.119966,-0.43448 c 0.08479,-0.3071 0.07116,-0.6675 -0.04649,-1.22922 -0.09155,-0.4371 -0.167617,-0.892 -0.169033,-1.01089 -0.0039,-0.33018 0.207465,-0.25742 0.358893,0.12352 l 0.135021,0.33967 -0.05988,-0.40143 c -0.04343,-0.29113 -0.01211,-0.40143 0.11398,-0.40143 0.195032,0 0.257841,0.17161 0.372969,1.01901 0.04384,0.32268 0.108064,0.5867 0.142721,0.5867 0.175111,0 0.415914,-0.39073 0.415914,-0.67486 0,-0.28368 0.02937,-0.30624 0.247032,-0.18975 0.216837,0.11605 0.247032,0.0939 0.247032,-0.18093 0,-0.30633 0.09241,-0.36326 0.520091,-0.32042 0.116215,0.0117 0.338544,-0.0514 0.494063,-0.14017 0.155519,-0.0887 0.505091,-0.22535 0.776825,-0.3036 l 0.494064,-0.14227 -0.439577,-0.0121 c -0.241767,-0.007 -0.547469,0.0695 -0.679337,0.16922 -0.313113,0.23683 -1.010435,0.23903 -1.245532,0.004 -0.101901,-0.1019 -0.294316,-0.18527 -0.427589,-0.18527 -0.577738,0 -2.154672,-1.084991 -1.919188,-1.320471 0.04745,-0.0475 0.404253,0.0697 0.792885,0.26027 0.643724,0.31571 1.114435,0.42976 2.559664,0.620191 0.468284,0.0617 0.46184,0.0553 -0.123516,-0.122741 -1.678202,-0.51042 -2.68367,-1.24246 -3.646009,-2.6545 -0.935602,-1.37281 -1.030082,-1.71066 -1.414538,-5.05831 -0.294642,-2.56561 -0.36082,-4.3141 -0.19855,-5.24593 0.187527,-1.07686 0.413766,-1.50854 0.916172,-1.74812 0.350905,-0.16733 0.454854,-0.16946 0.82815,-0.017 l 0.426879,0.17438 -0.446597,0.293 c -0.850345,0.55789 -0.974631,0.87928 -1.055385,2.72913 -0.05184,1.18751 -0.01535,2.08522 0.12959,3.188 0.110963,0.84427 0.219881,1.55317 0.24204,1.57533 0.02216,0.0222 0.01437,-0.81248 -0.01731,-1.85474 -0.04789,-1.5758 -0.02516,-1.94521 0.134928,-2.19291 0.105889,-0.16383 0.228571,-0.54527 0.272628,-0.84764 0.04406,-0.30238 0.154668,-0.69145 0.245802,-0.86461 0.211214,-0.40132 1.267934,-1.43512 1.366346,-1.33671 0.0409,0.0409 -0.183446,0.39091 -0.498557,0.77778 -0.315111,0.38687 -0.540672,0.73566 -0.501246,0.77508 0.03942,0.0394 0.159058,-0.0531 0.265851,-0.20553 0.106793,-0.15247 0.323769,-0.42703 0.482168,-0.61013 0.260131,-0.3007 0.296363,-0.31139 0.374438,-0.11047 0.05585,0.14373 -0.001,0.31855 -0.160785,0.49406 -0.135973,0.14939 -0.316893,0.41058 -0.402045,0.58042 -0.103565,0.20655 0.03128,0.11714 0.407302,-0.2701 0.505046,-0.5201 0.558319,-0.62989 0.524656,-1.08125 -0.02061,-0.2763 -0.108796,-0.58831 -0.195974,-0.69335 -0.348657,-0.42011 0.505036,-0.7669 1.93249,-0.78503 0.482382,-0.006 1.053272,0.0503 1.268645,0.12537 z m 3.251939,1.12335 c -0.236145,0.23615 -0.171642,0.36257 0.09881,0.19367 0.249554,-0.15585 0.330207,-0.34189 0.148219,-0.34189 -0.05435,0 -0.165511,0.0667 -0.247032,0.14822 z m -5.953463,-0.002 c 0,0.0249 0.917105,0.95808 2.038011,2.0738 1.120906,1.11572 2.038011,1.98112 2.038011,1.9231 0,-0.13456 -2.71333,-2.89306 -3.489322,-3.54741 -0.322685,-0.2721 -0.5867,-0.47437 -0.5867,-0.44949 z m 6.230359,0.41298 c -0.260449,0.21289 -0.306015,0.29826 -0.160888,0.30144 0.265282,0.006 0.798983,-0.42864 0.644123,-0.52434 -0.06593,-0.0408 -0.283389,0.0596 -0.483235,0.2229 z m -4.13059,0.48159 c 0.237768,0.25502 0.626843,0.61883 0.864611,0.80847 l 0.432305,0.34479 0.671982,-0.60272 c 0.369589,-0.3315 0.599274,-0.60273 0.510411,-0.60273 -0.08886,0 -0.382893,0.22132 -0.653399,0.49183 -0.540239,0.54024 -0.655507,0.53449 -1.208331,-0.0603 -0.169834,-0.18271 -0.475536,-0.44715 -0.679337,-0.58763 -0.359866,-0.24806 -0.358086,-0.24205 0.06176,0.20825 z m 4.405398,-0.0934 c -0.16193,0.16193 -0.07811,0.26397 0.164688,0.20048 0.326257,-0.0853 0.313218,0.0562 -0.03088,0.3352 -0.152851,0.12393 -0.247947,0.25544 -0.211326,0.29225 0.03662,0.0368 0.229524,-0.063 0.428672,-0.2218 0.313014,-0.24959 0.339605,-0.31581 0.196202,-0.4886 -0.172953,-0.20839 -0.406374,-0.25851 -0.547356,-0.11753 z m -7.08498,0.5884 c -0.282757,0.24493 -0.317388,0.32981 -0.188116,0.46105 0.12974,0.13172 0.171504,0.1109 0.230559,-0.11492 0.03966,-0.15168 0.149008,-0.27578 0.242986,-0.27578 0.196757,0 0.231388,0.31856 0.04702,0.43251 -0.199504,0.1233 0.08002,0.52071 0.675408,0.96024 0.296696,0.21902 1.058225,0.83351 1.692287,1.36552 1.023479,0.85874 1.062751,0.88172 0.349987,0.20472 -0.441569,-0.4194 -1.178032,-1.06938 -1.636585,-1.44438 -0.776348,-0.6349 -0.833731,-0.71578 -0.833731,-1.17519 0,-0.4067 0.03561,-0.4797 0.202744,-0.41557 0.169522,0.0651 0.177163,0.047 0.04663,-0.1103 -0.218708,-0.26352 -0.428266,-0.23519 -0.829191,0.1121 z m 2.507291,1.58342 c 0.787528,0.76425 1.495853,1.40924 1.574054,1.43331 0.0782,0.0241 -0.524801,-0.59841 -1.340005,-1.38328 -0.815205,-0.78487 -1.523529,-1.42986 -1.574055,-1.43331 -0.05053,-0.003 0.552477,0.61902 1.340006,1.38328 z m 4.821363,-1.18034 c -0.139102,0.1391 -0.08472,0.28485 0.106288,0.28485 0.1019,0 0.185274,-0.0523 0.185274,-0.11623 0,-0.15575 -0.192881,-0.2673 -0.291562,-0.16862 z m -3.166882,0.50217 c 0,0.0516 0.111164,0.16323 0.247032,0.24808 0.270454,0.1689 0.334958,0.0425 0.09881,-0.19367 -0.167301,-0.1673 -0.345844,-0.19539 -0.345844,-0.0544 z m 3.273855,0.3995 c -0.204637,0.22612 -0.206032,0.24779 -0.01595,0.24779 0.114561,0 0.241207,-0.0858 0.281434,-0.1906 0.115012,-0.29972 -0.01973,-0.32874 -0.265482,-0.0572 z m -7.349878,0.42565 c 0.277207,0.31148 1.773006,1.64723 3.319452,2.96428 0.514832,0.43847 0.534674,0.44617 0.20075,0.078 -0.203801,-0.22471 -1.148698,-1.07921 -2.09977,-1.8989 -0.951072,-0.8197 -1.590266,-1.33422 -1.420432,-1.14339 z m 7.420702,0.26474 c 0.0059,0.14389 0.03519,0.17316 0.07462,0.0746 0.03568,-0.0892 0.03129,-0.19569 -0.0098,-0.23674 -0.04104,-0.041 -0.07024,0.0319 -0.06487,0.16212 z m -7.914765,0.41809 c 0.237768,0.21621 0.988127,0.82756 1.667464,1.35854 0.679337,0.53098 1.510979,1.24935 1.848094,1.59638 0.337115,0.34703 0.685547,0.63096 0.774294,0.63096 0.328023,0 -2.378002,-2.32326 -4.228094,-3.63003 l -0.494064,-0.34897 z m 7.852422,0.83765 c -0.04087,0.25475 -0.02274,0.62993 0.04029,0.83373 0.09697,0.31358 0.116222,0.24237 0.125206,-0.46318 0.01181,-0.92768 -0.05288,-1.07253 -0.165491,-0.37055 z m -5.937927,1.685 c 0.407603,0.37768 0.796678,0.68721 0.864611,0.68785 0.137553,0.001 -0.660475,-0.72135 -1.235158,-1.11848 -0.203801,-0.14084 -0.03706,0.0529 0.370547,0.43063 z m -0.926368,0.20535 c 2.301577,2.10721 3.250149,2.90187 2.65559,2.22469 -0.349784,-0.39839 -2.636496,-2.39616 -2.882857,-2.51859 -0.112771,-0.056 -0.0105,0.0762 0.227267,0.2939 z m -0.61758,0.30657 c 0,0.0483 0.263759,0.3172 0.58613,0.5975 0.322372,0.2803 1.050435,0.94416 1.617917,1.47525 0.567483,0.5311 1.064273,0.93314 1.103979,0.89343 0.0397,-0.0397 0.02032,-0.1176 -0.04309,-0.1731 -0.0634,-0.0555 -0.823954,-0.72641 -1.690109,-1.49092 -0.866155,-0.76451 -1.574827,-1.35048 -1.574827,-1.30216 z m 0.432306,1.47644 c 0.679337,0.65616 1.401905,1.30475 1.605706,1.44131 0.45761,0.30663 -1.664163,-1.73293 -2.346801,-2.25586 -0.271735,-0.20817 0.06176,0.15838 0.741095,0.81455 z m 2.346801,-0.92513 c 0.04199,0.0679 0.100848,0.12352 0.130805,0.12352 0.02996,0 0.05447,-0.0556 0.05447,-0.12352 0,-0.0679 -0.05886,-0.12352 -0.130806,-0.12352 -0.07194,0 -0.09645,0.0556 -0.05447,0.12352 z m -3.520202,0.69726 c 0,0.0727 0.458553,0.53918 1.019006,1.03665 0.560453,0.49747 1.146315,1.03342 1.301915,1.191 0.1556,0.15758 0.331431,0.2865 0.390736,0.2865 0.0593,0 -0.262542,-0.34563 -0.715215,-0.76808 -0.452673,-0.42244 -1.087056,-1.01786 -1.409741,-1.32315 -0.322686,-0.30529 -0.586701,-0.4956 -0.586701,-0.42292 z m 0,0.63898 c 0,0.0951 1.487233,1.55906 2.221355,2.18661 0.368757,0.31523 0.395283,0.32381 0.185273,0.0599 -0.134805,-0.16939 -0.439638,-0.47349 -0.677406,-0.67578 -0.237768,-0.20229 -0.724112,-0.6588 -1.080764,-1.01446 -0.356652,-0.35567 -0.648458,-0.606 -0.648458,-0.5563 z m 0.988127,1.81341 c 0.300024,0.30571 0.601079,0.55582 0.669013,0.55582 0.06793,0 -0.121958,-0.25011 -0.421981,-0.55582 -0.300024,-0.3057 -0.60108,-0.55582 -0.669013,-0.55582 -0.06793,0 0.121957,0.25012 0.421981,0.55582 z m 5.746441,3.26386 c -0.06131,0.193191 -0.184758,0.256341 -0.501043,0.256341 -0.290188,0 -0.549905,0.11434 -0.841715,0.37055 -0.232116,0.2038 -0.511961,0.37055 -0.621877,0.37055 -0.109916,0 -0.199847,0.0556 -0.199847,0.12352 0,0.156 0.264173,0.15784 0.667119,0.005 0.4417,-0.16793 0.739655,0.14516 0.652026,0.68516 -0.03568,0.21988 -0.02749,0.43733 0.01821,0.48322 0.158396,0.15909 0.242138,3.16723 0.106083,3.81065 -0.06217,0.294 -0.0559,0.44777 0.01643,0.40306 0.140513,-0.0868 0.331753,-1.41531 0.517627,-3.59575 0.07528,-0.88314 0.192669,-1.93108 0.260856,-2.32875 0.12381,-0.722071 0.08,-1.067971 -0.07386,-0.583191 z m -6.216425,2.047321 c 0.0025,0.20381 0.0302,0.27223 0.06152,0.15205 0.03132,-0.12018 0.02926,-0.28692 -0.0046,-0.37055 -0.03383,-0.0836 -0.05946,0.0147 -0.05694,0.2185 z m -0.765174,4.16574 c 0,0.75791 0.04583,1.07485 0.16187,1.11937 0.08903,0.0342 0.233822,0.30227 0.321762,0.59579 0.08794,0.29351 0.246104,0.59671 0.351476,0.67376 0.105372,0.0771 0.199755,0.24565 0.20974,0.37467 0.01908,0.2466 0.43752,0.95492 0.517101,0.87534 0.03905,-0.0391 -0.541012,-1.28849 -1.272299,-2.74052 -0.107291,-0.21303 -0.16716,-0.58056 -0.140842,-0.86461 l 0.04578,-0.49406 0.149664,0.37055 c 0.08231,0.2038 0.206397,0.45392 0.275737,0.55582 0.06934,0.1019 0.211585,0.37192 0.316099,0.60005 0.104515,0.22813 0.220788,0.38401 0.258386,0.34642 0.05469,-0.0547 -0.975675,-2.22397 -1.148674,-2.41837 -0.02519,-0.0283 -0.0458,0.4243 -0.0458,1.00579 z m 0.01272,2.62764 c -0.01757,2.04337 0.643208,8.14291 0.977346,9.02176 0.06687,0.17587 0.121619,0.58016 0.121675,0.89842 1.24e-4,0.71529 0.370119,1.72361 0.743369,2.02585 0.341342,0.27641 0.486092,0.18475 0.202728,-0.12836 -0.269708,-0.29803 -0.263805,-0.52888 0.01105,-0.43216 0.17645,0.0621 0.187794,0.0455 0.06176,-0.0903 -0.08492,-0.0915 -0.155204,-0.30813 -0.156193,-0.48136 -9.88e-4,-0.17323 -0.07702,-0.5373 -0.168954,-0.80903 -0.09194,-0.27174 -0.206459,-0.6593 -0.254495,-0.86126 -0.0856,-0.35987 -0.08245,-0.36276 0.157872,-0.14528 0.242139,0.21913 0.243761,0.21546 0.129418,-0.29345 -0.06369,-0.28344 -0.197655,-0.59722 -0.297708,-0.69727 -0.197959,-0.19796 -0.248871,-0.65833 -0.0728,-0.65833 0.06001,0 0.13818,0.11116 0.17371,0.24703 0.03553,0.13587 0.131333,0.24703 0.212895,0.24703 0.09504,0 0.114213,-0.0776 0.05338,-0.21615 -0.0522,-0.11889 -0.183208,-0.47943 -0.291125,-0.8012 -0.107918,-0.32178 -0.259666,-0.58579 -0.337219,-0.5867 -0.158104,-0.002 -0.335917,-0.57063 -0.231307,-0.7399 0.03715,-0.0601 0.01106,-0.14421 -0.05798,-0.18688 -0.06904,-0.0427 -0.132133,-0.005 -0.140204,0.0841 -0.01903,0.20975 -0.329688,-0.99646 -0.340089,-1.3205 -0.0078,-0.2437 -0.0055,-0.24379 0.173417,-0.007 0.09974,0.13186 0.181345,0.37404 0.181345,0.53815 0,0.20342 0.05443,0.27751 0.170985,0.23279 0.121123,-0.0465 0.193586,0.0757 0.248491,0.41909 0.04263,0.26659 0.133249,0.4847 0.201379,0.4847 0.06813,0 0.234011,0.18064 0.368626,0.40143 0.370284,0.60731 0.295313,0.33985 -0.186628,-0.66579 -0.237768,-0.49614 -0.432305,-0.96631 -0.432305,-1.04483 0,-0.0785 -0.08337,-0.21194 -0.185274,-0.29651 -0.1019,-0.0846 -0.185274,-0.25536 -0.185274,-0.37954 0,-0.12417 -0.07443,-0.27022 -0.165396,-0.32454 -0.239827,-0.14323 -0.449312,-0.83141 -0.316052,-1.03827 0.09379,-0.14559 0.129662,-0.14357 0.232525,0.0131 0.06689,0.1019 0.122476,0.31034 0.123516,0.46319 0.0011,0.15574 0.06977,0.26433 0.156286,0.24703 0.09243,-0.0185 0.16993,0.13024 0.1931,0.37055 0.0215,0.22296 0.10878,0.40142 0.196327,0.40142 0.187255,0 0.44353,0.51767 0.446197,0.90131 0.0015,0.2186 0.02479,0.23587 0.118376,0.0879 0.06407,-0.10134 0.0865,-0.30371 0.04986,-0.44971 -0.03665,-0.14601 -0.0065,-0.3026 0.0669,-0.34799 0.145778,-0.0901 0.177317,-0.55119 0.05882,-0.85998 -0.105144,-0.274 -0.295847,-0.11704 -0.295847,0.24351 0,0.16582 -0.05628,0.3015 -0.125073,0.3015 -0.123859,0 -0.684107,-1.13403 -0.854291,-1.72922 -0.04856,-0.16984 -0.129891,-0.281 -0.180732,-0.24704 -0.154467,0.1032 -0.293218,-0.27022 -0.389791,-1.04905 -0.08303,-0.66958 -0.07296,-0.72464 0.105415,-0.5766 0.108464,0.09 0.233948,0.40867 0.278854,0.70812 0.0449,0.29946 0.128291,0.51564 0.185301,0.4804 0.05701,-0.0352 0.170746,0.15987 0.252747,0.43357 0.082,0.2737 0.191997,0.49763 0.244436,0.49763 0.05244,0 0.03914,-0.18064 -0.02955,-0.40143 -0.06869,-0.22078 -0.157905,-0.51108 -0.198254,-0.6451 -0.04035,-0.13402 -0.146671,-0.38414 -0.236272,-0.55582 -0.0896,-0.17168 -0.163253,-0.36335 -0.163671,-0.42594 -4.19e-4,-0.0626 -0.0794,-0.20154 -0.175512,-0.30879 -0.09611,-0.10725 -0.230055,-0.38953 -0.29765,-0.6273 -0.105498,-0.3711 -0.124252,-0.27491 -0.132456,0.67934 z m 4.433848,0.55582 c 0.07271,0.13586 0.159998,0.24703 0.193965,0.24703 0.03397,0 0.0023,-0.11117 -0.07045,-0.24703 -0.07271,-0.13587 -0.159999,-0.24704 -0.193966,-0.24704 -0.03397,0 -0.0023,0.11117 0.07045,0.24704 z m 1.575594,-24.301741 c -0.02788,0.0849 -0.213157,0.16955 -0.411719,0.18807 -0.344381,0.0321 -0.349971,0.025 -0.121262,-0.1544 0.289784,-0.22731 0.603063,-0.2471 0.532981,-0.0337 z m -6.024642,0.65144 c -0.08593,0.10354 -0.181677,0.16282 -0.212766,0.13173 -0.08566,-0.0857 0.08838,-0.31999 0.237657,-0.31999 0.0819,0 0.07253,0.0709 -0.02489,0.18826 z m 0.496541,0.17131 c 0,0.13837 -0.715585,0.75207 -0.876935,0.75207 -0.06429,0 -0.025,-0.14024 0.08732,-0.31165 0.283683,-0.43295 0.78962,-0.71515 0.78962,-0.44042 z m 5.187665,0.011 c 0,0.0679 -0.05886,0.12351 -0.130805,0.12351 -0.07194,0 -0.09645,-0.0556 -0.05447,-0.12351 0.04199,-0.0679 0.100847,-0.12352 0.130805,-0.12352 0.02996,0 0.05447,0.0556 0.05447,0.12352 z m -6.770726,2.12653 c -0.08863,0.0886 -0.146161,0.0959 -0.146161,0.0185 0,-0.16487 0.146071,-0.31094 0.228504,-0.22851 0.0351,0.0351 -0.002,0.12959 -0.08234,0.20998 z m 0.272952,10.50439 c 0.07038,0.11158 0.08959,0.24125 0.04269,0.28816 -0.117508,0.11751 -0.461801,-0.18641 -0.461801,-0.40764 0,-0.22358 0.247163,-0.15312 0.419113,0.11948 z m -0.03512,1.3554 c 0.01727,0.389611 0.0033,0.736541 -0.03117,0.770951 -0.09197,0.092 -0.357309,-1.433901 -0.273053,-1.570231 0.14389,-0.23282 0.273565,0.10788 0.30422,0.79928 z m 1.345227,0.650301 c 0,0.10191 -0.05558,0.18528 -0.123516,0.18528 -0.06793,0 -0.123516,-0.0834 -0.123516,-0.18528 0,-0.1019 0.05558,-0.18527 0.123516,-0.18527 0.06793,0 0.123516,0.0834 0.123516,0.18527 z m 0.988127,0.67934 c 0,0.0679 -0.02451,0.12352 -0.05447,0.12352 -0.02996,0 -0.08882,-0.0556 -0.130805,-0.12352 -0.04199,-0.0679 -0.01748,-0.12351 0.05447,-0.12351 0.07194,0 0.130806,0.0556 0.130805,0.12351 z m 0.494063,0 c 0,0.0679 -0.05886,0.12352 -0.130805,0.12352 -0.07194,0 -0.09645,-0.0556 -0.05447,-0.12352 0.04199,-0.0679 0.100848,-0.12351 0.130806,-0.12351 0.02996,0 0.05447,0.0556 0.05447,0.12351 z m -1.852738,0.25432 c 0,0.13988 -0.05558,0.21997 -0.123515,0.17799 -0.06793,-0.042 -0.123516,-0.15643 -0.123516,-0.25432 0,-0.0979 0.05558,-0.17799 0.123516,-0.17799 0.06793,0 0.123515,0.11445 0.123515,0.25432 z m 0.247032,0.91179 c 0,0.03 -0.05558,0.0888 -0.123516,0.13081 -0.06793,0.042 -0.123516,0.0175 -0.123516,-0.0545 0,-0.0719 0.05558,-0.13081 0.123516,-0.13081 0.06793,0 0.123516,0.0245 0.123516,0.0545 z m 4.817118,8.09029 c 0,0.0639 -0.05558,0.15058 -0.123516,0.19256 -0.06793,0.042 -0.123516,-0.0103 -0.123516,-0.11622 0,-0.10591 0.05558,-0.19257 0.123516,-0.19257 0.06793,0 0.123516,0.0523 0.123516,0.11623 z m -0.06176,0.50135 c 0.04199,0.0679 0.01748,0.12352 -0.05447,0.12352 -0.07194,0 -0.130806,-0.0556 -0.130806,-0.12352 0,-0.0679 0.02451,-0.12351 0.05447,-0.12351 0.02996,0 0.08882,0.0556 0.130806,0.12351 z m -0.185274,1.38338 c 0,0.46856 -0.03689,0.6054 -0.136374,0.50591 -0.12433,-0.12433 -0.04811,-1.14819 0.08547,-1.14819 0.028,0 0.0509,0.28902 0.0509,0.64228 z m -0.23911,1.86952 c -0.155946,0.15595 -0.186691,-0.62743 -0.0388,-0.98863 0.0657,-0.16046 0.10392,-0.0687 0.131437,0.31547 0.02134,0.29795 -0.02035,0.60087 -0.09264,0.67316 z m -0.625501,4.59765 c 0,0.16582 -0.05184,0.3015 -0.115192,0.3015 -0.151065,0 -0.29341,-0.45608 -0.193035,-0.61849 0.124518,-0.20148 0.308227,-0.0125 0.308227,0.31699 z m 0.216136,2.72037 c -0.117705,0.1177 -0.353686,-0.073 -0.265967,-0.21488 0.05214,-0.0844 0.121226,-0.0822 0.209933,0.006 0.07272,0.0727 0.09794,0.1665 0.05603,0.20841 z m 0.0556,0.57021 c -0.115281,0.11528 -0.148219,0.0823 -0.148219,-0.14822 0,-0.23056 0.03294,-0.2635 0.148219,-0.14822 0.115282,0.11528 0.115282,0.18116 0,0.29644 z"
       style="fill:#000000"
       id="path1-3" /></g></svg>
