<?xml version="1.0" encoding="UTF-8" standalone="no"?>
<!-- Created with Inkscape (http://www.inkscape.org/) -->

<svg
   width="24.195211mm"
   height="39.632835mm"
   viewBox="0 0 24.195211 39.632835"
   version="1.1"
   id="svg1"
   xml:space="preserve"
   xmlns="http://www.w3.org/2000/svg"
   xmlns:svg="http://www.w3.org/2000/svg"><defs
     id="defs1" /><g
     id="layer1"
     transform="translate(-52.661052,-23.702572)"><path
       d="m 59.461311,62.902846 c -0.970641,-1.40414 -1.58962,-2.70168 -2.250707,-4.71804 -0.735174,-2.24233 -1.032165,-4.25438 -1.031077,-6.9853 5.15e-4,-1.29425 0.05705,-2.82563 0.12563,-3.40306 0.454488,-3.8267 0.41863,-4.26182 -0.470733,-5.71207 -0.850682,-1.387181 -1.647383,-3.123311 -2.244236,-4.890531 -0.79286,-2.34757 -0.932061,-3.22031 -0.929087,-5.82501 0.0025,-2.19519 0.01585,-2.31837 0.339327,-3.13271 0.390384,-0.98277 1.02251,-1.89236 1.672022,-2.40594 0.503062,-0.39778 1.544226,-0.80279 1.609069,-0.62593 0.05337,0.14558 0.391134,0.1466 0.391134,0.001 0,-0.0611 0.71506,-0.13058 1.589023,-0.15439 l 1.589023,-0.0433 1.244437,-0.64846 c 1.608818,-0.83833 2.03625,-0.85691 3.504606,-0.15234 1.38162,0.66294 2.194406,0.73852 3.868674,0.35972 1.104155,-0.24981 3.078146,-0.46012 2.686466,-0.28622 -0.0849,0.0377 -0.15439,0.1195 -0.15439,0.18177 0,0.16567 0.46504,0.13854 0.52136,-0.0304 0.0725,-0.21745 1.43742,0.556 2.2338,1.2658 0.74411,0.66321 1.87768,2.10403 2.28382,2.90282 0.57925,1.13928 0.8138,2.44856 0.81677,4.55937 0.004,3.07081 -0.43892,4.46178 -2.36417,7.41922 l -0.95951,1.473921 0.0148,1.11165 c 0.013,0.97991 0.0766,1.27996 0.53669,2.53207 1.01613,2.76536 1.02327,2.80139 1.03952,5.24942 0.01,1.49446 -0.0399,2.44599 -0.15185,2.90263 -0.35316,1.44009 -0.76938,2.61093 -1.41386,3.97726 -1.07087,2.27031 -2.11377,3.62046 -2.72875,3.53268 -0.25456,-0.0363 -0.26285,-0.10894 -0.34283,-3.00162 -0.0915,-3.31081 -0.29354,-4.96017 -0.835028,-6.81806 -0.388505,-1.33298 -0.622515,-1.87687 -0.91029,-2.1157 -0.15119,-0.12548 -0.187995,0.25143 -0.260201,2.66458 -0.107931,3.60713 -0.384098,5.38509 -1.123073,7.23033 -0.865029,2.16 -1.435174,2.66121 -1.927506,1.69445 -0.23103,-0.45366 -0.720453,-3.10744 -1.036465,-5.61998 -0.102531,-0.8152 -0.239971,-1.73231 -0.305422,-2.03801 -0.06545,-0.3057 -0.260157,-1.2506 -0.43268,-2.09977 -0.581376,-2.86157 -0.608066,-2.96438 -0.769577,-2.96438 -0.515291,0 -1.836144,3.02808 -2.262872,5.18767 -0.449776,2.27623 -0.516944,3.20528 -0.473157,6.54458 0.03882,2.96015 0.02355,3.27514 -0.160501,3.31065 -0.122931,0.0237 -0.331871,-0.14661 -0.528145,-0.43055 z m 0.537835,-1.28868 c -0.117143,-1.0846 -0.120517,-2.14971 -0.01481,-4.67755 0.07528,-1.80025 0.174423,-3.43155 0.220322,-3.62512 0.07002,-0.29531 0.04773,-0.34501 -0.138513,-0.30879 -0.122081,0.0237 -0.283378,0.22567 -0.358438,0.44874 -0.108211,0.32159 -0.168025,0.37403 -0.288845,0.25321 -0.08381,-0.0838 -0.147985,-0.23853 -0.142621,-0.34383 0.0065,-0.12722 0.03065,-0.13965 0.07205,-0.0371 0.08827,0.21876 0.288745,0.19179 0.288745,-0.0388 0,-0.10628 0.163214,-0.33058 0.362699,-0.49843 0.260926,-0.21956 0.400685,-0.48818 0.498076,-0.95731 0.174045,-0.83837 0.722692,-1.99461 1.339717,-2.82338 0.666903,-0.89577 0.954823,-1.14002 1.814137,-1.53901 0.634832,-0.29476 0.899658,-0.34435 1.852373,-0.34681 0.994206,-0.003 1.188527,0.0363 1.839409,0.36767 1.303966,0.66393 1.813279,1.23333 2.45183,2.74109 0.310945,0.73421 0.625415,1.64064 0.698825,2.01427 0.43971,2.23816 0.56661,7.78076 0.19864,8.67595 -0.0595,0.14482 -0.0208,0.24104 0.11838,0.29447 0.29659,0.11381 1.07762,-0.69062 1.72339,-1.77501 0.68199,-1.14521 1.59869,-3.87252 2.00335,-5.96025 0.16015,-0.82623 0.18733,-1.44456 0.12761,-2.90262 -0.0802,-1.95855 -0.27885,-2.99403 -0.79373,-4.13778 -0.76523,-1.69989 -0.90896,-2.16347 -0.90663,-2.92435 10e-4,-0.41955 0.0403,-0.91979 0.0866,-1.11164 0.10228,-0.42343 1.64384,-3.251441 1.77237,-3.251441 0.0503,0 0.19558,-0.23623 0.32291,-0.52495 0.12733,-0.28871 0.26398,-0.55273 0.30368,-0.5867 0.0397,-0.034 0.14344,-0.25629 0.23053,-0.49406 0.0871,-0.23777 0.23548,-0.57762 0.32975,-0.75523 0.33282,-0.62705 0.57344,-2.6668 0.48644,-4.12365 -0.0797,-1.33493 -0.50488,-3.13077 -0.69457,-2.93379 -0.15813,0.1642 -0.2695,1.0193 -0.13276,1.0193 0.0698,0 0.15072,-0.0695 0.17975,-0.1544 0.029,-0.0849 0.12455,0.50682 0.21226,1.31497 0.12004,1.10606 0.12656,1.70158 0.0264,2.40856 -0.17591,1.24127 -0.97364,3.67313 -1.30643,3.98261 -0.14373,0.13365 -0.65039,0.96169 -1.12593,1.84009 -0.47554,0.8784 -1.08429,1.898881 -1.35279,2.267731 l -0.48819,0.67062 -0.31171,-0.24519 c -0.37786,-0.29722 -0.46393,-0.13166 -0.19844,0.38174 0.10777,0.2084 0.15283,0.37835 0.10014,0.37766 -0.0527,-6.9e-4 -0.18895,-0.22302 -0.30279,-0.49406 -0.11384,-0.27105 -0.26669,-0.49281 -0.33967,-0.49281 -0.17049,0 -0.16884,0.19572 0.004,0.5194 0.19603,0.36629 0.35476,0.96303 0.25573,0.96142 -0.0462,-7.6e-4 -0.19518,-0.29257 -0.33105,-0.64846 -0.13586,-0.3559 -0.30261,-0.64313 -0.37054,-0.6383 -0.24515,0.0174 -0.19357,0.41529 0.11776,0.90847 0.1747,0.27675 0.27526,0.50016 0.22345,0.49647 -0.0518,-0.004 -0.26093,-0.26449 -0.46473,-0.57955 -0.419401,-0.64837 -0.760927,-0.86193 -0.616665,-0.38561 0.04873,0.16089 0.235202,0.45486 0.414385,0.65328 l 0.3258,0.36074 -0.43231,-0.26727 c -0.237768,-0.14701 -0.654634,-0.3826 -0.926369,-0.52356 -0.390159,-0.20237 -0.422629,-0.24102 -0.154395,-0.18375 0.368958,0.0788 0.476598,-0.12062 0.123516,-0.2288 -0.118884,-0.0364 -0.633019,-0.0769 -1.142521,-0.0899 -0.509503,-0.013 -1.024787,-0.0729 -1.145075,-0.13308 -0.405619,-0.20286 -0.46761,0.0325 -0.13073,0.49634 0.240639,0.33133 0.179776,0.28964 -0.223146,-0.15286 -0.340728,-0.37419 -0.610595,-0.57349 -0.700943,-0.51765 -0.22473,0.13889 -0.186506,0.22323 0.353154,0.77924 0.497207,0.51226 0.497932,0.5144 0.127022,0.3744 -0.205172,-0.0774 -0.318024,-0.17481 -0.250783,-0.21637 0.108651,-0.0671 -0.8762,-1.10809 -1.048382,-1.10809 -0.03796,0 -0.06901,0.0871 -0.06901,0.1936 0,0.13739 -0.07172,0.17083 -0.247031,0.11519 -0.135868,-0.0431 -0.247032,-0.0249 -0.247032,0.0404 0,0.0759 -0.167235,0.0756 -0.463184,-9.6e-4 -0.568848,-0.14712 -0.706756,-0.14645 -1.945375,0.01 -1.987167,0.25012 -2.655461,0.27752 -2.657482,0.10892 -0.0014,-0.11832 -0.02902,-0.115 -0.110258,0.0133 -0.206351,0.32583 -0.706916,0.0256 -1.59238,-0.95502 -0.538715,-0.596621 -1.103725,-1.399921 -1.457041,-2.071561 -0.317408,-0.60337 -0.764173,-1.41001 -0.992811,-1.79254 -0.418884,-0.70081 -0.56534,-1.1003 -0.24053,-0.6561 0.339865,0.46479 0.289851,0.10513 -0.121218,-0.87169 -0.228704,-0.54347 -0.415809,-1.15487 -0.415788,-1.35867 l 3.7e-5,-0.37055 0.176521,0.30879 c 0.09709,0.16984 0.178489,0.23861 0.180896,0.15283 0.0054,-0.19378 -0.444801,-1.83302 -0.550393,-2.00387 -0.04256,-0.0689 -0.0041,-0.12521 0.08542,-0.12521 0.103077,0 0.246795,0.37385 0.391734,1.019 0.248891,1.10787 0.696537,2.31548 0.858423,2.31575 0.05581,10e-5 0.0836,-0.28596 0.06176,-0.63568 -0.02713,-0.43446 0.01023,-0.65323 0.117965,-0.69072 0.119676,-0.0417 0.137711,0.07 0.07484,0.46317 -0.04816,0.3012 -0.03182,0.55154 0.03905,0.59808 0.169607,0.11139 0.307369,0.8829 0.15765,0.8829 -0.145149,0 -0.162046,0.45377 -0.02016,0.54146 0.05515,0.0341 0.169703,-0.27421 0.25457,-0.6851 0.08487,-0.41088 0.173885,-0.7273 0.197819,-0.70314 0.02393,0.0242 -0.0019,0.45641 -0.05731,0.96055 -0.05546,0.50414 -0.07248,0.99048 -0.03784,1.08076 0.100691,0.2624 0.319,0.18938 0.247802,-0.0829 -0.03553,-0.13587 -0.01422,-0.24703 0.04735,-0.24703 0.06157,0 0.111953,0.0988 0.111953,0.21955 0,0.12075 0.09049,0.34874 0.201088,0.50664 0.157559,0.22495 0.223994,0.25095 0.306899,0.12012 0.07077,-0.11168 0.107736,-0.0238 0.111629,0.26533 0.0053,0.39422 0.226799,0.86461 0.407112,0.86461 0.04022,0 0.08967,-0.34093 0.1099,-0.75763 l 0.03677,-0.75764 0.406687,0.81939 c 0.223677,0.45067 0.459901,0.8194 0.524942,0.8194 0.166034,0 0.154277,-0.0501 -0.169296,-0.72079 -0.360157,-0.74657 -0.461288,-1.00843 -0.389461,-1.00843 0.03098,0 0.252422,0.37518 0.492093,0.83373 0.892102,1.70682 1.266458,2.31507 1.405818,2.28414 0.07876,-0.0175 0.196188,0.10758 0.260948,0.277911 0.06476,0.17033 0.174704,0.30969 0.244319,0.30969 0.241128,0 0.123923,-0.43564 -0.311464,-1.157691 -0.240571,-0.39896 -0.41443,-0.74836 -0.386355,-0.77644 0.02808,-0.0281 0.348384,0.4512 0.711796,1.06506 0.363412,0.613861 0.731952,1.116101 0.818978,1.116101 0.218821,0 0.19792,-0.16152 -0.06577,-0.50828 -0.392694,-0.516411 -1.012258,-1.591481 -0.917167,-1.591481 0.05044,0 0.22571,0.25259 0.389491,0.56132 0.173465,0.32699 0.36248,0.53651 0.45275,0.50187 0.170444,-0.0654 0.298927,0.17779 0.298927,0.565831 0,0.16511 0.05951,0.22731 0.175051,0.18297 0.09628,-0.037 0.205699,0.0127 0.243155,0.1103 0.03746,0.0976 0.12543,0.17747 0.195496,0.17747 0.224923,0 0.136393,-0.39718 -0.181397,-0.813831 -0.312606,-0.40985 -0.424842,-0.7103 -0.170223,-0.45568 0.07621,0.0762 0.215167,0.10917 0.30879,0.0733 0.110087,-0.0422 0.170223,0.023 0.170223,0.18482 0,0.413171 0.136361,0.640901 0.383762,0.640901 0.167061,0 0.233817,-0.0882 0.233817,-0.30879 0,-0.373051 0.133348,-0.392101 0.432305,-0.0618 0.305728,0.337831 0.473143,0.310011 0.401139,-0.0666 -0.03526,-0.18448 -0.0075,-0.29619 0.06745,-0.27121 0.07008,0.0234 0.14196,0.1416 0.159742,0.26276 0.0416,0.283421 0.411442,0.692681 0.625975,0.692681 0.227925,0 0.218683,-0.0341 -0.219381,-0.810341 -0.212031,-0.3757 -0.358468,-0.71014 -0.325415,-0.74319 0.03305,-0.0331 0.129903,0.10843 0.215223,0.31441 0.150346,0.36297 0.372188,0.50874 0.372188,0.24457 0,-0.0715 -0.212705,-0.55782 -0.472678,-1.08077 -0.614485,-1.23608 -1.00843,-2.30107 -1.60819,-4.34756 -0.268774,-0.9171 -0.527184,-1.77863 -0.574244,-1.9145 -0.0689,-0.19893 -0.05961,-0.21095 0.04771,-0.0618 0.108643,0.15103 0.133626,0.12535 0.135167,-0.13895 10e-4,-0.17833 -0.03374,-0.50241 -0.0773,-0.72018 -0.05873,-0.29364 -0.109611,-0.35348 -0.196926,-0.23159 -0.08232,0.11492 -0.09106,0.0901 -0.02906,-0.0827 0.04877,-0.13587 0.11694,-0.81801 0.151482,-1.51586 0.03454,-0.69786 0.113272,-1.30003 0.174955,-1.33815 0.06454,-0.0399 0.07513,0.0793 0.02495,0.28071 -0.07875,0.3161 -0.06726,0.33359 0.118565,0.18049 0.179168,-0.1476 0.205255,-0.13962 0.201834,0.0618 -0.0022,0.12721 -0.08553,0.33917 -0.185274,0.47104 -0.09974,0.13187 -0.180819,0.3542 -0.180177,0.49406 8.58e-4,0.18676 0.08474,0.11488 0.315791,-0.27063 0.173042,-0.28872 0.336342,-0.52495 0.362889,-0.52495 0.02655,0 -0.119973,0.35953 -0.325601,0.79894 -0.512841,1.09592 -0.405935,1.48764 0.124065,0.4546 0.22136,-0.43146 0.42465,-0.76229 0.451755,-0.73519 0.02711,0.0271 -0.143281,0.42518 -0.378635,0.88461 -0.422723,0.82519 -0.544541,1.47477 -0.304401,1.62318 0.06793,0.042 0.123516,-0.001 0.123516,-0.0965 0,-0.17475 0.734717,-1.58587 0.738858,-1.41908 0.0012,0.0496 -0.08713,0.31348 -0.196347,0.58645 -0.109222,0.27298 -0.167635,0.57697 -0.129807,0.67555 0.04814,0.12546 0.0095,0.1565 -0.128692,0.10346 -0.162377,-0.0623 -0.18233,-0.0155 -0.112275,0.26367 0.05893,0.23481 0.04289,0.3133 -0.05204,0.25463 -0.09277,-0.0573 -0.12439,0.0494 -0.09759,0.32932 0.02181,0.22777 0.09523,0.38634 0.163169,0.35238 0.06793,-0.034 0.109704,-0.16226 0.09282,-0.28509 -0.01688,-0.12284 0.0248,-0.18903 0.09264,-0.1471 0.06783,0.0419 0.123331,0.007 0.123331,-0.0773 0,-0.21209 0.509085,-1.24584 0.579068,-1.17586 0.0312,0.0312 -0.03075,0.22588 -0.137655,0.43262 -0.211456,0.40891 -0.263227,1.12926 -0.08116,1.12926 0.06227,0 0.174053,-0.15286 0.248401,-0.33967 0.120939,-0.30389 0.127851,-0.30714 0.06561,-0.0309 -0.03826,0.16983 -0.101778,0.51722 -0.141149,0.77197 -0.03937,0.25475 -0.119847,0.46318 -0.178836,0.46318 -0.05899,0 -0.107253,0.11117 -0.107253,0.24704 0,0.13586 -0.0491,0.24703 -0.109116,0.24703 -0.06001,0 -0.135359,0.13727 -0.167431,0.30505 -0.03207,0.16778 -0.0085,0.27429 0.05231,0.23668 0.06086,-0.0376 0.07976,0.0891 0.04202,0.28165 -0.05577,0.28454 -0.04677,0.30381 0.04813,0.10299 0.0642,-0.13587 0.120639,-0.37209 0.125414,-0.52495 0.0048,-0.15285 0.06426,-0.27791 0.132197,-0.27791 0.06793,0 0.123516,-0.10008 0.123516,-0.2224 0,-0.24176 0.270531,-0.88835 0.370548,-0.88564 0.03397,9.3e-4 0.177411,0.34788 0.318765,0.77101 0.141355,0.42314 0.297616,0.8805 0.347247,1.01637 0.04963,0.13587 -0.01994,0.0525 -0.154609,-0.18527 -0.204887,-0.36175 -0.258792,-0.39673 -0.330291,-0.21431 -0.08217,0.20966 -0.06191,0.3569 0.12299,0.89364 0.07886,0.22893 0.07456,0.23056 -0.0587,0.0223 -0.135693,-0.21209 -0.152602,-0.21273 -0.299833,-0.0114 -0.142063,0.19429 -0.163407,0.184 -0.238425,-0.11489 -0.0773,-0.30798 -0.324719,-0.46843 -0.324719,-0.21058 0,0.26759 0.288284,0.72332 0.424495,0.67105 0.0807,-0.031 0.207359,0.0707 0.281474,0.22593 0.07411,0.15523 0.419698,0.88738 0.767961,1.62701 0.348264,0.73963 0.742905,1.49884 0.876981,1.68713 0.134076,0.18829 0.213262,0.42186 0.175969,0.51905 -0.03729,0.0972 0.0285,0.255081 0.146216,0.350881 0.188607,0.1535 0.204765,0.14946 0.136076,-0.034 -0.04287,-0.1145 -0.03003,-0.225661 0.02853,-0.247031 0.05856,-0.0214 -0.338894,-0.94608 -0.883227,-2.0549 -0.544334,-1.10883 -0.969068,-2.03667 -0.943853,-2.06189 0.02521,-0.0252 0.566842,0.98284 1.203618,2.24012 1.061571,2.096021 1.174194,2.269521 1.355386,2.088031 0.181155,-0.181451 0.173224,-0.241251 -0.09523,-0.718141 -0.656997,-1.16709 -1.868606,-3.51563 -1.867515,-3.61992 6.43e-4,-0.0614 0.376811,0.58308 0.835929,1.43225 0.999965,1.84951 1.938178,3.317511 2.17941,3.410081 0.09658,0.0371 0.287735,0.007 0.424788,-0.066 0.146377,-0.0783 0.277997,-0.0867 0.319016,-0.0204 0.07574,0.12255 0.668851,0.0587 1.148512,-0.1237 0.164764,-0.0626 0.350886,-0.0822 0.413596,-0.0434 0.24593,0.15199 0.24815,-0.33989 0.004,-0.808981 -0.33439,-0.64154 -0.260901,-0.63039 0.17371,0.0264 0.30717,0.464161 0.35535,0.494591 0.44004,0.27791 0.0936,-0.23934 0.0952,-0.23938 0.10378,-0.002 0.007,0.187331 0.0416,0.207921 0.1569,0.0926 0.11528,-0.11528 0.11528,-0.18115 0,-0.29644 -0.23014,-0.23013 -0.17469,-0.3687 0.0907,-0.22667 0.3523,0.18854 0.52646,0.15604 0.47303,-0.0883 -0.026,-0.11888 -0.0995,-0.20691 -0.16345,-0.19562 -0.0639,0.0113 -0.125,-0.12658 -0.13577,-0.30639 l -0.0196,-0.32692 0.16961,0.30639 0.1696,0.30639 0.0187,-0.37055 c 0.0127,-0.25257 0.0361,-0.29189 0.0734,-0.12352 0.11447,0.51733 0.16793,0.60102 0.29973,0.46922 0.0882,-0.0882 0.0678,-0.27184 -0.0658,-0.59156 -0.24505,-0.58649 -0.24548,-0.68585 -0.001,-0.33745 0.22357,0.3192 0.61623,0.38132 0.50027,0.0791 -0.0412,-0.10745 -0.075,-0.25235 -0.075,-0.322 0,-0.0697 -0.0695,-0.10021 -0.15439,-0.0679 -0.1046,0.0398 -0.15864,-0.0855 -0.16755,-0.38821 -0.007,-0.2458 0.0107,-0.34964 0.0399,-0.23076 0.0292,0.11889 0.10052,0.21615 0.15849,0.21615 0.058,0 0.13082,-0.0973 0.16189,-0.21615 0.0311,-0.11888 0.0629,-0.008 0.0708,0.24703 0.008,0.25475 0.064,0.46319 0.12463,0.46319 0.15112,0 0.27895,-0.36387 0.18259,-0.51978 -0.0431,-0.0698 -0.12055,-0.30102 -0.17201,-0.5138 -0.0515,-0.21277 -0.18594,-0.60033 -0.29884,-0.86125 -0.1129,-0.26091 -0.14684,-0.43828 -0.0754,-0.39413 0.0714,0.0441 0.12985,0.15354 0.12985,0.24311 0,0.0896 0.0787,0.22818 0.17489,0.308 0.13953,0.1158 0.19086,0.0948 0.25387,-0.10372 0.0434,-0.13688 0.0203,-0.35848 -0.0514,-0.49245 -0.16113,-0.30107 -0.16956,-0.47279 -0.0155,-0.3154 0.0632,0.0645 0.1913,0.34099 0.28472,0.61433 0.15238,0.44589 0.14781,0.5202 -0.0444,0.7227 -0.11786,0.12414 -0.18445,0.30347 -0.14798,0.3985 0.10878,0.28348 0.26192,0.19717 0.34835,-0.19634 0.0446,-0.20302 0.13238,-0.40084 0.19509,-0.43959 0.16319,-0.10086 0.14113,-0.76736 -0.0272,-0.82349 -0.0777,-0.0259 -0.15726,-0.19705 -0.1768,-0.38035 -0.0195,-0.18329 -0.0708,-0.4443 -0.11384,-0.58001 -0.0601,-0.18952 -0.0335,-0.22953 0.11503,-0.17254 0.15379,0.059 0.19335,-0.0185 0.19335,-0.37862 0,-0.2499 0.0518,-0.42078 0.11566,-0.38133 0.0636,0.0393 0.1097,0.16766 0.10241,0.2852 -0.0155,0.25043 0.52738,1.78897 0.66522,1.88519 0.0918,0.0641 -0.10749,0.76874 -0.30427,1.07578 -0.0541,0.0844 -0.0509,0.23814 0.007,0.34169 0.0793,0.14168 0.20642,-0.0206 0.51375,-0.6559 0.4026,-0.83221 0.40646,-0.85657 0.2726,-1.71929 -0.0747,-0.48131 -0.25242,-1.14451 -0.39499,-1.47377 -0.67745,-1.56461 -0.73297,-1.74963 -0.50714,-1.69012 0.33557,0.0884 1.07517,1.85643 0.9547,2.28217 -0.0637,0.22517 -0.053,0.24933 0.0472,0.10622 0.0713,-0.1019 0.13057,-0.13247 0.13161,-0.0679 0.001,0.0646 0.0618,0.0575 0.1351,-0.0159 0.16055,-0.16055 -0.22577,-1.55236 -0.75669,-2.72618 -0.19203,-0.42459 -0.32579,-0.77197 -0.29722,-0.77197 0.0912,0 0.62815,1.14992 0.86506,1.85273 0.26186,0.77683 0.42619,1.03096 0.42619,0.65909 0,-0.14021 -0.19882,-0.77662 -0.44182,-1.41425 -0.24299,-0.63763 -0.46735,-1.2705 -0.49856,-1.40636 -0.0794,-0.34567 0.51058,0.91838 0.60533,1.29691 0.0425,0.16984 0.16393,0.41996 0.26982,0.55582 0.18514,0.23755 0.1895,0.2337 0.11361,-0.1001 -0.0434,-0.19093 -0.24314,-0.77454 -0.44387,-1.29692 -0.44752,-1.16466 -0.56333,-1.63467 -0.22157,-0.89923 0.1392,0.29953 0.34887,0.62325 0.46595,0.71937 0.11707,0.0961 0.14339,0.13958 0.0585,0.0966 -0.0849,-0.043 -0.1544,-0.0194 -0.1544,0.0526 0,0.14958 0.0344,0.15725 0.28094,0.0626 0.13468,-0.0517 0.15535,-0.17857 0.0855,-0.52494 -0.15274,-0.75746 -0.38644,-1.28905 -0.51165,-1.16383 -0.0703,0.0703 -0.0346,0.31414 0.0926,0.63206 0.11389,0.28465 0.17858,0.54604 0.14375,0.58087 -0.0348,0.0348 -0.14707,-0.17591 -0.24943,-0.46831 -0.10235,-0.2924 -0.22596,-0.62953 -0.27468,-0.74919 -0.0679,-0.16668 -0.042,-0.19969 0.11046,-0.14118 0.24743,0.095 0.25489,-0.0624 0.0189,-0.39927 -0.13227,-0.18883 -0.15167,-0.36841 -0.073,-0.67594 0.0589,-0.23034 0.14351,-0.63291 0.18807,-0.8946 0.0446,-0.26169 0.11311,-0.44371 0.15234,-0.40448 0.0392,0.0392 8.4e-4,0.40342 -0.0853,0.80932 -0.16487,0.7769 -0.0932,1.34095 0.12631,0.99387 0.0632,-0.1 0.12228,-0.32076 0.1312,-0.4906 0.0116,-0.22037 0.0327,-0.24529 0.0738,-0.0871 0.0317,0.12196 -2.3e-4,0.38754 -0.0709,0.59018 -0.12568,0.36055 -0.0756,0.73203 0.0987,0.73203 0.0482,0 0.15691,-0.34849 0.24157,-0.77442 0.11643,-0.58572 0.11983,-0.86411 0.014,-1.14252 -0.077,-0.20246 -0.12782,-0.36811 -0.113,-0.36811 0.0148,0 -0.0919,-0.233 -0.23721,-0.51778 -0.33008,-0.647 -1.06038,-1.23857 -1.29188,-1.04645 -0.0881,0.0731 -0.23593,0.42723 -0.32844,0.78685 -0.0925,0.35963 -0.18781,0.59588 -0.21179,0.52501 -0.024,-0.0709 0.039,-0.40319 0.13989,-0.73849 0.22835,-0.75877 0.0407,-1.06277 -0.2405,-0.38968 -0.21349,0.51096 -0.37001,0.62817 -0.1834,0.13734 0.16164,-0.42512 0.15268,-0.50899 -0.0632,-0.59183 -0.11583,-0.0445 -0.25507,0.0533 -0.37695,0.26469 l -0.19328,0.33518 0.0744,-0.35529 c 0.0596,-0.28448 0.0371,-0.34094 -0.11315,-0.2833 -0.10318,0.0396 -0.21706,0.0243 -0.25309,-0.034 -0.036,-0.0583 -0.41298,-0.14613 -0.83768,-0.19522 -0.42471,-0.0491 -1.29346,-0.2213 -1.930558,-0.3827 -1.3389,-0.33919 -2.317743,-0.37163 -3.175944,-0.10525 -1.172569,0.36394 -2.411646,0.36523 -4.49708,0.005 -2.693346,-0.46569 -3.870644,-0.58841 -4.252415,-0.44326 -0.303432,0.11536 -0.45256,0.49744 -0.194155,0.49744 0.06793,0 0.123516,0.11116 0.123516,0.24703 0,0.36439 -0.172784,0.30025 -0.332739,-0.12352 -0.223796,-0.5929 -0.455715,-0.47109 -0.364877,0.19165 0.04901,0.35755 0.03264,0.53474 -0.04497,0.48677 -0.06711,-0.0415 -0.122877,-0.22499 -0.123918,-0.40779 -0.001,-0.18281 -0.05363,-0.4142 -0.116871,-0.5142 -0.183244,-0.28975 -0.296106,0.15245 -0.213662,0.83714 0.04563,0.37895 0.03273,0.49425 -0.03723,0.3328 -0.05888,-0.13586 -0.110954,-0.48325 -0.115729,-0.77197 -0.0065,-0.39318 -0.05783,-0.52494 -0.204495,-0.52494 -0.162909,0 -0.188853,0.13495 -0.154394,0.80311 0.02278,0.44171 -2.69e-4,0.80299 -0.05122,0.80285 -0.05095,-1.4e-4 -0.09349,-0.20869 -0.09453,-0.46344 -0.0021,-0.50636 -0.174032,-0.88418 -0.331062,-0.72736 -0.05464,0.0546 -0.132563,0.44203 -0.173155,0.86103 l -0.0738,0.76182 -0.01883,-0.65875 c -0.01334,-0.46665 -0.06386,-0.64343 -0.173229,-0.6062 -0.103799,0.0353 -0.146969,0.29168 -0.131735,0.78226 0.02092,0.67376 0.01557,0.68964 -0.06976,0.20707 -0.05083,-0.28745 -0.133526,-0.56376 -0.18377,-0.614 -0.14387,-0.14387 -0.320153,0.23041 -0.331744,0.70434 -0.0081,0.32982 -0.03275,0.37569 -0.1041,0.19348 -0.146943,-0.37524 -0.266588,-0.0307 -0.141185,0.40652 0.0679,0.23677 0.06651,0.38813 -0.0036,0.38813 -0.06319,0 -0.114894,-0.11116 -0.114894,-0.24703 0,-0.13587 -0.06253,-0.24703 -0.138955,-0.24703 -0.08753,0 -0.11238,0.13288 -0.06714,0.35906 0.05439,0.27195 0.01245,0.39929 -0.172894,0.52494 -0.547723,0.37129 -0.637791,3.08442 -0.156709,4.72056 0.04412,0.15006 0.01995,0.20186 -0.06864,0.1471 -0.08764,-0.0542 -0.136501,0.0401 -0.13606,0.26245 0.001,0.5268 0.239252,1.27324 0.406544,1.27394 0.08172,3.4e-4 0.283674,0.45889 0.448777,1.01901 0.486965,1.65202 1.194628,3.27914 2.017208,4.63814 0.423775,0.700131 0.867768,1.378691 0.986652,1.507911 0.244606,0.26587 0.286039,0.42656 0.07661,0.29713 -0.146632,-0.0906 -0.142491,-0.0761 0.13767,0.48454 0.153189,0.30653 0.14855,0.54185 -0.03652,1.85274 -0.506143,3.58514 -0.647918,7.23047 -0.344227,8.8508 0.75718,4.03992 1.897486,7.47745 2.943277,8.87271 0.481506,0.64241 0.568383,0.37191 0.395283,-1.23077 z m -0.562586,0.18812 c -0.04552,-0.12861 -0.223978,-0.38668 -0.396564,-0.5735 -0.17497,-0.1894 -0.244959,-0.33967 -0.158202,-0.33967 0.0997,0 0.06364,-0.1169 -0.100407,-0.32545 -0.140798,-0.17899 -0.255997,-0.38415 -0.255997,-0.45591 0,-0.0718 0.08161,-0.0226 0.181346,0.10929 0.149146,0.19719 0.182043,0.20474 0.185274,0.0425 0.0022,-0.10849 -0.107236,-0.32543 -0.243104,-0.48208 -0.26181,-0.30187 -0.326934,-0.61758 -0.127392,-0.61758 0.147523,0 0.02313,-0.38738 -0.178482,-0.55582 -0.294974,-0.24644 -0.424984,-0.66473 -0.750993,-2.41622 -0.265004,-1.42374 -0.344169,-2.28526 -0.392614,-4.27268 -0.05943,-2.43805 -0.0553,-2.49225 0.200338,-2.62906 0.318536,-0.17047 0.352656,0.0347 0.08997,0.54099 -0.175466,0.33821 -0.168946,1.50501 0.02889,5.16975 0.01025,0.1899 0.150397,0.47704 0.311434,0.63807 0.161036,0.16104 0.329412,0.4387 0.374168,0.61702 0.04476,0.17832 0.131326,0.29335 0.192377,0.25562 0.06105,-0.0377 0.149246,0.0573 0.195989,0.2111 0.04674,0.15384 0.220319,0.46035 0.385726,0.68113 0.165406,0.22079 0.270755,0.40143 0.234107,0.40143 -0.136431,0 -0.563519,-0.4306 -0.563519,-0.56815 0,-0.0785 -0.09259,-0.21898 -0.205762,-0.31222 -0.185725,-0.15301 -0.197348,-0.13574 -0.119361,0.17733 0.04752,0.19077 0.279069,0.62096 0.514552,0.95598 0.479864,0.68271 0.507712,0.75796 0.242877,0.65633 -0.101901,-0.0391 -0.185274,-0.15104 -0.185274,-0.24876 0,-0.0977 -0.130879,-0.30856 -0.290842,-0.46852 -0.356514,-0.35651 -0.495206,-0.66302 -0.460758,-1.01825 0.01442,-0.14874 -0.05846,-0.42665 -0.161964,-0.61758 -0.163464,-0.30153 -0.188838,-0.31334 -0.193133,-0.0898 -0.0077,0.39982 0.264625,1.70536 0.383011,1.83628 0.06508,0.072 0.106107,0.0572 0.106107,-0.0382 0,-0.0855 0.05558,-0.12115 0.123515,-0.0792 0.06793,0.042 0.123516,0.17107 0.123516,0.28685 0,0.11578 0.199148,0.50624 0.442551,0.86767 0.243403,0.36143 0.414001,0.6857 0.379106,0.72059 -0.0349,0.0349 -0.136249,-0.0531 -0.225231,-0.19561 -0.167634,-0.26843 -0.349394,-0.34387 -0.349394,-0.14502 0,0.0627 0.138955,0.27918 0.30879,0.48101 0.360545,0.42849 0.387345,0.53898 0.104391,0.4304 -0.188644,-0.0724 -0.189312,-0.0507 -0.0087,0.28179 0.247827,0.4561 0.479689,1.18466 0.401802,1.26254 -0.03267,0.0327 -0.09665,-0.0458 -0.142179,-0.17442 z m 11.938922,-1.69128 c -0.002,-0.0543 0.0711,-0.24886 0.1635,-0.4323 0.0924,-0.18345 0.20746,-0.50028 0.25577,-0.70409 0.12302,-0.51899 -0.123,-0.25416 -0.33634,0.36207 -0.14798,0.42742 -0.16011,0.25119 -0.11144,-1.6194 0.0422,-1.62166 0.009,-2.3241 -0.14593,-3.08875 -0.24182,-1.19342 -0.24072,-1.15803 -0.0336,-1.07853 0.19721,0.0757 0.4227,-0.25358 0.81046,-1.18348 0.15581,-0.37363 0.33631,-0.73492 0.40111,-0.80285 0.19425,-0.20365 -0.64661,1.69992 -0.92374,2.09119 -0.14101,0.19909 -0.18507,0.3179 -0.0979,0.26404 0.11484,-0.071 0.14794,-0.0176 0.12023,0.19385 -0.021,0.16048 0.0159,0.29178 0.082,0.29178 0.0661,0 0.10914,-0.12952 0.0956,-0.28783 -0.0189,-0.22101 0.0121,-0.2574 0.13334,-0.15674 0.16925,0.14047 0.12453,0.83264 -0.0612,0.94744 -0.0601,0.0371 -0.10373,0.2171 -0.097,0.39991 l 0.0123,0.33238 0.0989,-0.30879 c 0.0659,-0.20586 0.103,-0.23674 0.1112,-0.0926 0.007,0.11889 0.054,0.21413 0.10495,0.21164 0.0994,-0.005 0.61252,-0.79016 0.94538,-1.4468 0.36403,-0.71812 0.32035,-0.42294 -0.0548,0.37055 -0.20075,0.42459 -0.5041,0.93054 -0.67409,1.12434 -0.17,0.19381 -0.30909,0.48889 -0.30909,0.65575 0,0.1708 -0.054,0.27002 -0.12351,0.22704 -0.17375,-0.10737 -0.14665,0.0827 0.0484,0.33967 0.22953,0.30238 0.32212,0.26983 0.32212,-0.11322 0,-0.18116 0.0367,-0.29265 0.0816,-0.24776 0.0449,0.0449 0.14216,-0.0198 0.21615,-0.14375 0.37997,-0.63644 0.68949,-1.055 0.6899,-0.93294 2.6e-4,0.0754 -0.13923,0.34302 -0.30997,0.59462 -0.41817,0.61621 -0.68799,1.28529 -0.55217,1.36923 0.1367,0.0845 0.44663,-0.37859 0.55884,-0.83497 0.0459,-0.18682 0.13262,-0.33967 0.19264,-0.33967 0.06,0 0.0192,0.22464 -0.0906,0.49919 -0.26229,0.65553 -0.13243,0.76708 0.18735,0.16093 0.29885,-0.56649 0.32443,-0.44431 0.0774,0.36982 -0.28441,0.9374 -1.76864,3.43551 -1.78782,3.00907 z m 0.88607,-1.8466 c 0.25717,-0.40188 0.34804,-0.69354 0.23739,-0.76192 -0.0531,-0.0328 -0.21666,0.18775 -0.36355,0.4901 -0.27641,0.56893 -0.18709,0.76136 0.12616,0.27182 z m -0.23691,-0.5095 c 0.0623,-0.18682 0.0796,-0.37325 0.0386,-0.41429 -0.10925,-0.10925 -0.19171,0.008 -0.3192,0.45204 -0.14352,0.50043 0.1127,0.46596 0.2806,-0.0377 z m -13.130058,-1.21972 c -0.134615,-0.22078 -0.247138,-0.34584 -0.250051,-0.27791 -0.0029,0.0679 -0.08381,-0.0571 -0.179773,-0.27791 -0.09596,-0.22078 -0.232741,-0.40143 -0.303955,-0.40143 -0.07121,0 -0.129478,-0.0834 -0.129478,-0.18527 0,-0.1019 -0.04927,-0.18527 -0.109497,-0.18527 -0.06022,0 -0.133539,-0.16381 -0.162924,-0.36403 -0.06546,-0.44603 0.06267,-0.38938 0.27417,0.12122 0.09235,0.22295 0.203015,0.33448 0.267704,0.26979 0.165362,-0.16536 -0.07955,-0.69793 -0.457775,-0.99544 -0.302706,-0.23811 -0.31379,-0.2763 -0.13274,-0.45735 0.181051,-0.18105 0.197546,-0.17692 0.197546,0.0495 0,0.13587 0.09147,0.3385 0.203261,0.45029 0.111794,0.1118 0.294516,0.37978 0.406048,0.59553 0.111533,0.21574 0.30379,0.559 0.427238,0.76281 l 0.22445,0.37054 -0.316243,-0.36572 c -0.173933,-0.20114 -0.353384,-0.32858 -0.398779,-0.28318 -0.07756,0.0776 0.12762,0.48635 0.625539,1.24627 0.118564,0.18095 0.180571,0.329 0.137793,0.329 -0.04278,0 -0.187919,-0.18064 -0.322534,-0.40142 z m -0.139478,-1.85274 c -0.224979,-0.35665 -0.471349,-0.78743 -0.54749,-0.95729 -0.07614,-0.16986 -0.230327,-0.3851 -0.342637,-0.47831 -0.147435,-0.12236 -0.198428,-0.34553 -0.183436,-0.8028 0.01861,-0.56776 0.02591,-0.58326 0.07043,-0.14974 0.04522,0.44029 0.995845,2.23686 1.492398,2.82045 0.10304,0.1211 0.125841,0.21615 0.05185,0.21615 -0.07263,0 -0.316138,-0.2918 -0.541117,-0.64846 z m 14.477426,0.0926 c 0,-0.0679 0.0794,-0.26247 0.17652,-0.4323 0.0971,-0.16984 0.17652,-0.25321 0.17652,-0.18528 0,0.0679 -0.0794,0.26248 -0.17652,0.43231 -0.0971,0.16983 -0.17652,0.25321 -0.17652,0.18527 z m -14.390289,-0.94001 c -0.3212,-0.48304 -0.529483,-0.85822 -0.46285,-0.83374 0.160836,0.0591 1.26271,1.71199 1.141278,1.71199 -0.05193,0 -0.357227,-0.39521 -0.678428,-0.87825 z m 14.755859,0.0754 c 0,-0.0679 0.0539,-0.20689 0.11974,-0.30879 0.0658,-0.1019 0.11973,-0.12969 0.11973,-0.0618 0,0.0679 -0.0539,0.20689 -0.11973,0.30879 -0.0658,0.1019 -0.11974,0.12969 -0.11974,0.0618 z m -1.48597,-0.23137 c 0,-0.13339 0.49063,-1.06555 0.56084,-1.06555 0.034,0 -0.0574,0.23622 -0.20296,0.52494 -0.28633,0.56779 -0.35788,0.67586 -0.35788,0.54061 z m 1.12139,-0.52002 c 0.006,-0.14389 0.0352,-0.17316 0.0746,-0.0746 0.0357,0.0892 0.0313,0.19569 -0.01,0.23674 -0.041,0.041 -0.0702,-0.0319 -0.0649,-0.16212 z m -2.10762,-0.38385 c 0.001,-0.055 0.0558,-0.18329 0.12162,-0.2852 0.10319,-0.15966 0.12,-0.1564 0.12162,0.0236 0.001,0.11488 -0.0537,0.24322 -0.12162,0.2852 -0.0679,0.042 -0.12266,0.0314 -0.12162,-0.0236 z m 0.25389,-0.59398 c 0,-0.0679 0.0794,-0.26248 0.17652,-0.43231 0.0971,-0.16983 0.17652,-0.25321 0.17652,-0.18527 0,0.0679 -0.0794,0.26247 -0.17652,0.4323 -0.0971,0.16984 -0.17652,0.25321 -0.17652,0.18528 z m 0.37237,-0.86462 c 0.0129,-0.23396 0.21871,-0.62793 0.22588,-0.4323 0.004,0.1019 -0.0471,0.26865 -0.11294,0.37055 -0.0659,0.1019 -0.11668,0.12969 -0.11294,0.0618 z m -14.195396,-0.4323 c 0,-0.16983 0.02803,-0.23931 0.0623,-0.15439 0.03426,0.0849 0.03426,0.22387 0,0.30879 -0.03427,0.0849 -0.0623,0.0154 -0.0623,-0.1544 z m 13.464436,-0.37685 c 0.0722,-0.20727 0.15429,-0.35393 0.1823,-0.32592 0.0612,0.0612 -0.1719,0.70277 -0.25529,0.70277 -0.0321,0 7.3e-4,-0.16958 0.073,-0.37685 z m 0.30165,-0.85831 c 0.0421,-0.23776 0.1265,-0.51567 0.18757,-0.61758 0.13144,-0.21931 0.005,0.42091 -0.15836,0.80286 -0.0713,0.16664 -0.0808,0.10635 -0.0292,-0.18528 z m -0.61479,-0.0265 c 0.051,-0.0825 0.1607,-0.42988 0.24381,-0.77197 0.0831,-0.34209 0.15585,-0.48948 0.16163,-0.32753 0.0142,0.39904 -0.24909,1.24949 -0.38688,1.24949 -0.0612,0 -0.0695,-0.0675 -0.0186,-0.14999 z m -11.909208,-0.86052 c -0.218339,-0.28408 -0.395289,-0.57589 -0.393224,-0.64846 0.0021,-0.0726 0.06497,-0.0208 0.139781,0.11509 0.07481,0.13587 0.306355,0.42768 0.514537,0.64846 0.208182,0.22078 0.323922,0.40143 0.257199,0.40143 -0.06672,0 -0.299954,-0.23244 -0.518293,-0.51652 z m 11.653168,0.20773 c 0.18631,-0.53409 0.2158,-0.84084 0.0723,-0.75217 -0.0778,0.0481 -0.14142,0.17677 -0.14142,0.28598 0,0.10921 -0.0345,0.1641 -0.0766,0.12198 -0.13689,-0.13689 0.0761,-0.70568 0.26421,-0.70568 0.24233,0 0.23333,0.58291 -0.0153,0.98813 -0.12505,0.20386 -0.16014,0.22484 -0.10325,0.0618 z m -11.600999,-1.06673 c -0.327133,-0.40882 -0.570686,-0.7674 -0.541229,-0.79686 0.02946,-0.0295 0.318486,0.28365 0.642287,0.6958 0.323802,0.41215 0.567355,0.77073 0.541229,0.79686 -0.02613,0.0261 -0.315154,-0.28699 -0.642287,-0.6958 z m 0.314111,-0.65797 c -0.737814,-0.92072 -0.86334,-1.23369 -0.176559,-0.44022 0.478205,0.5525 0.959018,1.23855 0.868025,1.23855 -0.02845,0 -0.339608,-0.35925 -0.691466,-0.79833 z m 0.720721,-0.0426 c -0.44514,-0.48286 -1.416362,-1.8764 -1.307749,-1.8764 0.03701,0 0.214425,0.22232 0.394251,0.49406 0.179825,0.27173 0.397452,0.49406 0.483615,0.49406 0.166522,0 0.710031,0.83003 0.649319,0.99162 -0.01977,0.0526 -0.11852,0.006 -0.219436,-0.10334 z m 12.655027,-0.54527 c -0.23823,-0.48491 -0.63892,-0.83607 -0.47927,-0.42002 0.0402,0.10487 -0.19179,-0.0711 -0.51563,-0.3911 -0.32385,-0.31998 -0.59756,-0.67904 -0.60826,-0.79793 -0.0264,-0.29327 0.0448,-0.27233 0.33698,0.0991 0.13641,0.17342 0.27739,0.28592 0.31329,0.25002 0.0359,-0.0359 -9.2e-4,-0.14504 -0.0818,-0.24254 -0.0891,-0.10735 -0.10063,-0.20599 -0.0293,-0.2501 0.18424,-0.11387 1.24826,1.40052 1.40492,1.99958 0.11503,0.43991 -0.069,0.30659 -0.34094,-0.24705 z M 59.2191,45.572826 c -0.245673,-0.27194 -0.445019,-0.56374 -0.442992,-0.64846 0.002,-0.0847 0.227295,0.0961 0.500595,0.40178 l 0.496908,0.55582 -0.06798,-0.4323 c -0.05097,-0.32417 -0.03933,-0.37052 0.04655,-0.18528 0.148791,0.32096 0.16244,0.80285 0.02274,0.80285 -0.06003,0 -0.310148,-0.22248 -0.555821,-0.49441 z m 13.216032,0.0665 c -0.10972,-0.16745 -0.19948,-0.34371 -0.19948,-0.3917 0,-0.048 -0.0888,-0.1854 -0.19738,-0.30536 -0.2123,-0.23459 -0.14228,-0.48069 0.13677,-0.48069 0.0945,0 0.2285,-0.0973 0.29774,-0.21615 0.1155,-0.19829 0.12621,-0.19889 0.12966,-0.007 0.002,0.11487 -0.0535,0.24427 -0.12355,0.28754 -0.13597,0.084 -0.0442,0.8299 0.14791,1.20194 0.16558,0.32068 0.0377,0.26178 -0.19167,-0.0883 z m -12.721969,-0.93108 c -0.245673,-0.27193 -0.445851,-0.53594 -0.44484,-0.5867 10e-4,-0.0508 0.190369,0.13005 0.420797,0.40179 0.230428,0.27173 0.447106,0.46627 0.481508,0.4323 0.0344,-0.034 0.01661,-0.31188 -0.03953,-0.61758 -0.05614,-0.3057 -0.08934,-0.56875 -0.07377,-0.58455 0.01557,-0.0158 0.204068,0.0376 0.418889,0.1187 0.330951,0.12492 0.516626,0.10645 1.21616,-0.12099 0.93136,-0.30281 0.924205,-0.19095 -0.0098,0.15326 -0.335531,0.12365 -0.800175,0.21767 -1.032543,0.20894 l -0.422486,-0.0159 0.08286,0.55257 c 0.04844,0.32302 0.03438,0.55257 -0.03385,0.55257 -0.06419,0 -0.317717,-0.22249 -0.56339,-0.49442 z m 5.518601,-1.00614 c -0.220527,-0.22053 -0.407929,-0.26485 -1.108211,-0.26207 l -0.842803,0.003 0.494064,-0.15395 c 0.315995,-0.0985 0.572888,-0.11324 0.712768,-0.041 0.120288,0.0621 0.267354,0.0829 0.326814,0.0461 0.175177,-0.10827 0.688156,0.22398 0.706794,0.45778 0.02134,0.26773 0.03003,0.26923 -0.289426,-0.0502 z m 2.142447,-3.100401 c -1.244464,-1.91954 -2.453362,-3.93544 -2.395009,-3.99379 0.02673,-0.0267 0.179393,0.18701 0.339259,0.47497 0.159867,0.28796 0.337341,0.55515 0.394386,0.59376 0.05705,0.0386 0.387472,0.56665 0.73428,1.1734 0.646638,1.13133 1.796585,2.80008 1.980205,2.873591 0.146746,0.0587 0.127463,0.26762 -0.02471,0.26762 -0.07015,0 -0.532938,-0.625301 -1.028414,-1.389551 z m 1.554615,0.55483 c -0.347944,-0.45801 -0.95516,-1.23137 -1.349371,-1.71858 -0.678652,-0.83876 -1.22397,-1.64624 -1.111763,-1.64624 0.02819,0 0.257698,0.31093 0.510019,0.69095 0.252321,0.38003 0.490439,0.65928 0.529152,0.62057 0.03871,-0.0387 -10e-4,-0.15645 -0.08833,-0.26163 -0.0873,-0.10519 -0.126884,-0.22308 -0.08798,-0.26199 0.03891,-0.0389 0.193369,0.16963 0.343246,0.46341 0.417487,0.81834 0.875482,1.46881 0.986069,1.40046 0.05475,-0.0338 0.136977,0.0643 0.182721,0.21818 0.04575,0.15384 0.249863,0.49182 0.453598,0.75108 0.203734,0.25925 0.346764,0.495031 0.317844,0.523951 -0.02892,0.0289 -0.337264,-0.322151 -0.685207,-0.780161 z m -0.04925,-1.35034 c -0.497871,-0.45451 -0.925718,-0.88527 -0.950769,-0.95725 -0.02505,-0.072 0.294545,0.2009 0.710216,0.60637 0.41567,0.40548 0.755764,0.70262 0.755764,0.66032 0,-0.0423 -0.195954,-0.42358 -0.435454,-0.8473 -0.2395,-0.42372 -0.412824,-0.79303 -0.385164,-0.82069 0.02766,-0.0277 0.256896,0.32758 0.509415,0.78942 0.754582,1.38007 0.874546,1.43957 1.594238,0.79071 l 0.35667,-0.32156 -0.21042,0.33043 c -0.16306,0.25605 -0.73664,0.59594 -1.00568,0.59594 -0.01848,0 -0.440945,-0.37188 -0.938816,-0.82639 z m -9.318964,0.0544 c -0.05005,-0.0849 -0.170888,-0.27945 -0.268526,-0.4323 -0.09764,-0.15285 -0.125844,-0.27791 -0.06268,-0.27791 0.06317,0 0.207613,0.19453 0.320997,0.4323 0.196128,0.41129 0.203261,0.60544 0.01021,0.27791 z m -2.133282,-1.6582 c -0.11581,-0.1969 -0.14996,-0.20198 -0.270006,-0.0401 -0.115311,0.15546 -0.125613,0.14887 -0.06402,-0.041 0.04037,-0.12444 0.07362,-0.31897 0.07387,-0.4323 2.79e-4,-0.12473 0.100401,-0.0421 0.253687,0.2093 0.139275,0.22845 0.227535,0.44105 0.196134,0.47245 -0.0314,0.0314 -0.116752,-0.0443 -0.189669,-0.16832 z m 9.620653,-0.0401 c -0.07271,-0.13586 -0.104416,-0.24703 -0.07045,-0.24703 0.03397,0 0.121251,0.11117 0.193965,0.24703 0.07271,0.13587 0.104417,0.24704 0.07045,0.24704 -0.03397,0 -0.121251,-0.11117 -0.193965,-0.24704 z m -9.193989,-0.0873 c -0.06703,-0.17603 -0.05284,-0.19022 0.06914,-0.0691 0.08441,0.0838 0.122363,0.18346 0.08433,0.22148 -0.03803,0.038 -0.107095,-0.0305 -0.153479,-0.15233 z m 8.819777,-0.53711 c -0.07473,-0.13964 -0.114237,-0.31879 -0.08779,-0.39811 0.02644,-0.0793 0.110529,0.0349 0.186859,0.25388 0.156829,0.44988 0.104944,0.52542 -0.09906,0.14423 z m -10.100555,-0.17843 c 0.0025,-0.2038 0.0302,-0.27222 0.06152,-0.15205 0.03132,0.12018 0.02926,0.28693 -0.0046,0.37055 -0.03383,0.0836 -0.05946,-0.0147 -0.05694,-0.2185 z m 17.771956,-0.13391 c 0.006,-0.14389 0.0352,-0.17316 0.0746,-0.0746 0.0357,0.0892 0.0313,0.19569 -0.01,0.23674 -0.041,0.041 -0.0702,-0.0319 -0.0649,-0.16212 z m -9.710826,-0.0597 c -0.04478,-0.0725 -0.05493,-0.15822 -0.02255,-0.1906 0.03238,-0.0324 0.09178,0.0269 0.132008,0.13173 0.08352,0.21765 0.01233,0.25593 -0.109459,0.0589 z m -7.761161,-0.30535 c -0.11919,-0.3106 -0.08403,-0.39075 0.06158,-0.14035 0.07209,0.12398 0.105063,0.25143 0.07326,0.28323 -0.0318,0.0318 -0.09248,-0.0325 -0.134838,-0.14288 z m 17.379887,-0.29902 c 0,-0.20106 -0.18192,-0.76023 -0.40426,-1.24261 -0.22235,-0.48239 -0.37912,-0.90221 -0.34839,-0.93294 0.0307,-0.0307 0.22747,0.32001 0.4372,0.77943 0.41142,0.90123 0.62248,1.76168 0.43213,1.76168 -0.0642,0 -0.11668,-0.1645 -0.11668,-0.36556 z m -18.425528,-0.62257 c 0,-0.16984 0.02804,-0.23931 0.0623,-0.1544 0.03426,0.0849 0.03426,0.22388 0,0.30879 -0.03426,0.0849 -0.0623,0.0154 -0.0623,-0.15439 z m -2.470317,-0.98813 c 0,-0.16983 0.02804,-0.23931 0.0623,-0.15439 0.03426,0.0849 0.03426,0.22387 0,0.30879 -0.03426,0.0849 -0.0623,0.0154 -0.0623,-0.1544 z m -0.118939,-0.67933 c 0.0025,-0.20381 0.0302,-0.27223 0.06152,-0.15205 0.03132,0.12018 0.02926,0.28692 -0.0046,0.37055 -0.03383,0.0836 -0.05946,-0.0147 -0.05694,-0.2185 z m 8.518017,-0.92637 c 0,-0.16984 0.02804,-0.23932 0.0623,-0.1544 0.03427,0.0849 0.03427,0.22387 0,0.30879 -0.03426,0.0849 -0.0623,0.0154 -0.0623,-0.15439 z m -7.8133,-0.7411 c -0.07153,-0.55589 -0.04878,-0.71982 0.08179,-0.58926 0.03822,0.0382 0.05154,0.3115 0.02961,0.60728 l -0.03988,0.5378 z m 20.320127,-3.64372 c 0.1976,-0.85166 0.33852,-1.31888 0.38404,-1.27336 0.07,0.07 -0.26418,1.45357 -0.376,1.55697 -0.0517,0.0478 -0.0553,-0.0798 -0.008,-0.28361 z m -0.40987,-0.37055 c -0.005,-0.0679 0.0707,-0.37363 0.16698,-0.67933 0.12327,-0.39122 0.17593,-0.46437 0.17783,-0.24703 0.003,0.29494 -0.32788,1.18274 -0.34481,0.92636 z m -7.4262,32.249371 c -0.0038,-0.15424 -0.858229,-1.10583 -0.929189,-1.03487 -0.05678,0.0568 0.252241,1.25404 0.374896,1.4525 0.100165,0.16207 0.560056,-0.18443 0.554293,-0.41763 z m 0.540402,-1.40258 c 0.479921,-1.48254 0.701682,-2.3312 0.892528,-3.4156 0.180189,-1.02385 0.234694,-2.61693 0.101418,-2.96424 -0.105144,-0.274 -0.295847,-0.11703 -0.295847,0.24351 0,0.16813 -0.06506,0.28784 -0.147059,0.27062 -0.08088,-0.017 -0.169599,0.073 -0.197148,0.1999 -0.03471,0.15995 -0.0028,0.20153 0.104112,0.13548 0.118753,-0.0734 0.134585,0.0274 0.06887,0.43833 -0.06056,0.37873 -0.03913,0.56293 0.07383,0.6346 0.120884,0.0767 0.111782,0.10143 -0.03785,0.10287 -0.108355,10e-4 -0.297611,0.11305 -0.42057,0.24892 -0.209271,0.23124 -0.209836,0.24703 -0.0089,0.24703 0.119617,0 0.189637,0.0684 0.158099,0.1544 -0.03114,0.0849 -0.133037,0.13204 -0.226446,0.10471 -0.09341,-0.0273 -0.267103,-0.0531 -0.385987,-0.0573 -0.118884,-0.004 -0.216153,-0.0625 -0.216153,-0.12941 0,-0.0678 -0.0634,-0.0583 -0.142984,0.0212 -0.108302,0.1083 -0.104633,0.18919 0.01512,0.33349 0.199695,0.24062 0.374892,0.24487 0.374892,0.009 0,-0.10927 0.07256,-0.15355 0.182484,-0.11137 0.220259,0.0845 0.194598,0.82781 -0.04351,1.26029 -0.135554,0.24621 -0.126755,0.32344 0.06041,0.53026 0.178677,0.19743 0.183302,0.22834 0.02508,0.16763 -0.283237,-0.10869 -0.436606,0.55814 -0.172747,0.75108 0.170854,0.12493 0.161483,0.16803 -0.08162,0.37539 -0.225505,0.19235 -0.244689,0.19559 -0.107242,0.0181 0.152396,-0.19679 0.107731,-0.27001 -0.140769,-0.23078 -0.05095,0.008 -0.09264,-0.072 -0.09264,-0.17793 0,-0.10591 -0.05558,-0.15822 -0.123515,-0.11623 -0.06793,0.042 -0.123516,-0.0368 -0.123516,-0.17514 0,-0.13831 -0.136788,-0.3411 -0.303973,-0.45064 -0.167186,-0.10955 -0.337678,-0.30537 -0.378871,-0.43516 -0.09178,-0.28917 -0.305283,-0.31198 -0.305283,-0.0326 0,0.23217 0.681381,1.29509 1.160376,1.81013 0.346099,0.37215 0.407061,0.63659 0.179214,0.77741 -0.0818,0.0506 -0.109309,0.0343 -0.06452,-0.0382 0.08785,-0.14214 -0.852192,-1.51753 -1.037194,-1.51753 -0.161795,0 -0.01111,0.5939 0.266381,1.04989 0.322942,0.53067 0.85122,1.06643 0.975687,0.98951 0.05848,-0.0361 0.245582,-0.4959 0.415785,-1.02168 z m -0.5762,-1.53493 c -0.03943,-0.0985 -0.0687,-0.0693 -0.07462,0.0746 -0.0054,0.1302 0.02383,0.20315 0.06487,0.16211 0.04104,-0.041 0.04543,-0.14758 0.0098,-0.23674 z m -0.207891,-0.27616 c 0,-0.2632 -0.407641,-0.88333 -0.818159,-1.24463 -0.134084,-0.11801 -0.348673,-0.80286 -0.251567,-0.80286 0.02564,0 0.252014,0.30934 0.503046,0.68742 0.445271,0.67063 0.711178,0.79927 0.791889,0.38311 0.02451,-0.12636 -0.04025,-0.20592 -0.16761,-0.20592 -0.118108,0 -0.181347,-0.0683 -0.146751,-0.15842 0.03344,-0.0871 -0.04785,-0.2926 -0.180641,-0.45659 -0.201641,-0.24902 -0.261929,-0.26871 -0.365772,-0.11948 -0.106911,0.15363 -0.116526,0.15271 -0.0686,-0.007 0.03065,-0.1019 -0.05722,-0.37272 -0.19528,-0.60181 -0.230005,-0.38167 -0.233883,-0.42612 -0.04633,-0.53108 0.269382,-0.15075 0.258218,-0.29577 -0.04621,-0.6002 -0.13799,-0.13799 -0.279887,-0.42979 -0.315327,-0.64845 l -0.06443,-0.39757 0.189511,0.41014 c 0.104231,0.22557 0.239361,0.37933 0.300288,0.34167 0.06093,-0.0377 0.144783,0.10156 0.186345,0.30937 0.09884,0.49422 0.492141,0.45395 0.550682,-0.0564 0.02237,-0.19501 -0.01086,-0.3201 -0.07457,-0.28072 -0.06321,0.0391 -0.177445,-0.0662 -0.253856,-0.23389 -0.07641,-0.16771 -0.18896,-0.30492 -0.250108,-0.30492 -0.180795,0 -0.417381,-0.70154 -0.329725,-0.97772 0.04692,-0.14783 0.0048,-0.36349 -0.100341,-0.51358 -0.173091,-0.24712 -0.187136,-0.24856 -0.312945,-0.0322 -0.118845,0.20441 -0.132254,0.19638 -0.137164,-0.0822 -0.003,-0.16983 -0.03662,-0.44774 -0.07472,-0.61758 -0.06915,-0.30818 -0.06884,-0.30812 0.15381,0.0309 0.258674,0.39384 0.374374,0.42564 0.449411,0.12352 0.02953,-0.11889 0.03735,-0.0762 0.01739,0.095 -0.01996,0.17111 0.06968,0.44902 0.199191,0.61758 l 0.235484,0.30647 0.0027,-0.53084 c 0.0021,-0.40738 -0.06788,-0.59629 -0.300951,-0.81229 -0.167033,-0.15481 -0.360195,-0.43006 -0.429248,-0.61169 -0.15298,-0.40236 -0.374843,-0.43218 -0.389202,-0.0523 -0.009,0.23798 -0.149162,-0.19243 -0.442464,-1.35867 -0.03844,-0.15285 -0.122401,-0.27791 -0.186578,-0.27791 -0.133622,0 -0.0376,0.8358 0.21285,1.85274 0.09202,0.37363 0.342789,1.92993 0.557265,3.45844 0.217533,1.5503 0.455758,2.83372 0.538775,2.90262 0.08185,0.0679 0.18746,0.22637 0.234689,0.35209 0.107935,0.2873 0.608995,0.92888 0.732553,0.93799 0.05095,0.004 0.09264,-0.12785 0.09264,-0.29247 z m -1.472439,-5.20743 c 0.0059,-0.14389 0.03519,-0.17316 0.07462,-0.0746 0.03568,0.0892 0.03129,0.19569 -0.0098,0.23674 -0.04104,0.041 -0.07024,-0.0319 -0.06487,-0.16212 z m 1.472439,3.1114 c 0,-0.0946 -0.08244,-0.20369 -0.183192,-0.24236 -0.100755,-0.0387 -0.155111,-0.14347 -0.12079,-0.23291 0.08431,-0.2197 -0.241716,-0.64683 -0.412941,-0.54101 -0.161528,0.0998 -0.05925,0.41207 0.283054,0.86415 0.271275,0.35827 0.433869,0.41528 0.433869,0.15213 z m 0.308789,-0.56904 c 0.04199,-0.0679 0.01748,-0.12351 -0.05447,-0.12351 -0.07194,0 -0.130806,0.0556 -0.130806,0.12351 0,0.0679 0.02451,0.12352 0.05447,0.12352 0.02996,0 0.08882,-0.0556 0.130806,-0.12352 z m -0.10438,-0.56114 c 0.100025,-0.26066 -0.06693,-0.40139 -0.209234,-0.17637 -0.151209,0.23909 -0.148177,0.36697 0.0087,0.36697 0.07007,0 0.160306,-0.0858 0.200534,-0.1906 z m 0.955776,-0.005 c 0.105937,-0.27607 0.09758,-0.29869 -0.110301,-0.29869 -0.10293,0 -0.185274,0.10979 -0.185274,0.24703 0,0.29449 0.18967,0.32764 0.295575,0.0517 z m -1.011966,-1.18801 c -0.115282,-0.11528 -0.148219,-0.0823 -0.148219,0.14822 0,0.23057 0.03294,0.2635 0.148219,0.14822 0.115281,-0.11528 0.115281,-0.18115 0,-0.29644 z m -0.271735,-0.16786 c 0,-0.17926 -0.05346,-0.28303 -0.123516,-0.23974 -0.06793,0.042 -0.123516,0.18422 -0.123516,0.31608 0,0.13186 0.05558,0.23974 0.123516,0.23974 0.06793,0 0.123516,-0.14223 0.123516,-0.31608 z m 1.48219,-0.17798 c 0,-0.0679 -0.05558,-0.12352 -0.123516,-0.12352 -0.06793,0 -0.123516,0.0556 -0.123516,0.12352 0,0.0679 0.05558,0.12352 0.123516,0.12352 0.06793,0 0.123516,-0.0556 0.123516,-0.12352 z m -1.906092,-0.27789 c -0.02849,-0.15285 -0.05594,-0.31959 -0.06098,-0.37054 -0.005,-0.051 -0.06476,-0.0926 -0.132694,-0.0926 -0.172007,0 -0.154783,0.41339 0.0247,0.59287 0.2058,0.2058 0.228294,0.18854 0.168974,-0.12969 z m 0.794449,0.0309 c 0,-0.0679 -0.05558,-0.12351 -0.123516,-0.12351 -0.06793,0 -0.123515,0.0556 -0.123515,0.12351 0,0.0679 0.05558,0.12352 0.123515,0.12352 0.06793,0 0.123516,-0.0556 0.123516,-0.12352 z m -0.436247,-0.64845 c -0.02497,-0.28872 -0.04819,-0.56663 -0.05161,-0.61758 -0.0034,-0.051 -0.06179,-0.0926 -0.129726,-0.0926 -0.162045,0 -0.159031,0.69097 0.0043,0.99624 0.190156,0.35531 0.227263,0.29535 0.176986,-0.28603 z m 0.683279,0.27791 c 0,-0.0679 -0.05558,-0.12352 -0.123516,-0.12352 -0.06793,0 -0.123516,0.0556 -0.123516,0.12352 0,0.0679 0.05558,0.12351 0.123516,0.12351 0.06793,0 0.123516,-0.0556 0.123516,-0.12351 z m -0.270191,-0.36283 c 0.03088,-0.0926 -0.01544,-0.13896 -0.108076,-0.10808 -0.08916,0.0297 -0.186432,0.12699 -0.216153,0.21616 -0.03088,0.0926 0.01544,0.13895 0.108076,0.10807 0.08916,-0.0297 0.186432,-0.12699 0.216153,-0.21615 z m 0.208433,-0.37827 c 0.04199,-0.0679 0.01748,-0.12351 -0.05447,-0.12351 -0.07194,0 -0.130806,0.0556 -0.130806,0.12351 0,0.0679 0.02451,0.12352 0.05447,0.12352 0.02996,0 0.08882,-0.0556 0.130806,-0.12352 z m 1.017644,-0.2413 c 0.08288,-0.13272 0.109238,-0.26693 0.05857,-0.29825 -0.05067,-0.0313 -0.155469,0.0773 -0.232881,0.24131 -0.168409,0.35685 -0.03932,0.39902 0.174315,0.0569 z m -1.326434,-0.006 c 0,-0.0679 -0.02451,-0.12352 -0.05447,-0.12352 -0.02996,0 -0.08882,0.0556 -0.130805,0.12352 -0.04199,0.0679 -0.01748,0.12351 0.05447,0.12351 0.07194,0 0.130805,-0.0556 0.130805,-0.12351 z m -0.310984,-0.72082 c 0.07826,-0.25857 0.06182,-0.27486 -0.158421,-0.15699 -0.292145,0.15635 -0.540695,-0.0639 -0.489303,-0.43353 0.04132,-0.29721 -0.176871,-0.3734 -0.337967,-0.11801 -0.094,0.14902 -0.04797,0.26128 0.193821,0.47272 0.174402,0.15251 0.356758,0.38385 0.405235,0.5141 0.100034,0.26876 0.254758,0.1574 0.386635,-0.27829 z m 0.310984,0.28851 c 0,-0.1019 -0.05558,-0.18527 -0.123515,-0.18527 -0.06793,0 -0.123516,0.0834 -0.123516,0.18527 0,0.1019 0.05558,0.18527 0.123516,0.18527 0.06793,0 0.123515,-0.0834 0.123515,-0.18527 z m 0.741095,-0.50135 c 0,-0.10591 -0.05558,-0.15821 -0.123515,-0.11623 -0.06793,0.042 -0.123516,0.12864 -0.123516,0.19257 0,0.0639 0.05558,0.11622 0.123516,0.11622 0.06793,0 0.123515,-0.0866 0.123515,-0.19256 z m -1.235158,-0.1574 c 0,-0.16083 -0.146832,-0.26779 -0.266274,-0.19397 -0.127743,0.0789 -0.0176,0.2969 0.150048,0.2969 0.06392,0 0.116226,-0.0463 0.116226,-0.10293 z m 0.445172,-0.23417 c -0.125556,-0.12555 -0.229153,0.0635 -0.126137,0.23016 0.07782,0.12592 0.106913,0.12601 0.148751,5e-4 0.02861,-0.0858 0.01843,-0.18961 -0.02261,-0.23066 z m 0.728229,-0.404 c 0.04199,-0.0679 -0.0136,-0.12351 -0.123516,-0.12351 -0.109919,0 -0.165501,0.0556 -0.123516,0.12351 0.04199,0.0679 0.09757,0.12352 0.123516,0.12352 0.02595,0 0.08153,-0.0556 0.123516,-0.12352 z m -1.914496,-0.12351 c 0,-0.0679 -0.02451,-0.12352 -0.05447,-0.12352 -0.02996,0 -0.08882,0.0556 -0.130806,0.12352 -0.04199,0.0679 -0.01747,0.12351 0.05447,0.12351 0.07194,0 0.130805,-0.0556 0.130806,-0.12351 z m -0.41317,-0.31412 c 0.100025,-0.26066 -0.06693,-0.40139 -0.209234,-0.17637 -0.151209,0.2391 -0.148177,0.36697 0.0087,0.36697 0.07007,0 0.160306,-0.0858 0.200534,-0.1906 z m 1.45778,0.0756 c 0.03908,-0.0632 0.01457,-0.14989 -0.05447,-0.19256 -0.06904,-0.0427 -0.125531,0.009 -0.125531,0.11498 0,0.21696 0.07412,0.2489 0.179999,0.0776 z m 3.025751,-0.14263 c -0.07583,-0.14168 -0.162465,-0.23301 -0.192527,-0.20295 -0.08645,0.0864 0.08881,0.46056 0.215749,0.46056 0.0631,0 0.05265,-0.11583 -0.02322,-0.25761 z m -4.070361,0.0106 c 0,-0.0679 -0.05558,-0.12351 -0.123516,-0.12351 -0.06793,0 -0.123516,0.0556 -0.123516,0.12351 0,0.0679 0.05558,0.12352 0.123516,0.12352 0.06793,0 0.123516,-0.0556 0.123516,-0.12352 z m -0.617579,-0.37055 c 0.105521,-0.19716 0.09393,-0.24703 -0.05741,-0.24703 -0.107276,0 -0.18962,0.10728 -0.18962,0.24703 0,0.13587 0.02584,0.24704 0.05741,0.24704 0.03158,0 0.116906,-0.11117 0.18962,-0.24704 z m 0.617579,-0.33903 c 0,-0.15069 -0.03459,-0.15657 -0.185274,-0.0315 -0.1019,0.0846 -0.185274,0.23713 -0.185274,0.33903 0,0.15069 0.03459,0.15657 0.185274,0.0315 0.101901,-0.0846 0.185274,-0.23713 0.185274,-0.33903 z m 1.358674,0.33903 c 0,-0.0679 -0.05558,-0.12351 -0.123516,-0.12351 -0.06793,0 -0.123515,0.0556 -0.123515,0.12351 0,0.0679 0.05558,0.12352 0.123515,0.12352 0.06793,0 0.123516,-0.0556 0.123516,-0.12352 z m 0.494064,0 c 0,-0.0679 -0.05886,-0.12351 -0.130806,-0.12351 -0.07194,0 -0.09645,0.0556 -0.05447,0.12351 0.04199,0.0679 0.100848,0.12352 0.130805,0.12352 0.02996,0 0.05447,-0.0556 0.05447,-0.12352 z m -1.358675,-0.24703 c 0,-0.0679 -0.05558,-0.12351 -0.123515,-0.12351 -0.06793,0 -0.123516,0.0556 -0.123516,0.12351 0,0.0679 0.05558,0.12352 0.123516,0.12352 0.06793,0 0.123515,-0.0556 0.123515,-0.12352 z m -0.494063,-0.49406 c 0,-0.0679 -0.05558,-0.12352 -0.123516,-0.12352 -0.06793,0 -0.123516,0.0556 -0.123516,0.12352 0,0.0679 0.05558,0.12352 0.123516,0.12352 0.06793,0 0.123516,-0.0556 0.123516,-0.12352 z m -5.366309,-5.52733 c -0.04505,-0.18682 -0.16224,-0.40138 -0.260422,-0.4768 -0.09818,-0.0754 -0.178514,-0.21716 -0.178514,-0.314971 0,-0.0978 -0.0667,-0.24453 -0.148219,-0.32605 -0.115281,-0.11528 -0.115281,-0.14822 0,-0.14822 0.224931,0 0.172338,-0.39445 -0.09881,-0.7411 -0.26018,-0.33262 -0.318213,-0.2033 -0.130423,0.29063 0.07794,0.20499 0.06893,0.43302 -0.02716,0.6876 -0.127484,0.337741 -0.114307,0.401531 0.11631,0.563061 0.143045,0.1002 0.295283,0.32242 0.338306,0.49384 0.04302,0.17142 0.166564,0.31167 0.274535,0.31167 0.15167,0 0.177685,-0.0772 0.114403,-0.33966 z m -3.156284,0.10776 c 0,-0.0596 -0.08337,-0.17759 -0.185274,-0.26216 -0.20111,-0.1669 -0.226248,-0.12698 -0.110301,0.17517 0.07937,0.20683 0.295575,0.27045 0.295575,0.087 z m 4.199538,-0.14593 c 0,-0.0639 -0.08337,-0.11623 -0.185273,-0.11623 -0.191006,0 -0.24539,0.14575 -0.106288,0.28485 0.09868,0.0987 0.291561,-0.0129 0.291561,-0.16862 z m 3.58196,0.1308 c 0,-0.0679 -0.05886,-0.12351 -0.130805,-0.12351 -0.07194,0 -0.09645,0.0556 -0.05447,0.12351 0.04199,0.0679 0.100848,0.12352 0.130806,0.12352 0.02996,0 0.05447,-0.0556 0.05447,-0.12352 z m 1.92303,-0.0138 c 0.08974,-0.14519 -0.149412,-0.35166 -0.411008,-0.35484 -0.124524,-10e-4 -0.124756,0.0472 -0.0012,0.24514 0.174358,0.27919 0.28863,0.3096 0.412175,0.1097 z m 2.276509,0.0138 c 0,-0.0679 -0.05558,-0.12351 -0.123516,-0.12351 -0.06793,0 -0.123516,0.0556 -0.123516,0.12351 0,0.0679 0.05558,0.12352 0.123516,0.12352 0.06793,0 0.123516,-0.0556 0.123516,-0.12352 z m 3.443008,-0.0618 c 0.0374,-0.14953 -0.15501,-0.10624 -0.20586,0.0463 -0.0311,0.0934 -10e-4,0.1351 0.0669,0.0926 0.0679,-0.0425 0.13046,-0.10498 0.13895,-0.13895 z m -9.024908,-0.2167 c 0.02786,-0.14362 -0.03009,-0.17841 -0.216153,-0.12976 -0.261269,0.0683 -0.318467,0.17929 -0.169307,0.32845 0.130138,0.13014 0.342946,0.0204 0.38546,-0.19869 z m 0.81819,0.16846 c 0.07386,-0.11951 -0.529863,-0.56636 -0.629954,-0.46627 -0.03358,0.0336 9.93e-4,0.17698 0.07682,0.31866 0.141763,0.26489 0.432671,0.34252 0.553134,0.14761 z m 1.241763,-1.094281 c -0.318989,-0.59442 -0.637914,-1.13634 -0.708723,-1.20428 -0.144888,-0.139 -0.140178,-0.12485 0.328768,0.98813 0.171741,0.4076 0.27978,0.846771 0.240087,0.975931 -0.05516,0.17948 -0.02513,0.21679 0.127359,0.15827 0.10974,-0.0421 0.199528,-0.0227 0.199528,0.0431 0,0.0658 0.08842,0.11964 0.19648,0.11964 0.150411,0 0.06049,-0.25341 -0.383499,-1.080761 z m -5.110267,0.551191 c -0.100871,-0.10087 -0.137411,-0.087 -0.137411,0.052 0,0.10417 0.04053,0.22992 0.09006,0.27946 0.04953,0.0495 0.11137,0.0261 0.137412,-0.052 0.02604,-0.0781 -0.01449,-0.20388 -0.09006,-0.27946 z m 12.461202,0.15903 c 0,-0.0679 -0.0556,-0.12352 -0.12351,-0.12352 -0.0679,0 -0.12352,0.0556 -0.12352,0.12352 0,0.0679 0.0556,0.12351 0.12352,0.12351 0.0679,0 0.12351,-0.0556 0.12351,-0.12351 z m -13.784311,-0.29632 c -0.03647,-0.095 -0.0069,-0.209481 0.06564,-0.254331 0.214347,-0.13247 0.15074,-0.78925 -0.100798,-1.04079 -0.128004,-0.128 -0.298805,-0.43293 -0.379559,-0.67761 -0.214065,-0.64863 -0.335493,-0.64351 -0.411148,0.0173 -0.04999,0.43662 -0.01609,0.64088 0.134166,0.80844 0.194231,0.21661 0.203765,0.21661 0.281024,0 0.05343,-0.1498 0.09698,-0.05 0.131223,0.30073 0.02819,0.28872 0.0081,0.52494 -0.04465,0.52494 -0.157436,0 -0.108503,0.344881 0.05849,0.412271 0.269304,0.10866 0.333753,0.0866 0.265613,-0.091 z m 1.062182,-0.328581 c 0,-0.0639 -0.05558,-0.11622 -0.123516,-0.11622 -0.06793,0 -0.123516,0.0867 -0.123516,0.19256 0,0.10591 0.05558,0.15821 0.123516,0.11623 0.06793,-0.042 0.123516,-0.12864 0.123516,-0.19257 z m 13.626389,-0.80044 c 0.31786,-0.58012 0.57793,-1.11143 0.57793,-1.18069 0,-0.29075 -0.28613,0.0938 -0.77417,1.04051 -0.65803,1.276421 -0.62439,1.19494 -0.49339,1.19494 0.0614,0 0.37177,-0.47464 0.68963,-1.05476 z m -15.196255,0.58762 c -0.04229,-0.1167 -0.149086,-0.31906 -0.237329,-0.44968 -0.165033,-0.24428 -0.171362,-0.23848 -0.326433,0.29925 -0.05379,0.18653 0.386544,0.51968 0.551857,0.41751 0.04884,-0.0302 0.05419,-0.15037 0.0119,-0.26708 z m -0.95713,-0.0187 c -0.04478,-0.0725 -0.140523,-0.13173 -0.212766,-0.13173 -0.0819,0 -0.07253,0.0709 0.02489,0.18826 0.169407,0.20412 0.320811,0.15857 0.187875,-0.0565 z m 8.332241,0.17615 c 0,-0.0345 -0.319598,-0.71535 -0.710217,-1.51307 -0.639658,-1.30631 -0.714068,-1.41043 -0.74899,-1.04805 -0.0236,0.2449 0.03682,0.47795 0.154395,0.59553 0.106243,0.10624 0.193169,0.24964 0.193169,0.31867 0,0.208 0.877241,1.70959 0.998757,1.70959 0.06209,0 0.112886,-0.0282 0.112886,-0.0627 z m -8.332499,-1.72895 c -0.245233,-0.40725 -0.513386,-0.74045 -0.595897,-0.74045 -0.08251,0 -0.245438,-0.11117 -0.362062,-0.24703 -0.246987,-0.28774 -0.277887,-0.19986 -0.08137,0.23144 0.0821,0.1802 0.208353,0.27817 0.308789,0.23963 0.09345,-0.0359 0.169902,-0.004 0.169902,0.0715 0,0.0752 -0.05701,0.13673 -0.126688,0.13673 -0.146838,0 0.17797,0.68187 0.386074,0.81049 0.0942,0.0582 0.109792,-0.003 0.0494,-0.19291 -0.06364,-0.2005 -0.04687,-0.25241 0.06016,-0.18626 0.08266,0.0511 0.121463,0.23251 0.08761,0.40961 -0.03469,0.18146 0.02567,0.44985 0.140632,0.6253 l 0.201404,0.30738 0.103965,-0.36251 c 0.08678,-0.30259 0.03027,-0.48488 -0.341912,-1.10295 z m 6.848417,-1.45067 c -0.0028,-0.22666 -0.21889,-0.5306 -0.31146,-0.43803 -0.107996,0.10799 0.05404,0.59243 0.198159,0.59243 0.06336,0 0.114341,-0.0695 0.113301,-0.1544 z m -8.026638,-0.0926 c 0,-0.0679 -0.05886,-0.12351 -0.130806,-0.12351 -0.07194,0 -0.09645,0.0556 -0.05447,0.12351 0.04198,0.0679 0.100848,0.12352 0.130805,0.12352 0.02996,0 0.05447,-0.0556 0.05447,-0.12352 z m 17.916224,-0.89178 c -0.0875,-0.29075 -0.17856,-0.59812 -0.20239,-0.68304 -0.0238,-0.0849 -0.10064,-0.1544 -0.17071,-0.1544 -0.19274,0 -0.15253,0.58791 0.0627,0.91635 0.10454,0.15954 0.18133,0.33823 0.17065,0.39708 -0.0452,0.24925 0.0195,0.33199 0.15435,0.19718 0.11033,-0.11034 0.10689,-0.26953 -0.0146,-0.67317 z m -18.163256,-0.34337 c 0,-0.0679 -0.05558,-0.12352 -0.123516,-0.12352 -0.06793,0 -0.123516,0.0556 -0.123516,0.12352 0,0.0679 0.05558,0.12351 0.123516,0.12351 0.06793,0 0.123516,-0.0556 0.123516,-0.12351 z m 8.152046,-0.11342 c 0,-0.3227 -0.126448,-0.62768 -0.260247,-0.62768 -0.12625,0 -0.146311,0.38002 -0.03533,0.66924 0.104235,0.27163 0.295575,0.24473 0.295575,-0.0416 z m 11.29642,-0.37211 c 0.0391,-0.0632 0.0146,-0.14989 -0.0545,-0.19256 -0.069,-0.0427 -0.12553,0.009 -0.12553,0.11498 0,0.21695 0.0741,0.2489 0.18,0.0776 z m -11.1177,-0.67001 c -0.04509,-0.17966 -0.128261,-0.32665 -0.184821,-0.32665 -0.196187,0 -0.242036,0.22804 -0.113709,0.56557 0.163968,0.43127 0.416093,0.22949 0.29853,-0.23892 z m -1.166847,0.1747 c 0,-0.0639 -0.05558,-0.15058 -0.123516,-0.19256 -0.06793,-0.042 -0.123516,0.0103 -0.123516,0.11622 0,0.10591 0.05558,0.19257 0.123516,0.19257 0.06793,0 0.123516,-0.0523 0.123516,-0.11623 z m 0.180364,-0.51682 c -0.05607,-0.17665 -0.03859,-0.23486 0.05344,-0.17799 0.08838,0.0546 0.136748,-0.0465 0.136748,-0.28603 0,-0.2038 -0.05558,-0.4049 -0.123515,-0.44688 -0.07005,-0.0433 -0.123516,0.0605 -0.123516,0.23974 0,0.17384 -0.05558,0.31608 -0.123516,0.31608 -0.137988,0 -0.169304,0.4071 -0.04117,0.53523 0.174056,0.17406 0.301154,0.0707 0.221536,-0.18015 z m 11.596263,-0.17513 c -0.0402,-0.10483 -0.0996,-0.16411 -0.13201,-0.13174 -0.0324,0.0324 -0.0222,0.11815 0.0226,0.1906 0.1218,0.19707 0.19298,0.15878 0.10946,-0.0589 z m 0.82199,-2.27972 c 0,-0.0679 -0.0556,-0.12352 -0.12352,-0.12352 -0.0679,0 -0.12351,0.0556 -0.12351,0.12352 0,0.0679 0.0556,0.12352 0.12351,0.12352 0.0679,0 0.12352,-0.0556 0.12352,-0.12352 z m -2.28504,-6.98822 c -0.2038,-0.17021 -0.78742,-0.51076 -1.29692,-0.75678 -0.5095,-0.24602 -0.97082,-0.52163 -1.02514,-0.61245 -0.11114,-0.18581 -0.951114,-0.22916 -0.951114,-0.0491 0,0.0638 0.208434,0.13786 0.463184,0.16451 0.44181,0.0462 0.43715,0.0494 -0.1011,0.0692 -0.310352,0.0114 -0.859801,0.10852 -1.220995,0.21578 -0.558942,0.16599 -0.631239,0.22041 -0.485602,0.36553 0.311927,0.3108 3.136667,0.8877 4.432407,0.90524 l 0.55582,0.008 z m -7.459926,-0.29579 c 1.393029,-0.27004 1.638987,-0.37397 0.885033,-0.37397 -0.276115,0 -1.263614,-0.22831 -2.194441,-0.50736 l -1.692415,-0.50735 -0.779538,0.33131 c -0.909397,0.3865 -1.270596,0.62603 -1.140371,0.75626 0.152997,0.153 2.200042,0.52236 2.959191,0.53394 0.38821,0.006 1.271353,-0.0988 1.962541,-0.23283 z m 3.322141,-0.79899 c 0,-0.03 -0.05558,-0.0888 -0.123516,-0.1308 -0.06793,-0.042 -0.123516,-0.0175 -0.123516,0.0545 0,0.0719 0.05558,0.1308 0.123516,0.1308 0.06793,0 0.123516,-0.0245 0.123516,-0.0545 z"
       style="fill:#000000"
       id="path1-7" /></g></svg>
