<?xml version="1.0" encoding="UTF-8" standalone="no"?>
<!-- Created with Inkscape (http://www.inkscape.org/) -->

<svg
   width="15.349305mm"
   height="40.257774mm"
   viewBox="0 0 15.349305 40.257774"
   version="1.1"
   id="svg1"
   xml:space="preserve"
   xmlns="http://www.w3.org/2000/svg"
   xmlns:svg="http://www.w3.org/2000/svg"><defs
     id="defs1" /><g
     id="layer1"
     transform="translate(-163.4291,-28.428702)"><path
       d="m 171.37022,28.631155 c -0.0922,0.22513 -0.41665,1.41149 -1.57931,5.77436 -0.38017,1.42661 -0.781,2.84395 -0.89073,3.14965 -0.61885,1.72416 -2.09715,6.4072 -2.34406,7.42563 -0.38562,1.59062 -0.61037,4.1507 -0.52079,5.93224 0.0581,1.15508 0.0379,1.4735 -0.10047,1.58836 -0.39049,0.32408 -0.82018,1.29115 -1.10734,2.4922 -0.55492,2.32096 -0.98183,4.95053 -1.00068,6.16371 -0.0231,1.48502 -0.16555,2.50523 -0.30038,2.15091 -0.16218,-0.42615 -0.11173,0.90381 0.0773,2.03801 0.25397,1.5239 0.56799,2.0821 1.40572,2.49881 0.65007,0.32336 0.76045,0.33801 2.56246,0.33999 1.59133,0.002 1.99969,0.0424 2.63537,0.2624 1.06685,0.3692 3.12058,0.2999 3.94234,-0.13303 0.42207,-0.22237 0.85411,-0.31465 1.79546,-0.38349 1.62002,-0.11849 2.00441,-0.34586 2.4903,-1.47303 0.33714,-0.7821 0.34599,-0.86035 0.34257,-3.02614 -0.004,-2.30344 -0.14443,-3.30599 -0.80324,-5.71996 -0.25282,-0.92634 -1.30734,-3.16679 -1.93101,-4.10265 -0.19257,-0.28896 -0.43086,-0.67049 -0.52952,-0.84784 -0.26241,-0.47169 -0.31962,-3.75444 -0.13155,-7.54814 0.12091,-2.43882 0.12368,-3.47022 0.0123,-4.57008 -0.34778,-3.43327 -0.6564,-5.81999 -0.88041,-6.80866 -0.13274,-0.58584 -0.24134,-1.18234 -0.24134,-1.32555 0,-0.62636 -1.5124,-3.35172 -2.10095,-3.78593 -0.49303,-0.36375 -0.68179,-0.38535 -0.802,-0.0918 z m 1.17953,1.16471 c 1.06959,1.97123 1.89193,4.96829 2.02734,7.38875 0.0437,0.78124 0.14049,1.89288 0.21506,2.47032 0.0777,0.6017 0.14292,3.36989 0.15275,6.48458 0.009,2.98908 0.0632,5.58755 0.11941,5.77437 0.152,0.50487 -0.0844,0.41733 -0.4028,-0.14915 -0.38405,-0.68332 -0.52852,-2.17461 -0.40003,-4.12932 0.0576,-0.8756 0.0607,-1.73712 0.007,-1.9145 -0.0949,-0.31335 -0.0979,-0.31111 -0.10824,0.0789 -0.0149,0.56455 -0.25765,0.50332 -0.25765,-0.065 0,-0.87 0.26132,-2.55602 0.42524,-2.7436 0.0897,-0.10266 0.20487,-0.32561 0.2559,-0.49545 0.0914,-0.30412 0.0889,-0.30535 -0.16166,-0.0816 -0.13995,0.12494 -0.29113,0.44424 -0.33596,0.70957 -0.0448,0.26533 -0.12593,0.50988 -0.18023,0.54343 -0.10484,0.0648 -0.24582,-0.34175 -0.24864,-0.717 -9.2e-4,-0.12373 -0.0958,-0.31827 -0.21092,-0.4323 -0.19609,-0.1943 -0.20299,-0.1918 -0.10967,0.0397 0.2012,0.49916 0.43953,1.49202 0.44096,1.83698 10e-4,0.30471 -0.0252,0.33262 -0.18775,0.19776 -0.16616,-0.1379 -0.17368,-0.1162 -0.0617,0.17819 0.16257,0.42761 0.16492,1.06024 0.004,1.06024 -0.0679,0 -0.12351,-0.051 -0.12351,-0.11328 0,-0.0623 -0.11257,-0.37587 -0.25014,-0.69682 -0.40546,-0.9459 -0.39443,-0.55765 0.0126,0.44248 0.23288,0.57226 0.35898,1.07959 0.33604,1.35201 l -0.0367,0.43604 -0.36758,-0.70289 c -0.20217,-0.38659 -0.38691,-0.68356 -0.41053,-0.65994 -0.0236,0.0236 0.0459,0.21487 0.1546,0.42498 0.17502,0.33846 0.17606,0.38203 0.009,0.38203 -0.10365,0 -0.19014,-0.0695 -0.19221,-0.1544 -0.002,-0.0857 -0.0598,-0.0582 -0.12965,0.0618 -0.0901,0.15462 -0.28238,0.21616 -0.67558,0.21616 -0.30233,0 -0.54968,0.0521 -0.54968,0.11575 0,0.0637 0.19453,0.0842 0.4323,0.0456 0.33563,-0.0545 0.43231,-0.0281 0.43231,0.11806 0,0.20205 -0.24973,0.33817 -0.62039,0.33817 -0.12631,0 -0.25971,0.0486 -0.29645,0.10809 -0.0367,0.0594 0.17506,0.0808 0.47068,0.0475 0.3256,-0.0367 0.57105,-0.006 0.62262,0.0772 0.0569,0.0921 -0.0708,0.13799 -0.38533,0.13845 -0.57258,8.4e-4 -1.35839,0.20772 -1.46904,0.38676 -0.0561,0.0907 -0.01,0.0937 0.14993,0.01 0.12708,-0.0668 0.47613,-0.16212 0.77566,-0.21178 0.48361,-0.0802 0.5695,-0.0576 0.76704,0.20181 l 0.22244,0.29209 -0.0712,-0.27791 c -0.10272,-0.40078 0.18135,-0.34989 0.3447,0.0618 0.0741,0.18682 0.21731,0.49637 0.31818,0.68789 0.10086,0.19152 0.14563,0.38597 0.0995,0.43211 -0.10157,0.10158 -0.44985,-0.34636 -0.36989,-0.47574 0.031,-0.0502 -0.0124,-0.14359 -0.0966,-0.20747 -0.2107,-0.15991 -2.65326,0.12697 -2.84498,0.33414 -0.11992,0.12958 -0.10082,0.14314 0.0981,0.0696 0.57723,-0.21337 1.93128,-0.33192 2.10876,-0.18462 0.25561,0.21214 0.21639,0.36309 -0.0943,0.36309 -0.25767,0 -0.2597,0.008 -0.0423,0.16699 0.21578,0.15778 0.21081,0.1714 -0.0901,0.24692 -0.37584,0.0943 -0.73952,-0.017 -0.63071,-0.19305 0.0453,-0.0732 -0.0181,-0.0968 -0.1551,-0.0576 -0.1274,0.0364 -0.55476,0.13537 -0.94969,0.21991 -0.51318,0.10986 -0.84799,0.27402 -1.1734,0.57534 l -0.45534,0.42161 0.44427,-0.25879 c 0.52205,-0.3041 1.56464,-0.63017 1.86808,-0.58424 0.63991,0.0968 0.26943,0.57456 -0.4456,0.57456 -0.28136,0 -0.81648,0.11805 -1.18915,0.26233 -0.64081,0.24808 -1.46568,0.43477 -1.49294,0.33788 -0.007,-0.0244 -0.0869,-0.68359 -0.17783,-1.46482 -0.11251,-0.96657 -0.15028,-1.1343 -0.11821,-0.52495 0.0525,0.99793 -0.0986,1.171 -0.32353,0.37055 -0.13658,-0.48602 -0.15393,-0.50205 -0.23406,-0.21615 l -0.0865,0.30879 -0.0922,-0.33701 c -0.0891,-0.32582 0.11422,-1.91556 0.50513,-3.94867 0.10055,-0.52291 0.39909,-1.603 0.66343,-2.4002 0.26434,-0.7972 0.45491,-1.49107 0.42348,-1.54192 -0.0314,-0.0508 -0.005,-0.12439 0.0577,-0.16343 0.15766,-0.0974 0.56243,-1.00228 0.74943,-1.67531 0.0849,-0.3057 0.23031,-0.75036 0.32305,-0.98813 0.33308,-0.85396 1.28253,-4.40238 1.40458,-5.24942 0.0685,-0.47553 0.20748,-1.25368 0.3088,-1.72922 0.10132,-0.47553 0.2209,-1.1981 0.26573,-1.6057 0.16734,-1.52164 0.48059,-1.53125 1.28997,-0.0396 z m -0.61559,0.65715 c -0.0858,0.20788 -0.13138,0.67866 -0.10393,1.07245 0.048,0.68789 0.0445,0.69676 -0.17449,0.44428 -0.25187,-0.2904 -0.27851,-0.55294 -0.10298,-1.01463 0.0727,-0.19129 0.075,-0.31683 0.006,-0.31683 -0.26973,0 -0.29675,1.16696 -0.0467,2.01566 0.064,0.21722 0.0717,0.21722 0.23163,0 0.15876,-0.21563 0.16924,-0.21481 0.26026,0.0203 0.0522,0.13472 0.33405,0.58713 0.62641,1.00535 0.6685,0.9563 0.67675,1.14074 0.0187,0.41717 -0.4088,-0.44948 -0.44804,-0.47311 -0.20514,-0.12352 0.16521,0.23777 0.45769,0.64225 0.64995,0.89885 0.19226,0.2566 0.31957,0.49654 0.28291,0.5332 -0.0367,0.0367 -0.41959,-0.37587 -0.85095,-0.91673 -0.43137,-0.54086 -0.8049,-0.964 -0.83007,-0.94032 -0.0252,0.0237 0.38453,0.57803 0.91044,1.2319 0.54346,0.67569 0.90974,1.23532 0.84856,1.2965 -0.0612,0.0612 -0.47897,-0.39299 -0.9679,-1.05218 -1.14063,-1.53783 -1.24627,-1.55605 -1.35359,-0.23343 -0.0918,1.1313 -0.63585,3.41748 -0.82991,3.48734 -0.13268,0.0478 -0.34392,0.53065 -0.42961,0.98212 -0.0297,0.15667 -0.19107,0.64881 -0.35851,1.09366 -0.16744,0.44484 -0.26807,0.86764 -0.22362,0.93955 0.0444,0.0719 0.18291,-0.1979 0.3077,-0.59959 0.37164,-1.19624 0.61177,-1.78023 0.73199,-1.78023 0.19646,0 0.12396,0.47233 -0.19472,1.26849 -0.25579,0.63904 -0.26798,0.71784 -0.0718,0.46475 0.2812,-0.36288 0.60985,-1.33171 0.71367,-2.10379 0.0411,-0.3057 0.10879,-0.58361 0.15042,-0.61758 0.11901,-0.0971 0.41469,-1.26676 0.39811,-1.57483 -0.0169,-0.31317 0.13021,-0.36087 0.33857,-0.10981 0.10488,0.12637 0.0929,0.27969 -0.0483,0.61758 -0.10329,0.24721 -0.15789,0.44948 -0.12133,0.44948 0.0366,0 0.1189,-0.13789 0.18298,-0.30643 0.0811,-0.21343 0.17764,-0.28297 0.31796,-0.22912 0.17864,0.0685 0.18259,0.0438 0.0348,-0.21852 -0.0916,-0.1627 -0.26304,-0.40965 -0.38088,-0.54878 -0.11783,-0.13914 -0.24856,-0.44484 -0.29049,-0.67934 l -0.0762,-0.42637 0.32771,0.37055 0.32771,0.37055 -0.30266,-0.49407 c -0.27672,-0.45172 -0.35568,-0.93944 -0.18046,-1.11467 0.0704,-0.0704 0.93225,0.97774 1.7143,2.08498 0.41083,0.58165 0.42595,0.64503 0.50087,2.09977 0.0637,1.23645 0.0696,1.14192 0.034,-0.538 -0.0521,-2.45477 -0.24924,-3.59771 -0.91596,-5.31118 -0.27755,-0.7133 -0.54906,-1.51924 -0.60336,-1.79098 l -0.0987,-0.49406 z m -1.24295,8.09757 c 0,0.13987 -0.0532,0.22147 -0.11812,0.18132 -0.065,-0.0402 -0.0868,-0.1546 -0.0486,-0.25433 0.098,-0.25532 0.16667,-0.22523 0.16667,0.073 z m 0.74109,-3.97009 c 0,0.0623 0.0429,0.13175 0.0954,0.15439 0.0525,0.0226 0.44157,0.50315 0.86461,1.06778 0.42305,0.56464 0.76835,0.9815 0.76733,0.92637 -0.002,-0.1182 -1.58419,-2.26176 -1.66925,-2.26176 -0.032,0 -0.0581,0.051 -0.0581,0.11322 z m 0.49407,1.21902 c 0,0.0614 0.11685,0.21741 0.25967,0.34666 0.14282,0.12926 0.34146,0.39316 0.44142,0.58645 0.1,0.19329 0.21078,0.32238 0.24629,0.28688 0.0355,-0.0355 -0.10827,-0.31575 -0.3195,-0.62276 -0.39368,-0.57219 -0.62788,-0.79496 -0.62788,-0.59723 z m -2.80117,4.25685 c 0.0418,0.11888 0.0222,0.21615 -0.0436,0.21615 -0.0658,0 -0.11963,0.0834 -0.11963,0.18527 0,0.1019 -0.0442,0.18528 -0.0981,0.18528 -0.1066,0 -0.29579,0.56505 -1.01325,3.02633 -0.51467,1.76556 -0.76978,3.45323 -0.48026,3.17712 0.22823,-0.21767 0.48838,-1.54698 0.32325,-1.65178 -0.0734,-0.0466 -0.0849,-0.17595 -0.0274,-0.30879 0.0945,-0.21854 0.10137,-0.21793 0.15559,0.0136 0.0423,0.18062 0.10248,0.10689 0.23659,-0.28983 0.0989,-0.29264 0.15087,-0.56106 0.11544,-0.59649 -0.0354,-0.0354 -0.10093,0.0811 -0.14557,0.25895 -0.0446,0.17785 -0.13072,0.32336 -0.19129,0.32336 -0.0606,0 -0.11012,-0.0255 -0.11012,-0.0567 0,-0.19341 1.29297,-3.8872 1.44397,-4.12515 0.14648,-0.23084 0.15301,-0.32035 0.0315,-0.43231 -0.11851,-0.10922 -0.13598,-0.0922 -0.0771,0.075 z m -1.68455,6.4151 c -0.0394,0.0985 -0.0687,0.0693 -0.0746,-0.0746 -0.005,-0.13021 0.0238,-0.20316 0.0649,-0.16211 0.041,0.041 0.0454,0.14757 0.01,0.23673 z m 5.98549,-5.8284 c 0.001,0.1019 0.0803,0.57435 0.17603,1.04988 l 0.1741,0.86461 -0.0561,-0.74984 c -0.0494,-0.65974 -0.29904,-1.6487 -0.294,-1.16465 z m -4.46415,0.992 c 0,0.0658 0.0695,0.12141 0.15439,0.12357 0.0943,0.002 0.0703,0.0678 -0.0618,0.16801 -0.11888,0.0902 -0.21615,0.25522 -0.21615,0.36662 0,0.11139 -0.0451,0.20253 -0.10017,0.20253 -0.12146,0 -0.44847,1.22176 -0.35266,1.31757 0.068,0.068 0.45283,-0.75395 0.45283,-0.96702 0,-0.0623 0.11116,-0.33125 0.24703,-0.59758 0.29576,-0.57974 0.29511,-0.5727 0.0618,-0.66224 -0.1019,-0.0391 -0.18527,-0.0173 -0.18527,0.0485 z m 5.45419,1.84886 c 0,0.16984 0.028,0.23931 0.0623,0.1544 0.0343,-0.0849 0.0343,-0.22388 0,-0.30879 -0.0343,-0.0849 -0.0623,-0.0154 -0.0623,0.15439 z m -1.30663,0.24703 c 0.045,0.16984 0.12902,0.39217 0.18667,0.49407 0.0932,0.16468 0.10475,0.16468 0.1042,0 -3.4e-4,-0.1019 -0.0843,-0.32423 -0.18667,-0.49407 l -0.18605,-0.30879 z m 1.18312,0.61758 c 0,0.16984 0.028,0.23931 0.0623,0.1544 0.0343,-0.0849 0.0343,-0.22388 0,-0.30879 -0.0343,-0.0849 -0.0623,-0.0154 -0.0623,0.15439 z m -0.4053,-12.5631 c 0.27959,0.76202 0.33512,1.08097 0.15402,0.88468 -0.12918,-0.14 -0.63283,-1.48554 -0.63283,-1.69062 0,-0.27476 0.21518,0.0875 0.47881,0.80594 z m -3.55731,2.4348 c -0.42758,1.68122 -0.6479,2.40221 -0.83,2.71614 l -0.17983,0.31 0.0501,-0.30879 c 0.0868,-0.53474 0.82273,-3.25906 0.96765,-3.58195 0.24064,-0.53619 0.23662,-0.0969 -0.008,0.8646 z m -1.74082,5.93287 c -0.21496,0.40165 -0.30112,0.1827 -0.10942,-0.27806 0.11662,-0.28028 0.18133,-0.34067 0.20971,-0.1957 0.0226,0.11532 -0.0226,0.32851 -0.10029,0.47376 z m 6.6386,1.29281 -0.004,1.11164 -0.0902,-0.80285 c -0.0496,-0.44157 -0.0902,-1.10855 -0.0901,-1.48219 1.5e-4,-0.55397 0.0176,-0.61096 0.0945,-0.30879 0.0519,0.2038 0.0924,0.87079 0.0901,1.48219 z m -8.60876,5.52542 c -0.0765,0.49323 -0.19208,0.94972 -0.25679,1.01443 -0.14661,0.14661 -0.14633,0.12561 0.0128,-0.95798 0.15097,-1.02822 0.24096,-1.33348 0.32601,-1.10602 0.0314,0.084 -0.005,0.55635 -0.082,1.04957 z m 7.53057,-0.0389 c 0,0.25825 -0.0413,0.74131 -0.0918,1.07348 l -0.0918,0.60394 -0.0665,-0.86461 c -0.0366,-0.47554 -0.0445,-0.98903 -0.0176,-1.14109 0.0761,-0.43016 0.26772,-0.19524 0.26772,0.32828 z m -1.35867,0.33387 c 0,0.1954 -0.11131,0.2132 -0.35767,0.0572 -0.10091,-0.0639 -0.13871,-0.19693 -0.0912,-0.32081 0.066,-0.17207 0.1156,-0.18312 0.26503,-0.0591 0.1011,0.0839 0.18382,0.22912 0.18382,0.3227 z m 0.56411,0.0627 c 0.10549,0.204 0.17246,0.52007 0.14882,0.70238 -0.0388,0.29951 -0.0743,0.26617 -0.36745,-0.34579 -0.43518,-0.90835 -0.23529,-1.23438 0.21863,-0.35659 z m -0.38949,0.33728 c 0.0361,0.0585 0.034,0.13801 -0.005,0.17677 -0.0964,0.0964 -0.41688,-0.0364 -0.41688,-0.17275 0,-0.14113 0.33495,-0.14432 0.42166,-0.004 z m 0.43617,0.95702 c 0.24022,0.54307 0.24102,0.87244 0.002,0.72457 -0.095,-0.0587 -0.61256,-1.11298 -0.61256,-1.24775 0,-0.0253 0.0808,-0.0461 0.17949,-0.0461 0.0987,0 0.29281,0.25616 0.4313,0.56924 z m -0.80888,0.36827 c 0.0414,0.10804 0.0477,0.24117 0.0139,0.29585 -0.0338,0.0547 0.0216,0.1313 0.12312,0.17025 0.22349,0.0858 0.24603,0.32682 0.0302,0.32257 -0.17556,-0.004 -0.60814,-0.79896 -0.49564,-0.91146 0.12701,-0.12701 0.25025,-0.0809 0.32843,0.12279 z m -1.06538,1.0619 c -0.0269,0.0807 -0.11493,0.16869 -0.19565,0.1956 -0.0903,0.0301 -0.11786,-0.0264 -0.0717,-0.14668 0.0862,-0.22452 0.34146,-0.27123 0.26735,-0.0489 z m 0.7694,0.0386 c 0,0.1019 -0.0556,0.18528 -0.12351,0.18528 -0.0679,0 -0.12352,-0.0834 -0.12352,-0.18528 0,-0.1019 0.0556,-0.18527 0.12352,-0.18527 0.0679,0 0.12351,0.0834 0.12351,0.18527 z m 0.42703,0.0532 c 0.0391,0.0632 0.0146,0.14989 -0.0545,0.19256 -0.0691,0.0427 -0.12554,-0.009 -0.12554,-0.11498 0,-0.21695 0.0741,-0.2489 0.18,-0.0776 z m -6.23605,1.18194 c 0,0.60327 -0.0362,0.80861 -0.11974,0.67933 -0.0658,-0.1019 -0.11973,-0.57434 -0.11973,-1.04988 0,-0.60327 0.0362,-0.80861 0.11973,-0.67934 0.0659,0.1019 0.11974,0.57435 0.11974,1.04989 z m 5.53549,-0.69709 c 0.0259,0.0777 -0.0687,0.14127 -0.21024,0.14127 -0.14153,0 -0.29825,0.0139 -0.34827,0.0309 -0.05,0.017 -0.10902,-0.063 -0.1311,-0.17766 -0.0311,-0.16147 0.0369,-0.20032 0.30118,-0.17214 0.18774,0.02 0.36253,0.1 0.38843,0.17765 z m 0.49226,-0.005 c 0.0269,0.0807 -0.0391,0.14668 -0.14668,0.14668 -0.10756,0 -0.19556,-0.088 -0.19556,-0.19557 0,-0.21812 0.2659,-0.18013 0.34224,0.0489 z m -1.82443,0.094 c 0,0.11502 -0.084,0.17803 -0.20592,0.1544 -0.30987,-0.0601 -0.35242,-0.34873 -0.0514,-0.34873 0.15172,0 0.25733,0.0797 0.25733,0.19433 z m 0.46318,-0.0399 c -0.0283,0.0849 -0.0978,0.1544 -0.15439,0.1544 -0.0566,0 -0.12609,-0.0695 -0.1544,-0.1544 -0.0283,-0.0849 0.0412,-0.15439 0.1544,-0.15439 0.11322,0 0.1827,0.0695 0.15439,0.15439 z m 2.09151,0.1158 c -0.0394,0.0985 -0.0687,0.0693 -0.0746,-0.0746 -0.005,-0.13021 0.0238,-0.20316 0.0649,-0.16212 0.041,0.041 0.0454,0.14758 0.01,0.23674 z m -3.57113,0 c -0.0269,0.0807 -0.11493,0.16869 -0.19565,0.19559 -0.0903,0.0301 -0.11786,-0.0264 -0.0717,-0.14667 0.0862,-0.22452 0.34146,-0.27123 0.26735,-0.0489 z m 0.39886,0.0459 c 0,0.10591 -0.0556,0.15821 -0.12352,0.11622 -0.0679,-0.042 -0.12351,-0.12863 -0.12351,-0.19256 0,-0.0639 0.0556,-0.11623 0.12351,-0.11623 0.0679,0 0.12352,0.0867 0.12352,0.19257 z m -0.98813,0.17798 c 0,0.0679 -0.0834,0.12352 -0.18527,0.12352 -0.1019,0 -0.18528,-0.0556 -0.18528,-0.12352 0,-0.0679 0.0834,-0.12351 0.18528,-0.12351 0.1019,0 0.18527,0.0556 0.18527,0.12351 z m 2.6839,0.0746 c -0.041,0.041 -0.14758,0.0454 -0.23674,0.01 -0.0985,-0.0394 -0.0693,-0.0687 0.0746,-0.0746 0.13021,-0.005 0.20316,0.0238 0.16212,0.0649 z m -3.54851,0.16512 c 0,0.0639 -0.0556,0.15058 -0.12352,0.19256 -0.0679,0.042 -0.12351,-0.0103 -0.12351,-0.11622 0,-0.10591 0.0556,-0.19257 0.12351,-0.19257 0.0679,0 0.12352,0.0523 0.12352,0.11623 z m 1.54395,0.13081 c 0.042,0.0679 0.0175,0.12351 -0.0545,0.12351 -0.0719,0 -0.13081,-0.0556 -0.13081,-0.12351 0,-0.0679 0.0245,-0.12352 0.0545,-0.12352 0.03,0 0.0888,0.0556 0.13081,0.12352 z m 3.24467,0.24902 c 0.29032,0.12842 0.77976,0.4144 1.08766,0.63551 0.62212,0.44677 0.55862,0.54358 -0.37982,0.57912 -0.27174,0.0103 -0.66081,0.0673 -0.86462,0.12658 l -0.37054,0.10787 0.37054,0.15112 c 0.20381,0.0831 0.49671,0.15959 0.6509,0.16995 0.16974,0.0114 0.27176,0.0919 0.2586,0.20411 -0.0349,0.29715 0.22697,0.82401 0.45253,0.91056 0.12438,0.0477 0.17824,0.15605 0.13439,0.2703 -0.0419,0.1091 -0.0209,0.15837 0.0489,0.11518 0.0682,-0.0422 0.12952,0.0776 0.13892,0.2715 0.0141,0.29129 0.0254,0.30237 0.0704,0.0691 0.0809,-0.41988 0.28286,-0.33299 0.28713,0.12351 0.003,0.33556 0.0247,0.36554 0.13111,0.18268 0.17233,-0.29601 0.39808,-0.14645 0.23602,0.15637 -0.0681,0.12728 -0.12033,0.33234 -0.11602,0.45569 0.006,0.18157 0.0291,0.17136 0.11953,-0.0536 0.0614,-0.15285 0.17635,-0.27791 0.25537,-0.27791 0.13787,0 0.12322,0.23109 -0.0705,1.11164 -0.0688,0.31257 -7.6e-4,0.19192 0.20888,-0.37055 l 0.11509,-0.30879 0.16487,0.30676 c 0.10802,0.20098 0.12611,0.3792 0.0524,0.51682 -0.14332,0.26781 -0.144,0.46742 -8.2e-4,0.24136 0.19619,-0.30974 0.41025,-0.0166 0.32392,0.44356 -0.0604,0.32206 -0.0428,0.40689 0.07,0.33719 0.14164,-0.0875 0.13003,0.12685 -0.0554,1.02248 -0.0587,0.28363 -0.18177,0.30113 -0.53201,0.0757 l -0.35038,-0.22557 0.34474,0.41648 c 0.41762,0.50453 0.33857,0.66638 -0.12315,0.25214 l -0.33325,-0.29898 0.33374,0.4109 c 0.36479,0.44914 0.45424,0.76924 0.1427,0.51068 -0.38215,-0.31715 -0.71412,-0.88194 -0.57054,-0.97068 0.0864,-0.0534 -0.14291,-0.3835 -0.61327,-0.88271 -0.41321,-0.43858 -0.67797,-0.65846 -0.58835,-0.48862 0.0896,0.16983 0.15342,0.34362 0.14178,0.38619 -0.0116,0.0426 0.0926,0.37606 0.23164,0.74109 0.62243,1.63417 0.96077,3.10696 0.59227,2.57819 -0.18543,-0.26606 -0.01,0.58325 0.20908,1.012 0.21071,0.41247 -0.0214,0.63212 -0.28834,0.27291 -0.1607,-0.21621 -0.16813,-0.20537 -0.0928,0.13553 0.045,0.2038 0.12999,0.55986 0.18879,0.79126 0.0588,0.23139 0.0844,0.45708 0.057,0.50153 -0.0275,0.0445 0.25164,0.41095 0.62025,0.81444 0.71067,0.77792 0.78567,0.9189 0.48884,0.9189 -0.1019,0 -0.18527,0.0556 -0.18527,0.12352 0,0.0679 0.11116,0.12352 0.24703,0.12352 0.13587,0 0.24703,-0.0544 0.24703,-0.12087 0,-0.0739 0.11854,-0.0669 0.30513,0.0182 1.11762,0.50922 1.40912,-2.29223 0.60853,-5.84817 -0.0531,-0.23565 -0.13306,-0.3123 -0.27792,-0.26626 -0.17145,0.0545 -0.1749,0.0445 -0.022,-0.0637 0.15691,-0.11095 0.14179,-0.2338 -0.11165,-0.90715 -0.16123,-0.42835 -0.31943,-0.99996 -0.35155,-1.27026 -0.0321,-0.27029 -0.14084,-0.61725 -0.2416,-0.77102 -0.10075,-0.15377 -0.15102,-0.36338 -0.11172,-0.4658 0.0453,-0.11813 -7.8e-4,-0.18623 -0.1261,-0.18623 -0.15765,0 -0.18305,-0.0893 -0.12577,-0.44234 0.0609,-0.37513 0.0448,-0.41993 -0.1059,-0.29487 -0.22802,0.18924 -0.36568,-0.1123 -0.25414,-0.55669 0.0626,-0.24934 0.039,-0.2908 -0.12869,-0.22645 -0.17044,0.0654 -0.19126,0.0229 -0.12269,-0.25032 0.049,-0.19519 0.0314,-0.3291 -0.0433,-0.3291 -0.0692,0 -0.12587,0.0834 -0.12587,0.18527 0,0.10191 -0.0523,0.18528 -0.11622,0.18528 -0.22429,0 -0.25129,-0.22463 -0.069,-0.57385 0.17452,-0.33426 0.16809,-0.36425 -0.12417,-0.57898 -0.32848,-0.24133 -0.40349,-0.45288 -0.16059,-0.45288 0.16539,0 0.84049,0.61048 0.84049,0.76004 0,0.0529 0.21192,0.42411 0.47092,0.82485 0.25901,0.40073 0.57152,1.00011 0.69446,1.33196 0.12294,0.33184 0.41633,1.02022 0.65197,1.52972 0.76727,1.65899 1.14776,3.71169 1.14475,6.17579 -0.003,2.08104 -0.34361,3.11391 -1.19244,3.61109 -0.3367,0.19721 -0.43471,0.19986 -1.22225,0.033 -0.47091,-0.0998 -0.89646,-0.18234 -0.94566,-0.18352 -0.0492,-10e-4 -0.17828,-0.17388 -0.28682,-0.38378 -0.18985,-0.36713 -0.2064,-0.37344 -0.43548,-0.16613 -0.26595,0.24069 -0.32231,0.0616 -0.0951,-0.30216 0.18664,-0.29887 0.0529,-0.65231 -0.2088,-0.55187 -0.16858,0.0647 -0.1859,0.008 -0.11444,-0.37263 0.0704,-0.37544 0.0493,-0.44886 -0.12921,-0.44886 -0.22439,0 -0.22395,0.0771 0.0124,2.16875 l 0.0706,0.6248 -1.27637,0.25583 c -1.57388,0.31546 -2.89517,0.19965 -3.46877,-0.30403 -0.27118,-0.23813 -0.2805,-0.41549 -0.0165,-0.31419 0.17223,0.0661 0.17919,0.0384 0.0507,-0.20178 -0.082,-0.15311 -0.12077,-0.38631 -0.0863,-0.51822 0.0345,-0.13191 -0.0102,-0.38035 -0.0993,-0.55209 -0.16173,-0.31173 -0.16255,-0.31107 -0.47904,0.38024 -0.25439,0.55565 -0.408,0.73051 -0.77733,0.88482 -0.75429,0.31516 -1.68851,0.35819 -2.35843,0.10861 -1.02318,-0.38119 -1.3142,-0.82568 -1.49653,-2.28571 -0.0794,-0.63629 -0.1048,-3.95642 -0.0296,-3.88183 0.0677,0.0671 0.70288,-2.45324 0.81161,-3.22033 0.11517,-0.81252 0.90695,-3.98556 1.07637,-4.31353 0.18,-0.34845 1.23204,-1.29404 1.44735,-1.30091 0.0955,-0.003 0.35382,-0.14298 0.57406,-0.31096 0.5599,-0.42706 1.41146,-0.59043 2.71077,-0.52007 l 1.11164,0.0602 -0.89549,-0.12854 c -1.37307,-0.19708 -1.1233,-0.39232 0.37029,-0.28945 0.80456,0.0554 1.45811,0.17225 1.79362,0.32067 z m -0.77436,0.24504 c 0.33956,0.14591 0.53458,0.14591 0.30879,0 -0.1019,-0.0658 -0.26864,-0.11668 -0.37054,-0.11294 -0.12217,0.005 -0.10113,0.043 0.0618,0.11294 z m -1.85273,0.61758 c -0.13587,0.0584 -0.44201,0.11006 -0.68032,0.11483 -0.23831,0.005 -0.69432,0.14764 -1.01335,0.31747 -0.31903,0.16984 -0.65917,0.30879 -0.75587,0.30879 -0.0967,0 -0.24024,0.0776 -0.31899,0.17253 -0.0788,0.0949 -0.2523,0.14398 -0.38567,0.10911 -0.13406,-0.0351 -0.24249,-0.002 -0.24249,0.0745 0,0.0759 0.0556,0.13792 0.12352,0.13792 0.0679,0 0.12351,0.0624 0.12351,0.13864 0,0.0988 -0.0455,0.10086 -0.15853,0.007 -0.18723,-0.15539 -0.38202,-0.0504 -0.5004,0.26963 -0.0664,0.17953 -0.12252,0.199 -0.25552,0.0886 -0.1403,-0.11644 -0.19582,0.007 -0.31408,0.69631 -0.079,0.46076 -0.22379,1.11121 -0.32175,1.44545 -0.0979,0.33424 -0.16272,0.62308 -0.14393,0.64187 0.0188,0.0188 0.16907,-0.22688 0.33396,-0.54594 0.16489,-0.31907 0.42247,-0.73156 0.57238,-0.91665 0.14992,-0.18509 0.33725,-0.53248 0.41629,-0.77197 0.079,-0.2395 0.21248,-0.43545 0.29653,-0.43545 0.084,0 0.24558,-0.19453 0.35897,-0.4323 0.21022,-0.44084 0.37805,-0.53674 0.52454,-0.29972 0.0513,0.0829 0.14912,0.0367 0.26133,-0.12351 0.12244,-0.17482 0.31438,-0.25611 0.60468,-0.25611 0.23392,0 0.4253,-0.0556 0.4253,-0.12351 0,-0.0679 -0.0648,-0.12352 -0.1441,-0.12352 -0.27394,0 0.0137,-0.15673 0.35621,-0.1941 0.68819,-0.0751 1.13952,-0.18863 1.21128,-0.30475 0.0875,-0.14156 -0.0366,-0.13997 -0.3735,0.005 z m 2.16152,5.05686 c 0,0.0639 0.055,0.15018 0.12211,0.19169 0.07,0.0433 0.0907,-0.006 0.0485,-0.11623 -0.0821,-0.21398 -0.17065,-0.25313 -0.17065,-0.0755 z m -0.86461,0.43524 c 0,0.0541 0.20318,0.38117 0.45151,0.72683 0.24832,0.34565 0.58541,0.92094 0.74907,1.27842 0.16366,0.35748 0.34779,0.68102 0.40919,0.71896 0.11909,0.0736 -0.058,-0.36668 -0.40951,-1.01786 -0.28741,-0.5325 -1.20026,-1.83025 -1.20026,-1.70635 z m 1.58982,0.83808 c 0.32003,0.59143 0.51776,1.14713 0.58235,1.63659 0.0538,0.4076 0.11904,0.61521 0.14504,0.46135 0.026,-0.15386 0.0989,-0.24784 0.16194,-0.20886 0.15115,0.0934 0.14643,0.0538 -0.0652,-0.5459 -0.17405,-0.49331 -1.15473,-2.23867 -1.25786,-2.23867 -0.028,0 0.16718,0.40298 0.43369,0.89549 z m -1.88564,-0.12351 c 0.0491,0.0849 0.18445,0.29335 0.30076,0.46318 0.1163,0.16984 0.50133,0.80903 0.85562,1.42044 0.35428,0.6114 0.60616,0.98221 0.55973,0.82401 -0.0915,-0.31174 -1.6467,-2.86203 -1.74531,-2.86203 -0.0331,0 -0.0199,0.0695 0.0292,0.1544 z m 2.52289,0.15439 c 0,0.0679 0.0539,0.20689 0.11973,0.30879 0.0659,0.1019 0.11974,0.12969 0.11974,0.0618 0,-0.0679 -0.0539,-0.20689 -0.11974,-0.30879 -0.0658,-0.1019 -0.11973,-0.12969 -0.11973,-0.0618 z m -3.21091,0.25321 c 0.006,0.17277 1.24041,1.81644 1.3109,1.74595 0.033,-0.0331 -0.20312,-0.413 -0.52482,-0.84435 -0.7319,-0.98135 -0.79149,-1.0497 -0.78608,-0.9016 z m -5.41672,0.39173 c -0.0122,0.21885 -0.15728,0.7032 -0.3223,1.07635 -0.27518,0.62223 -0.2803,0.66611 -0.0618,0.52963 0.13106,-0.0819 0.23828,-0.23549 0.23828,-0.34143 0,-0.10594 0.0589,-0.25156 0.13099,-0.3236 0.072,-0.072 0.10985,-0.40276 0.084,-0.73492 -0.0295,-0.37926 -0.0553,-0.4559 -0.0692,-0.20603 z m 8.88334,0.0344 c -0.005,0.034 0.13159,0.42304 0.30263,0.86461 0.17105,0.44157 0.27702,0.63611 0.2355,0.43231 -0.071,-0.34849 -0.52003,-1.43067 -0.53813,-1.29692 z m -3.5309,0.43231 c 0.1048,0.2038 0.55233,0.89857 0.99453,1.54394 0.44219,0.64537 0.8347,1.29444 0.87224,1.44238 0.081,0.31906 0.41651,0.4914 0.41651,0.21392 0,-0.10378 -0.0556,-0.15433 -0.12351,-0.11235 -0.0679,0.042 -0.12352,-0.004 -0.12352,-0.10314 0,-0.17123 -1.10435,-1.88505 -1.65398,-2.56678 -0.14328,-0.17772 -0.33078,-0.42784 -0.41667,-0.55582 -0.0859,-0.12799 -0.0704,-0.0659 0.0344,0.13785 z m -0.0584,0.92636 c 0.2621,0.5094 1.26469,1.98276 1.315,1.93246 0.0257,-0.0257 -0.2419,-0.48493 -0.59469,-1.02048 -0.68881,-1.04564 -0.9765,-1.40988 -0.72031,-0.91198 z m 1.71255,0.59497 c 0.25917,0.50801 0.62912,0.89336 0.62912,0.65532 0,-0.0763 -0.0545,-0.13864 -0.121,-0.13864 -0.0666,0 -0.23443,-0.22233 -0.37306,-0.49407 -0.13863,-0.27173 -0.27984,-0.49406 -0.31381,-0.49406 -0.034,0 0.0465,0.21215 0.17875,0.47145 z m 2.13594,-0.16266 c 0,0.13587 0.0445,0.38599 0.0989,0.55582 0.0783,0.24451 0.0989,0.25737 0.0989,0.0618 0,-0.13587 -0.0445,-0.38599 -0.0989,-0.55582 -0.0783,-0.24451 -0.0989,-0.25737 -0.0989,-0.0618 z m -3.56932,0.9921 c 0.86303,1.21898 1.05947,1.54958 1.20429,2.02682 l 0.0959,0.31601 0.0111,-0.30879 c 0.0113,-0.31414 -0.98566,-1.89107 -1.71801,-2.71735 -0.21075,-0.23777 -0.0277,0.0697 0.40669,0.68331 z m 3.23478,-0.74507 c 0.13987,0.96958 0.36575,1.95065 0.39813,1.72922 0.0199,-0.13586 -0.0736,-0.66389 -0.20772,-1.1734 -0.13412,-0.5095 -0.21981,-0.75962 -0.19041,-0.55582 z m -9.57136,0.15779 c 0,0.12075 -0.0924,0.35698 -0.20536,0.52494 -0.19546,0.29067 -0.18769,0.28902 0.16116,-0.0343 0.20158,-0.18681 0.40516,-0.33967 0.45239,-0.33967 0.20559,0 0.0585,0.37413 -0.23907,0.60822 -0.19936,0.15682 -0.34279,0.40887 -0.37112,0.65217 l -0.0462,0.39657 0.48349,-0.47211 c 0.26591,-0.25966 0.54408,-0.43466 0.61815,-0.38888 0.18017,0.11135 0.17098,0.0565 -0.0733,-0.43732 -0.31652,-0.63988 -0.78017,-0.94275 -0.78017,-0.50964 z m 0.30879,1.01561 c -0.12371,0.1367 -0.25272,0.22076 -0.28668,0.18679 -0.034,-0.034 0.0395,-0.1736 0.16317,-0.3103 0.12371,-0.1367 0.25272,-0.22076 0.28669,-0.18679 0.034,0.034 -0.0395,0.1736 -0.16318,0.3103 z m 5.51524,-0.0309 c 0.58071,0.63215 1.33989,1.8765 1.33989,2.19616 0,0.0998 0.0795,0.18152 0.17669,0.18152 0.0972,0 0.20077,0.12506 0.23021,0.27791 0.038,0.19718 0.0584,0.15919 0.0703,-0.1308 0.0103,-0.25011 -0.0321,-0.37847 -0.10929,-0.33078 -0.0694,0.0429 -0.21055,-0.12417 -0.31376,-0.37119 -0.27082,-0.64817 -1.40055,-2.16249 -1.61328,-2.16249 -0.0511,0 0.0476,0.15285 0.21919,0.33967 z m 1.66729,0.33571 c -0.0383,0.0997 -0.0164,0.21417 0.0486,0.25433 0.065,0.0402 0.11812,-0.0414 0.11812,-0.18132 0,-0.29824 -0.0687,-0.32833 -0.16667,-0.073 z m -7.27516,0.32696 c -0.18682,0.13939 -0.33967,0.31299 -0.33967,0.38578 0,0.0728 0.10164,0.0404 0.22588,-0.0721 0.12423,-0.11243 0.30487,-0.20265 0.40142,-0.20049 0.17027,0.004 -0.0646,0.23717 -0.47911,0.4761 -0.0883,0.0509 -0.18252,0.33891 -0.20931,0.64 -0.0376,0.42232 -0.0196,0.49612 0.0788,0.32288 0.0701,-0.12351 0.30327,-0.33174 0.5181,-0.46273 0.24998,-0.15242 0.31539,-0.23832 0.18171,-0.23862 -0.11487,-2.5e-4 -0.24321,0.0551 -0.2852,0.12306 -0.042,0.0679 -0.16682,0.12351 -0.27743,0.12351 -0.15157,0 -0.11367,-0.0912 0.15392,-0.37055 0.19525,-0.2038 0.4247,-0.37054 0.50988,-0.37054 0.24034,0 0.33025,-0.23856 0.16497,-0.43772 -0.1907,-0.22977 -0.23431,-0.22426 -0.64397,0.0814 z m 5.3069,-0.001 c 0.0411,0.16276 0.36269,0.74057 0.71474,1.28404 0.67494,1.0419 0.85997,1.42043 0.69436,1.42043 -0.14203,0 -0.50933,-0.42461 -0.50933,-0.5888 0,-0.0754 -0.1726,-0.32112 -0.38356,-0.54609 l -0.38356,-0.40905 0.061,0.37054 c 0.15997,0.97217 0.37003,1.8704 0.47661,2.03802 0.0928,0.14591 0.10539,0.13279 0.0594,-0.0618 -0.18847,-0.7968 -0.2102,-1.04989 -0.0901,-1.04989 0.0714,0 0.21995,0.30982 0.33003,0.6885 0.11009,0.37867 0.2229,0.66574 0.25071,0.63794 0.0278,-0.0278 -0.0275,-0.30983 -0.12286,-0.62674 -0.0954,-0.3169 -0.13188,-0.57618 -0.0811,-0.57618 0.14255,0 0.46759,0.40423 0.54624,0.67933 0.0388,0.13587 0.0472,-0.0448 0.0186,-0.40142 -0.0492,-0.61324 0.0995,-0.89945 0.22459,-0.43231 0.30738,1.14747 0.40403,1.38956 0.55475,1.38956 0.11758,0 0.14134,-0.068 0.0755,-0.21616 -0.0528,-0.11888 -0.11961,-0.4486 -0.1485,-0.7327 -0.0386,-0.37996 -0.0984,-0.49894 -0.22602,-0.44997 -0.10364,0.0398 -0.1735,-0.0116 -0.1735,-0.12756 0,-0.10678 -0.10478,-0.25022 -0.23283,-0.31875 -0.12805,-0.0685 -0.26807,-0.26502 -0.31114,-0.43665 -0.0431,-0.17163 -0.13142,-0.31205 -0.19631,-0.31205 -0.0649,0 -0.2021,-0.15285 -0.3049,-0.33967 -0.1028,-0.18681 -0.35126,-0.52841 -0.55214,-0.75909 -0.32474,-0.37294 -0.35695,-0.38663 -0.29058,-0.12352 z m 0.6136,2.11005 c -0.0394,0.0985 -0.0687,0.0693 -0.0746,-0.0746 -0.005,-0.1302 0.0238,-0.20315 0.0649,-0.16211 0.041,0.041 0.0454,0.14758 0.01,0.23674 z m 3.86813,-1.25831 c 0,0.0679 0.0589,0.12351 0.1308,0.12351 0.0719,0 0.0965,-0.0556 0.0545,-0.12351 -0.042,-0.0679 -0.10085,-0.12352 -0.1308,-0.12352 -0.03,0 -0.0545,0.0556 -0.0545,0.12352 z m -1.93572,0.92637 c 5.4e-4,0.47553 0.0229,0.65493 0.0496,0.39867 0.0267,-0.25627 0.0263,-0.64534 -0.001,-0.86461 -0.0273,-0.21927 -0.0492,-0.01 -0.0486,0.46594 z m 0.49054,-0.0618 c 0,0.37363 0.0232,0.52648 0.0515,0.33966 0.0283,-0.18681 0.0283,-0.49251 0,-0.67933 -0.0283,-0.18682 -0.0515,-0.034 -0.0515,0.33967 z m -8.16753,-0.2082 c -0.3498,0.37235 -0.34842,0.53925 0.002,0.21301 0.14868,-0.13852 0.31543,-0.25185 0.37055,-0.25185 0.0551,0 0.10023,-0.0556 0.10023,-0.12351 0,-0.20484 -0.18838,-0.14012 -0.47254,0.16235 z m 10.59898,0.51787 c 0.4919,0.59241 0.53329,0.63062 0.39896,0.36828 -0.07,-0.13663 -0.2574,-0.35856 -0.41654,-0.49318 -0.27916,-0.23614 -0.27854,-0.23174 0.0176,0.1249 z m -5.54661,0.13292 c 0.006,0.14389 0.0352,0.17316 0.0746,0.0746 0.0357,-0.0892 0.0313,-0.19569 -0.01,-0.23673 -0.0411,-0.041 -0.0702,0.0319 -0.0649,0.16211 z m -5.22586,0.24458 c -0.14614,0.14614 1.24597,1.66011 1.52527,1.65878 0.0939,-4.5e-4 0.013,-0.10474 -0.17962,-0.23175 -0.44649,-0.29438 -1.08559,-1.06563 -1.04187,-1.2573 0.0371,-0.16257 -0.18619,-0.28732 -0.30378,-0.16973 z m 5.36656,0.30092 c -0.001,0.16983 0.0422,0.44774 0.0966,0.61758 0.0775,0.24196 0.0984,0.25533 0.0966,0.0618 -10e-4,-0.13587 -0.0447,-0.41378 -0.0966,-0.61758 -0.0847,-0.33284 -0.0945,-0.33912 -0.0966,-0.0618 z m 3.09212,0.30879 c 0.001,0.27173 0.0267,0.36835 0.0562,0.21471 0.0296,-0.15364 0.0284,-0.37597 -0.002,-0.49406 -0.0309,-0.11809 -0.0551,0.008 -0.0537,0.27935 z m -0.50113,0 c 0.003,0.2038 0.0302,0.27222 0.0615,0.15204 0.0313,-0.12017 0.0292,-0.28692 -0.005,-0.37054 -0.0338,-0.0836 -0.0595,0.0147 -0.0569,0.2185 z m -5.21175,-14.58216 c 0,0.13037 -0.23704,0.18514 -0.30754,0.0711 -0.0427,-0.069 0.009,-0.12553 0.11498,-0.12553 0.10591,0 0.19256,0.0245 0.19256,0.0545 z m 6.97865,1.30421 c -0.042,0.0679 -0.12864,0.12351 -0.19256,0.12351 -0.0639,0 -0.11623,-0.0556 -0.11623,-0.12351 0,-0.0679 0.0866,-0.12352 0.19256,-0.12352 0.10591,0 0.15822,0.0556 0.11623,0.12352 z m 0.30879,0.56611 c 0,0.10756 -0.066,0.17357 -0.14668,0.14668 -0.22902,-0.0763 -0.26701,-0.34225 -0.0489,-0.34225 0.10756,0 0.19557,0.088 0.19557,0.19557 z m -9.37771,1.23457 c -0.13,0.53813 -0.26975,1.13127 -0.31055,1.31809 -0.0408,0.18682 -0.12978,0.33967 -0.19771,0.33967 -0.0706,0 -0.0914,-0.14551 -0.0484,-0.33967 0.2016,-0.9121 0.41768,-1.73282 0.54105,-2.05514 0.24776,-0.64724 0.25602,-0.25801 0.0156,0.73705 z m -0.75059,3.57226 c 0,0.16983 -0.0556,0.30878 -0.12352,0.30878 -0.0679,0 -0.12351,-0.13895 -0.12351,-0.30878 0,-0.16984 0.0556,-0.30879 0.12351,-0.30879 0.0679,0 0.12352,0.13895 0.12352,0.30879 z m 10.32727,0.64471 c -0.10593,0.10556 -0.56952,-0.40295 -0.56952,-0.62471 0,-0.0758 0.14991,0.012 0.33312,0.19521 0.18322,0.18322 0.2896,0.37649 0.2364,0.4295 z m 0.10282,0.43265 c 0.29437,0.42028 0.22876,0.54392 -0.11652,0.21955 -0.16983,-0.15955 -0.30879,-0.33598 -0.30879,-0.39208 0,-0.19522 0.23429,-0.10018 0.42531,0.17253 z m 1.55095,0.1505 c 0,0.03 -0.0556,0.0888 -0.12352,0.13081 -0.0679,0.042 -0.12351,0.0175 -0.12351,-0.0545 0,-0.0719 0.0556,-0.13081 0.12351,-0.13081 0.0679,0 0.12352,0.0245 0.12352,0.0545 z m -1.35868,0.56311 c 0,0.0679 -0.0556,0.12352 -0.12351,0.12352 -0.0679,0 -0.12352,-0.0556 -0.12352,-0.12352 0,-0.0679 0.0556,-0.12351 0.12352,-0.12351 0.0679,0 0.12351,0.0556 0.12351,0.12351 z m 0.73072,0.35745 c 0.20951,0.26453 0.38093,0.5087 0.38093,0.5426 0,0.17387 -0.37394,0.17044 -0.51592,-0.005 -0.11856,-0.14628 -0.12104,-0.17617 -0.009,-0.10888 0.26912,0.16168 0.16669,-0.11425 -0.15439,-0.41588 -0.28951,-0.27198 -0.30879,-0.27504 -0.30879,-0.049 0,0.13259 0.0814,0.35731 0.18091,0.49936 0.0995,0.14206 0.15099,0.28822 0.11441,0.3248 -0.10153,0.10153 0.30934,0.83056 0.46809,0.83056 0.08,0 0.0523,-0.0964 -0.0649,-0.22588 -0.11243,-0.12424 -0.20279,-0.30488 -0.2008,-0.40143 0.002,-0.10276 0.15577,-0.008 0.37055,0.22783 0.36029,0.39608 0.49882,0.7426 0.2306,0.57683 -0.075,-0.0463 -0.0372,0.067 0.0839,0.25186 0.16722,0.25521 0.18835,0.38716 0.0878,0.54821 -0.0886,0.14194 -0.0922,0.284 -0.0108,0.42946 0.17264,0.30849 -0.01,0.43157 -0.2178,0.147 -0.10681,-0.14607 -0.13031,-0.28824 -0.0614,-0.37132 0.0703,-0.0847 0.001,-0.31737 -0.18673,-0.62771 -0.16416,-0.2712 -0.29875,-0.42166 -0.29909,-0.33436 -3.5e-4,0.0873 0.0858,0.2906 0.19135,0.45175 0.27576,0.42086 0.009,0.51491 -0.3102,0.1093 -0.14383,-0.18285 -0.23205,-0.40923 -0.19604,-0.50307 0.036,-0.0938 -0.0215,-0.33885 -0.12786,-0.54448 -0.10634,-0.20563 -0.16243,-0.45442 -0.12465,-0.55288 0.0378,-0.0985 0.003,-0.28454 -0.0778,-0.41353 -0.11487,-0.18394 -0.10994,-0.30279 0.0229,-0.55094 0.0931,-0.17403 0.21086,-0.31641 0.26161,-0.31641 0.0507,0 0.26368,0.21643 0.47319,0.48095 z m 1.39228,0.58478 c -0.15444,0.27598 -0.31291,0.004 -0.20176,-0.34587 0.0749,-0.23586 0.0975,-0.24274 0.19938,-0.0607 0.0695,0.12429 0.0705,0.28482 0.002,0.40653 z m -0.33202,0.29293 c -0.042,0.0679 -0.12864,0.12352 -0.19256,0.12352 -0.0639,0 -0.11623,-0.0556 -0.11623,-0.12352 0,-0.0679 0.0867,-0.12351 0.19257,-0.12351 0.10591,0 0.15821,0.0556 0.11622,0.12351 z m -1.63033,0.74623 c 0.0427,0.16316 0.0145,0.23874 -0.0777,0.2084 -0.0796,-0.0262 -0.16324,-0.17448 -0.18594,-0.32955 -0.05,-0.34172 0.16894,-0.24111 0.26367,0.12115 z m 1.54027,-0.15181 c 0.0741,0.22231 -0.1812,0.1756 -0.26735,-0.0489 -0.0462,-0.12029 -0.0186,-0.17676 0.0717,-0.14667 0.0807,0.0269 0.16876,0.11492 0.19565,0.19559 z m 0.64588,0.0304 c 0,0.0639 -0.0556,0.11623 -0.12351,0.11623 -0.0679,0 -0.12352,-0.0866 -0.12352,-0.19256 0,-0.10591 0.0556,-0.15821 0.12352,-0.11623 0.0679,0.042 0.12351,0.12864 0.12351,0.19256 z m -0.37054,0.42502 c 0,0.16983 -0.0479,0.30879 -0.10639,0.30879 -0.0585,0 -0.0798,-0.13896 -0.0474,-0.30879 0.0325,-0.16983 0.0803,-0.30879 0.10639,-0.30879 0.026,0 0.0474,0.13896 0.0474,0.30879 z m 0.49406,0.31608 c 0,0.13988 -0.0556,0.21997 -0.12352,0.17798 -0.0679,-0.042 -0.12351,-0.15643 -0.12351,-0.25432 0,-0.0979 0.0556,-0.17798 0.12351,-0.17798 0.0679,0 0.12352,0.11444 0.12352,0.25432 z m -0.59897,0.45589 c 0.0951,1.10502 0.0736,1.39379 -0.0937,1.25496 -0.20019,-0.16615 -0.22987,-0.48298 -0.0452,-0.48298 0.0719,0 0.043,-0.1619 -0.0668,-0.37418 -0.18942,-0.3663 -0.16081,-0.61395 0.0709,-0.61395 0.0639,0 0.1246,0.0973 0.13484,0.21615 z m -1.76446,0.22246 c 0.039,0.20147 0.0182,0.21054 -0.1544,0.0673 -0.23607,-0.19592 -0.26546,-0.42491 -0.0451,-0.35155 0.0849,0.0283 0.1747,0.1562 0.19952,0.28427 z m 0.81515,0.12793 c 0.11514,0.17573 0.18187,0.34698 0.1483,0.38055 -0.12878,0.12878 -0.57627,-0.22638 -0.57627,-0.45737 0,-0.33555 0.1788,-0.30345 0.42797,0.0768 z m 1.54828,-0.12694 c 0,0.10591 -0.0556,0.15821 -0.12352,0.11622 -0.0679,-0.042 -0.12351,-0.12864 -0.12351,-0.19256 0,-0.0639 0.0556,-0.11623 0.12351,-0.11623 0.0679,0 0.12352,0.0866 0.12352,0.19257 z m -2.27996,0.43323 c 0.13293,0.2151 -0.0185,0.26065 -0.18788,0.0565 -0.0974,-0.11739 -0.10679,-0.18826 -0.0249,-0.18826 0.0722,0 0.16799,0.0593 0.21277,0.13173 z m 1.20649,0.52401 c -0.038,0.0614 -0.11402,0.039 -0.16898,-0.05 -0.055,-0.0889 -0.0688,-0.21196 -0.0309,-0.2734 0.038,-0.0615 0.11402,-0.039 0.16898,0.05 0.055,0.0889 0.0688,0.21196 0.0309,0.2734 z m -0.30836,-0.0459 c 0.0309,0.0926 -0.0154,0.13896 -0.10808,0.10808 -0.0892,-0.0297 -0.18643,-0.12699 -0.21615,-0.21615 -0.0309,-0.0926 0.0154,-0.13896 0.10807,-0.10808 0.0892,0.0297 0.18644,0.12699 0.21616,0.21615 z m -0.73457,0.1993 c 0.039,0.20147 0.0182,0.21054 -0.1544,0.0673 -0.23607,-0.19592 -0.26546,-0.42491 -0.0451,-0.35155 0.0849,0.0283 0.1747,0.1562 0.19952,0.28427 z m 0.72945,0.27941 c 0.0319,0.0957 -0.0299,0.11794 -0.17756,0.064 -0.21575,-0.0789 -0.21546,-0.0702 0.006,0.18228 0.12796,0.14578 0.26928,0.24243 0.31403,0.21477 0.0447,-0.0277 0.0894,0.057 0.0993,0.18819 0.01,0.13116 -0.0237,0.23847 -0.0746,0.23847 -0.18861,0 -0.62844,-0.7331 -0.55486,-0.92484 0.083,-0.21644 0.31025,-0.19466 0.38752,0.0372 z m 0.74343,0.0951 c 0.0334,0.22073 0.0243,0.22243 -0.13399,0.0249 -0.12925,-0.16126 -0.20418,-0.17748 -0.31373,-0.0679 -0.10239,0.10239 -0.14392,0.10412 -0.14392,0.006 0,-0.34332 0.53921,-0.30961 0.59164,0.037 z m -2.81492,1.28668 c 0,0.0679 -0.0556,0.12352 -0.12352,0.12352 -0.0679,0 -0.12352,-0.0556 -0.12352,-0.12352 0,-0.0679 0.0556,-0.12351 0.12352,-0.12351 0.0679,0 0.12352,0.0556 0.12352,0.12351 z"
       style="fill:#000000"
       id="path1-6" /></g></svg>
