<?xml version="1.0" encoding="UTF-8" standalone="no"?>
<!-- Created with Inkscape (http://www.inkscape.org/) -->

<svg
   width="21.279257mm"
   height="37.694569mm"
   viewBox="0 0 21.279257 37.694569"
   version="1.1"
   id="svg1"
   xml:space="preserve"
   xmlns="http://www.w3.org/2000/svg"
   xmlns:svg="http://www.w3.org/2000/svg"><defs
     id="defs1" /><g
     id="layer1"
     transform="translate(-110.30125,-103.23814)"><path
       d="m 123.01175,140.77385 c -1.19783,-0.19172 -2.11752,-0.41584 -2.53208,-0.61706 -0.54716,-0.26557 -1.40208,-0.30088 -2.78556,-0.11503 -1.82205,0.24476 -3.92767,0.3549 -4.7709,0.24955 -1.80823,-0.22593 -2.63132,-1.72202 -2.62188,-4.76568 0.007,-2.22128 0.59447,-5.23371 1.43348,-7.34919 1.57818,-3.97921 1.68803,-4.6074 1.19876,-6.85513 -0.62059,-2.85101 -0.63464,-2.97614 -0.64467,-5.74348 l -0.01,-2.71735 0.39019,-1.11164 c 0.2146,-0.61141 0.53614,-1.52851 0.71452,-2.03802 0.71568,-2.04411 2.42256,-5.07882 3.34761,-5.95178 0.87641,-0.82705 1.44654,-0.64463 1.16342,0.37226 -0.37088,1.33205 -0.50608,2.41063 -0.52135,4.15909 -0.009,1.01901 -0.0223,2.51973 -0.0298,3.33493 -0.013,1.4099 0.14828,2.28504 0.42099,2.28504 0.0527,0 0.15906,-0.36295 0.23631,-0.80656 0.19619,-1.12662 1.48909,-3.95404 2.48343,-5.43099 0.18294,-0.27173 0.47409,-0.77197 0.647,-1.11164 0.1729,-0.33967 0.5163,-0.81147 0.76309,-1.04846 0.62033,-0.59565 0.69332,-0.42209 0.67465,1.60428 -0.008,0.91711 0.0497,2.55678 0.12919,3.64372 0.0795,1.08694 0.15476,2.26275 0.16724,2.61292 0.0125,0.35016 0.0644,0.6109 0.11533,0.57941 0.051,-0.0315 0.0926,0.39247 0.0926,0.94213 0,0.98938 0.22598,1.85606 0.48396,1.85606 0.16214,0 0.93357,-1.20522 1.29474,-2.02279 0.15375,-0.34804 0.31603,-0.8998 0.36061,-1.22613 0.0446,-0.32633 0.27916,-1.00518 0.52127,-1.50855 0.34634,-0.72006 0.42352,-1.00418 0.36194,-1.33238 -0.043,-0.22944 -0.009,-0.66223 0.0748,-0.96177 0.0842,-0.29953 0.16722,-1.12822 0.18446,-1.84152 0.0299,-1.23903 0.31127,-3.38724 0.46351,-3.53948 0.0397,-0.0397 0.26386,-0.0362 0.49819,0.008 0.53877,0.10108 0.74322,0.41253 1.07528,1.63806 0.14415,0.53199 0.36732,1.30075 0.49595,1.70835 0.67685,2.14487 0.61716,3.96038 -0.27612,8.39908 -0.62052,3.08332 -0.62134,3.09064 -0.55648,4.94063 0.0698,1.9907 0.0995,2.11272 1.09907,4.50833 2.02644,4.85691 2.87694,9.65132 2.19353,12.36535 -0.10265,0.40768 -0.31732,0.73044 -0.81051,1.2186 -0.36898,0.36522 -0.67087,0.70319 -0.67087,0.75106 0,0.0479 -0.20064,0.24005 -0.44585,0.42709 -0.40106,0.3059 -0.61514,0.3565 -2.13065,0.50362 -2.03953,0.19798 -2.9797,0.19519 -4.27863,-0.0127 z m 5.49032,-0.60693 c 0.7765,-0.28425 0.99426,-0.51886 0.99426,-1.07118 0,-0.61524 -0.16815,-0.69406 -0.63772,-0.29895 -0.34476,0.2901 -1.47451,0.92838 -1.64322,0.92838 -0.0362,0 -0.0615,-0.0973 -0.0561,-0.21615 0.005,-0.11888 0.036,-0.15216 0.068,-0.0739 0.039,0.0952 0.25004,0.037 0.63871,-0.17622 0.57147,-0.31349 1.59606,-1.13905 1.41455,-1.13976 -0.0511,-2e-4 -0.0967,-0.18369 -0.10123,-0.40775 -0.004,-0.22407 -0.0486,-0.51259 -0.0979,-0.64116 -0.0792,-0.20641 -0.12022,-0.18399 -0.35039,0.1916 -0.1478,0.24117 -0.28367,0.35851 -0.31377,0.27098 -0.0292,-0.0849 -0.10994,-0.1544 -0.17942,-0.1544 -0.12856,0 -1.08652,0.70682 -1.2272,0.90549 -0.0433,0.0612 -0.10625,0.062 -0.14344,0.002 -0.0925,-0.14968 0.18301,-0.47501 0.40227,-0.47501 0.0999,0 0.24381,-0.12473 0.31981,-0.27718 0.076,-0.15245 0.17047,-0.2449 0.20993,-0.20544 0.0395,0.0395 0.16709,-0.0738 0.28362,-0.25162 0.11653,-0.17785 0.18046,-0.35477 0.14206,-0.39317 -0.0896,-0.0896 -1.19881,0.66976 -1.19881,0.82067 0,0.0625 -0.0829,0.0819 -0.18423,0.043 -0.10214,-0.0392 -0.21577,0.0115 -0.25501,0.11375 -0.0425,0.11076 -0.16627,0.15946 -0.30983,0.12192 -0.2624,-0.0686 -0.29453,0.0488 -0.13217,0.4832 0.0588,0.15727 0.0627,0.39712 0.009,0.53298 -0.082,0.2062 -0.0996,0.18457 -0.10688,-0.13078 -0.005,-0.2078 -0.0955,-0.48572 -0.20162,-0.61758 -0.18108,-0.22503 -0.18892,-0.20941 -0.1277,0.2543 l 0.0652,0.49406 -0.17552,-0.37054 c -0.0965,-0.20381 -0.17802,-0.50242 -0.18109,-0.66359 -0.005,-0.24973 0.0225,-0.26976 0.18418,-0.13556 0.16725,0.13882 0.18002,0.0967 0.10773,-0.35542 -0.0532,-0.33275 -0.0356,-0.5129 0.05,-0.5129 0.18375,0 0.2984,0.21497 0.1602,0.30038 -0.12697,0.0785 -0.0363,0.56423 0.10533,0.56423 0.0496,0 0.26542,-0.0874 0.47966,-0.19432 0.30561,-0.15246 0.38952,-0.27313 0.38952,-0.56016 0,-0.32758 -0.0258,-0.35202 -0.24703,-0.23364 -0.13586,0.0727 -0.24872,0.25531 -0.25078,0.40577 -0.004,0.25476 -0.0129,0.25785 -0.13658,0.045 -0.15461,-0.266 -0.21832,-1.43893 -0.0782,-1.43893 0.0522,0 0.095,0.19126 0.095,0.42502 0,0.52512 0.14641,0.63198 0.43261,0.31574 0.20154,-0.2227 0.20258,-0.24769 0.0134,-0.3203 -0.13599,-0.0522 -0.1662,-0.12599 -0.0895,-0.21873 0.17652,-0.21352 0.0174,-0.81871 -0.21645,-0.82307 -0.17771,-0.003 -0.17599,-0.0188 0.0144,-0.12965 0.11888,-0.0692 0.21615,-0.21577 0.21615,-0.32562 0,-0.10985 0.0386,-0.16115 0.0857,-0.11401 0.0471,0.0471 0.0729,0.30201 0.0573,0.56639 -0.0156,0.26437 0.0316,0.51776 0.10498,0.56309 0.21682,0.134 0.45279,-0.15497 0.42724,-0.52322 -0.0158,-0.2279 -0.006,-0.24928 0.0293,-0.0641 0.063,0.33077 0.13706,0.34206 0.51356,0.0783 0.19111,-0.13385 0.244,-0.24048 0.16065,-0.32384 -0.0684,-0.0684 -0.097,-0.19525 -0.0637,-0.282 0.11235,-0.29278 -0.22439,-0.33713 -0.57749,-0.0761 l -0.35067,0.25926 0.0698,-0.42998 c 0.0658,-0.40559 -0.093,-0.59504 -0.26521,-0.31638 -0.0386,0.0625 -0.32112,0.25384 -0.62779,0.42525 -0.71367,0.39887 -0.62346,0.25047 0.18107,-0.29788 0.41465,-0.28261 0.62548,-0.51297 0.62563,-0.68358 4e-4,-0.4264 -0.12814,-0.43039 -0.72568,-0.0225 -0.31405,0.21437 -0.49527,0.29622 -0.40271,0.18189 0.0925,-0.11434 0.3537,-0.32248 0.58032,-0.46254 0.22662,-0.14006 0.44377,-0.35463 0.48255,-0.47681 0.0388,-0.12219 0.2084,-0.28498 0.37693,-0.36177 0.16853,-0.0768 0.30641,-0.22418 0.30641,-0.32754 0,-0.26817 -0.14439,-0.23508 -0.69168,0.15853 -0.83217,0.59849 -0.87576,0.57412 -0.15073,-0.0842 0.75904,-0.68926 1.52595,-1.5961 1.43051,-1.69153 -0.0326,-0.0326 -0.40691,0.27567 -0.83181,0.68503 -0.4249,0.40936 -0.81942,0.74429 -0.8767,0.74429 -0.0573,0 0.17222,-0.25852 0.51003,-0.5745 0.59472,-0.5563 0.77063,-0.94139 0.2121,-0.46433 -0.21752,0.18579 -0.20398,0.14403 0.0637,-0.19633 0.68393,-0.86967 0.97372,-1.34739 0.89482,-1.47506 -0.12403,-0.20068 -0.34894,-0.15493 -0.26853,0.0546 0.0391,0.1019 0.014,0.18528 -0.0558,0.18528 -0.0698,0 -0.10083,0.0422 -0.0689,0.0938 0.0319,0.0516 -0.16395,0.34341 -0.4352,0.64846 -0.27125,0.30505 -0.45235,0.47126 -0.40245,0.36936 0.0499,-0.1019 0.17457,-0.28288 0.27704,-0.40219 0.2206,-0.25682 0.10602,-0.43794 -0.14516,-0.22947 -0.37109,0.30797 -1.35436,0.73319 -1.87646,0.81149 -0.46466,0.0697 -0.53587,0.053 -0.47307,-0.11066 0.0467,-0.12175 0.006,-0.19269 -0.11115,-0.19269 -0.10181,0 -0.21998,-0.13895 -0.2626,-0.30879 -0.12083,-0.48143 -0.36397,-0.38164 -0.28318,0.11623 0.0642,0.39535 0.0502,0.41812 -0.19999,0.3263 -0.19811,-0.0727 -0.27918,-0.21923 -0.30776,-0.55619 -0.0534,-0.62963 -0.341,-0.51054 -0.30268,0.12533 0.0226,0.37527 0.004,0.42754 -0.084,0.23536 -0.0622,-0.13586 -0.11693,-0.39988 -0.12171,-0.5867 -0.006,-0.22238 -0.0755,-0.33966 -0.20228,-0.33966 -0.13461,0 -0.17224,0.0753 -0.12351,0.24703 0.0385,0.13587 0.0998,0.35233 0.13603,0.48104 0.048,0.17029 0.006,0.22914 -0.1544,0.21615 -0.16404,-0.0133 -0.23833,-0.15881 -0.29074,-0.56952 -0.11454,-0.89755 0.11291,-1.51317 0.31907,-0.86361 0.0572,0.18036 0.14757,0.23076 0.31711,0.17695 0.14189,-0.045 0.23707,-0.017 0.23707,0.0698 0,0.0798 0.0798,0.11443 0.1773,0.077 0.0975,-0.0374 0.19559,-0.0131 0.21795,0.0539 0.0224,0.0671 0.41312,0.15333 0.86834,0.19166 1.5713,0.13227 3.19812,-0.60343 3.87019,-1.75023 0.41777,-0.71288 0.37147,-1.29234 -0.24883,-3.11389 -0.23663,-0.69489 -0.49346,-1.62645 -0.57072,-2.07014 -0.15541,-0.89244 -0.0867,-3.85279 0.12472,-5.37429 0.24082,-1.73303 0.2659,-1.97625 0.20373,-1.97625 -0.0342,0 -0.17608,0.38262 -0.31536,0.85028 -0.13927,0.46766 -0.33616,0.91912 -0.43753,1.00325 -0.2002,0.16615 -0.25848,-6e-4 -0.0672,-0.19225 0.0644,-0.0645 0.31966,-0.75653 0.56722,-1.53777 0.38991,-1.23048 0.46497,-1.66819 0.56127,-3.27317 0.0611,-1.019 0.0767,-2.17151 0.0346,-2.56111 -0.0496,-0.45879 -0.0212,-0.84197 0.0805,-1.0875 0.13152,-0.31754 0.12447,-0.48335 -0.0434,-1.02084 -0.11025,-0.35295 -0.29282,-0.94743 -0.40571,-1.32107 -0.21278,-0.70427 -0.59639,-1.35867 -0.79647,-1.35867 -0.19669,0 -0.12627,0.35202 0.0952,0.47597 0.17372,0.0972 0.1829,0.15074 0.0527,0.30757 -0.21348,0.25722 -0.50067,1.82762 -0.63601,3.47776 -0.29873,3.64222 -1.08817,6.27985 -2.42537,8.10346 -1.24267,1.69471 -2.16425,2.70417 -2.46874,2.70417 -0.1786,0 -0.29115,-0.0728 -0.29115,-0.18839 0,-0.18095 1.35779,-1.74309 1.69492,-1.95 0.13067,-0.0802 0.11658,-0.16011 -0.0701,-0.39743 -0.17147,-0.21799 -0.25664,-0.60221 -0.32002,-1.44357 -0.0475,-0.63058 -0.19304,-1.67455 -0.32341,-2.31992 -0.20419,-1.01078 -0.23299,-1.6313 -0.20779,-4.47747 0.0161,-1.81724 -0.0138,-3.30406 -0.0664,-3.30405 -0.0526,2e-5 -0.14331,0.12509 -0.20151,0.27794 -0.0582,0.15285 -0.41488,0.78507 -0.79263,1.40494 -0.93882,1.54061 -1.9363,3.46156 -1.9363,3.72896 0,0.12128 -0.0504,0.27331 -0.11194,0.33785 -0.0616,0.0645 -0.28389,0.63464 -0.49406,1.26689 -0.39477,1.18758 -0.51302,2.42995 -0.23994,2.52098 0.0782,0.0261 0.16846,0.36419 0.20057,0.75138 0.0733,0.88349 0.2679,0.92006 0.29558,0.0555 l 0.0208,-0.64846 0.0719,0.73148 c 0.0438,0.44531 0.13603,0.7526 0.23586,0.78546 0.12941,0.0426 0.1444,-0.0726 0.0711,-0.5462 -0.0511,-0.33011 -0.0931,-0.68357 -0.0934,-0.78547 -0.001,-0.54631 0.0559,-0.86461 0.15559,-0.86461 0.0616,0 0.11636,0.42081 0.12165,0.93514 0.005,0.51433 0.0504,1.00067 0.10031,1.08076 0.0499,0.0801 0.0752,0.26538 0.0563,0.41174 -0.0189,0.14636 0.0324,0.3074 0.11408,0.35786 0.11409,0.0705 0.13244,-0.30552 0.0793,-1.62479 -0.059,-1.46547 -0.0514,-1.58104 0.0524,-0.79016 0.0669,0.5095 0.0939,1.52388 0.0601,2.25416 -0.0362,0.78079 -0.0142,1.3278 0.0534,1.3278 0.0632,0 0.11493,-0.14293 0.11493,-0.31761 0,-0.17469 0.0779,-0.39549 0.17305,-0.49067 0.18535,-0.18535 0.18201,-0.68011 -0.0135,-2.00171 -0.0628,-0.42458 -0.0688,-0.77197 -0.0134,-0.77197 0.0555,0 0.10084,0.27791 0.10084,0.61758 0,0.37233 0.0548,0.61758 0.13791,0.61758 0.0927,0 0.12109,-0.26402 0.0867,-0.80476 -0.0282,-0.44261 -0.01,-0.73071 0.0408,-0.64022 0.0506,0.0905 0.10556,0.61938 0.12205,1.1753 0.0228,0.76861 0.0713,1.01077 0.20249,1.01077 0.14409,0 0.15786,-0.31548 0.0835,-1.91449 -0.065,-1.3972 -0.0512,-1.9145 0.0511,-1.9145 0.077,0 0.14647,-0.15285 0.15428,-0.33967 0.0216,-0.51749 0.19149,0.43422 0.29791,1.6693 0.0484,0.56146 0.1369,1.05109 0.19671,1.08805 0.23304,0.14403 0.071,-2.21491 -0.22015,-3.20512 -0.0409,-0.13894 -0.018,-0.20066 0.0571,-0.15426 0.0688,0.0426 0.16346,0.36911 0.21026,0.72569 0.0468,0.35657 0.16317,0.77142 0.2586,0.92188 0.20085,0.31665 0.23046,0.77632 0.05,0.77632 -0.0679,0 -0.12351,0.13896 -0.12351,0.30879 0,0.16984 0.0417,0.2949 0.0926,0.27791 0.17414,-0.058 0.1813,0.2166 0.0346,1.3278 -0.20149,1.52658 -0.32256,1.75897 -0.27634,0.53043 0.044,-1.1687 -0.14842,-1.13624 -0.2859,0.0482 -0.0871,0.75067 -0.30614,0.99421 -0.30614,0.34043 0,-0.22044 -0.0515,-0.34604 -0.12351,-0.3015 -0.1645,0.10166 -0.1577,0.59574 0.0105,0.76395 0.15173,0.15173 -0.17129,0.90351 -0.38821,0.90351 -0.0684,0 -0.17459,0.12506 -0.23603,0.27791 l -0.11171,0.27791 -0.008,-0.27791 c -0.004,-0.15285 0.0477,-0.27791 0.11569,-0.27791 0.0679,0 0.12351,-0.2534 0.12351,-0.56311 0,-0.34396 -0.0481,-0.5334 -0.12351,-0.48677 -0.0679,0.042 -0.12386,0.17032 -0.12428,0.2852 -4.2e-4,0.11487 -0.0838,0.36806 -0.18527,0.56265 -0.23902,0.4583 -0.23548,0.81961 0.008,0.81961 0.10591,0 0.15681,0.0578 0.11312,0.12854 -0.0437,0.0707 -0.19142,0.093 -0.32827,0.0496 -0.2118,-0.0672 -0.23852,-0.0358 -0.17954,0.21113 0.0531,0.22234 0.036,0.21076 -0.0734,-0.0496 -0.0785,-0.18682 -0.18235,-0.33967 -0.23081,-0.33967 -0.0485,0 -0.0607,-0.10489 -0.0271,-0.23309 0.0335,-0.1282 -0.008,-0.27567 -0.0921,-0.32771 -0.11705,-0.0723 -0.13357,0.0274 -0.0702,0.42376 0.0981,0.6132 0.32928,1.02654 0.53095,0.94915 0.0794,-0.0305 0.17762,0.0311 0.21818,0.13677 0.0588,0.15319 0.22419,0.18132 0.81492,0.13859 0.50135,-0.0363 0.7006,-0.0131 0.6158,0.0717 -0.17379,0.1738 -0.15937,0.4821 0.0174,0.37282 0.10267,-0.0635 0.12221,0.0386 0.0695,0.36326 -0.0923,0.56909 0.1805,0.6236 0.40527,0.081 0.0844,-0.2038 0.19769,-0.37054 0.25172,-0.37054 0.1819,0 0.20958,0.3065 0.0558,0.61757 -0.24231,0.49007 -0.33379,0.86462 -0.21117,0.86462 0.0621,0 0.17733,-0.12506 0.256,-0.27792 l 0.14304,-0.27791 -0.0707,0.27791 c -0.0415,0.16294 -0.0144,0.27792 0.0654,0.27792 0.094,0 0.0985,0.0704 0.0145,0.22733 -0.0669,0.12504 -0.12369,0.33347 -0.12617,0.46319 -0.0169,0.88717 -0.17478,2.47684 -0.25441,2.56251 -0.0529,0.0569 -0.0682,-0.14433 -0.0341,-0.44709 0.0748,-0.66316 -0.12546,-0.85419 -0.38795,-0.37017 -0.1024,0.18883 -0.18775,0.28775 -0.18965,0.21982 -0.002,-0.0679 0.13691,-0.36908 0.30846,-0.6692 0.23173,-0.40539 0.27308,-0.56968 0.16085,-0.63904 -0.11796,-0.0729 -0.11565,-0.13604 0.0105,-0.28806 0.0889,-0.10707 0.11309,-0.19294 0.0538,-0.1908 -0.0593,0.002 -0.21499,0.15086 -0.34605,0.3305 -0.20594,0.28227 -0.21014,0.31581 -0.0309,0.24703 0.25452,-0.0977 0.25904,0.0192 0.0133,0.34435 -0.15859,0.20986 -0.20303,0.21925 -0.29941,0.0633 -0.0784,-0.12679 -0.0165,-0.34812 0.20109,-0.71939 0.31441,-0.5365 0.32911,-1.13428 0.0279,-1.13428 -0.0916,0 -0.0859,0.0607 0.0175,0.18527 0.12578,0.15155 0.11781,0.18527 -0.0438,0.18527 -0.10865,0 -0.28974,0.14069 -0.4024,0.31265 -0.11267,0.17195 -0.22773,0.28977 -0.25568,0.26181 -0.028,-0.028 0.11853,-0.30176 0.32552,-0.60846 0.20699,-0.30671 0.37634,-0.61906 0.37634,-0.69413 0,-0.28704 -0.19703,-0.1151 -0.48056,0.41934 -0.16217,0.3057 -0.34472,0.55582 -0.40566,0.55582 -0.0609,0 0.0302,-0.20744 0.20243,-0.46097 0.33099,-0.48709 0.38245,-0.65067 0.20472,-0.65067 -0.0597,0 -0.1781,0.16794 -0.26312,0.3732 -0.085,0.20526 -0.20847,0.4065 -0.27434,0.44721 -0.0659,0.0407 -0.0586,-0.0402 0.0161,-0.1798 0.20731,-0.38735 0.16319,-0.45649 -0.12542,-0.19657 -0.20246,0.18233 -0.17423,0.0874 0.12543,-0.42185 0.21269,-0.36143 0.35033,-0.71599 0.30588,-0.78792 -0.0444,-0.0719 -0.26695,0.196 -0.49444,0.59539 -0.22749,0.39939 -0.41234,0.67058 -0.41078,0.60265 0.002,-0.0679 0.0823,-0.26247 0.17935,-0.43231 0.26023,-0.45523 0.23169,-0.7468 -0.0387,-0.3954 -0.14308,0.18595 -0.29031,0.25637 -0.42662,0.20406 -0.18562,-0.0712 -0.17504,-0.12327 0.0977,-0.48086 0.41001,-0.53756 0.38757,-0.64382 -0.15733,-0.74494 -0.55304,-0.10262 -0.84202,-0.34107 -1.15388,-0.95211 -0.34566,-0.67726 -0.82889,-2.65934 -1.03887,-4.26118 -0.10206,-0.77853 -0.25053,-1.53665 -0.32993,-1.68471 -0.0967,-0.18036 -0.16113,-1.43107 -0.19512,-3.78941 -0.0478,-3.31483 -0.0347,-3.58699 0.2248,-4.66496 0.15154,-0.62962 0.24367,-1.17662 0.20473,-1.21556 -0.18148,-0.18147 -0.57766,0.15757 -1.20106,1.02781 -1.60242,2.23696 -1.7926,2.6064 -2.72073,5.28502 -0.75562,2.18075 -1.08498,6.24199 -0.67583,8.33333 0.21677,1.10799 0.29293,1.48916 0.44501,2.22727 0.13337,0.64731 0.35321,3.23652 0.28453,3.35109 -0.0257,0.0429 -0.0546,0.44195 -0.0643,0.88688 -0.0142,0.65525 0.0324,0.87244 0.24523,1.14302 0.14452,0.18373 0.26276,0.40993 0.26276,0.50267 0,0.0927 0.0491,0.16862 0.10912,0.16862 0.17419,0 0.23499,-0.56407 0.15021,-1.39356 -0.0432,-0.42238 -0.0424,-0.93472 0.002,-1.13852 0.0441,-0.2038 0.0868,-0.27328 0.0949,-0.15439 0.0197,0.29176 0.26164,0.27714 0.26164,-0.0158 0,-0.12758 -0.10483,-0.30822 -0.23295,-0.40142 -0.15116,-0.10997 -0.25858,-0.38629 -0.30594,-0.78704 -0.0665,-0.56306 -0.0569,-0.59641 0.10944,-0.37782 0.16893,0.22202 0.18242,0.22334 0.18242,0.0178 0,-0.12206 -0.14069,-0.38914 -0.31265,-0.59349 -0.1799,-0.21381 -0.28454,-0.46012 -0.24645,-0.58014 0.0364,-0.11471 -0.0157,-0.31681 -0.11573,-0.44912 -0.21029,-0.27805 -0.24618,-0.47526 -0.0663,-0.36406 0.21419,0.13237 0.13424,-0.19346 -0.14687,-0.59852 l -0.27038,-0.38961 0.26723,0.23244 c 0.14698,0.12784 0.30044,0.33708 0.34104,0.46498 0.0406,0.12789 0.12154,0.20303 0.17989,0.16697 0.0584,-0.0361 0.141,-0.009 0.18367,0.06 0.0427,0.069 -0.009,0.12553 -0.11498,0.12553 -0.21799,0 -0.24775,0.21896 -0.0672,0.49407 0.10811,0.16468 0.13514,0.16468 0.24325,0 0.0947,-0.14427 0.12204,-0.10674 0.12351,0.16952 0.002,0.30144 -0.026,0.33167 -0.18338,0.20102 -0.15127,-0.12554 -0.18527,-0.11827 -0.18527,0.0396 0,0.10637 0.1022,0.26603 0.22712,0.3548 0.14057,0.0999 0.25811,0.39062 0.30846,0.76295 0.0736,0.54406 0.0623,0.58575 -0.11785,0.43624 -0.17295,-0.14354 -0.19228,-0.13329 -0.14673,0.0778 0.0289,0.1337 0.11863,0.2292 0.19952,0.21222 0.0809,-0.017 0.14706,0.0457 0.14706,0.13927 0,0.0936 0.0917,0.24629 0.20388,0.33936 0.18585,0.15424 0.19721,0.12007 0.12844,-0.3863 -0.0415,-0.30553 -0.10309,-0.88901 -0.1369,-1.29661 -0.0531,-0.64004 -0.0463,-0.67372 0.0497,-0.24703 0.0612,0.27173 0.11438,0.67934 0.1183,0.90578 0.005,0.27327 0.059,0.39382 0.16151,0.35849 0.1704,-0.0587 0.18163,-0.31293 0.0586,-1.32603 -0.0568,-0.4675 -0.0465,-0.59316 0.033,-0.40298 0.12437,0.29768 0.298,2.66734 0.17653,2.40934 -0.12358,-0.26247 -0.2992,-0.0371 -0.29506,0.37861 0.003,0.35413 0.0206,0.3722 0.16801,0.17799 0.0902,-0.11889 0.22467,-0.21616 0.29873,-0.21616 0.0741,0 0.19129,-0.0973 0.26053,-0.21615 0.0692,-0.11888 0.12759,-0.1573 0.12966,-0.0854 0.002,0.0719 -0.0778,0.23868 -0.17759,0.37055 -0.23202,0.30676 -0.23779,0.47011 -0.0135,0.38406 0.13801,-0.053 0.17288,0.0614 0.16269,0.53363 -0.007,0.33056 0.0495,0.67626 0.1258,0.76821 0.13603,0.16391 0.23024,1.22967 0.1383,1.56456 -0.0256,0.0934 0.0226,0.19524 0.10728,0.22628 0.10799,0.0396 0.14828,-0.0869 0.13507,-0.42418 -0.0104,-0.26434 0.047,-0.5885 0.12747,-0.72034 0.13213,-0.21649 0.14299,-0.20485 0.11197,0.12005 -0.0196,0.20491 0.0321,0.38213 0.12004,0.41172 0.0898,0.0302 0.1544,-0.0527 0.1544,-0.19809 0,-0.13752 0.0578,-0.28576 0.12846,-0.32943 0.0833,-0.0515 0.10031,0.0328 0.0484,0.23974 -0.0924,0.36835 0.0314,0.41578 0.26881,0.10299 0.15627,-0.20586 0.16427,-0.20586 0.16801,0 0.002,0.1223 0.0978,0.21584 0.22008,0.21544 0.25877,-8.6e-4 1.55174,-0.20805 1.92645,-0.3087 0.22887,-0.0615 0.2229,-0.0455 -0.0428,0.11461 -0.16984,0.10233 -0.41119,0.18802 -0.53634,0.19043 -0.12515,0.002 -0.3699,0.11634 -0.54388,0.2532 -0.29206,0.22973 -0.33885,0.23408 -0.60967,0.0566 -0.3479,-0.22795 -0.57343,-0.13212 -0.46834,0.19901 0.042,0.13228 0.017,0.23664 -0.0567,0.23664 -0.0725,0 -0.13184,-0.11117 -0.13184,-0.24703 0,-0.37971 -0.24506,-0.29295 -0.26164,0.0926 l -0.0146,0.33967 -0.0792,-0.37055 c -0.0951,-0.44475 -0.32087,-0.38361 -0.33119,0.0897 -0.004,0.1852 -0.0419,0.37128 -0.0841,0.41351 -0.11828,0.11827 0.0366,0.42317 0.21499,0.42317 0.0874,0 0.19379,0.0911 0.23651,0.20242 0.0675,0.17594 0.23081,0.19194 1.24838,0.12237 0.9543,-0.0653 1.1707,-0.0484 1.1707,0.0913 0,0.39737 -0.34052,0.47487 -1.88079,0.42805 -1.3262,-0.0403 -1.60455,-0.0873 -2.22432,-0.37567 -0.82296,-0.38288 -1.50193,-0.86274 -1.96859,-1.39131 -0.27264,-0.30881 -0.36956,-0.3505 -0.55583,-0.23911 -0.32158,0.19229 -0.49274,0.59314 -1.17864,2.76027 -0.94967,3.00051 -1.06923,3.71405 -0.95331,5.68917 0.0574,0.97825 0.18025,1.8972 0.29718,2.22328 0.2127,0.59313 0.90087,1.39009 1.44864,1.67765 0.36899,0.1937 1.96555,0.22438 3.00139,0.0577 0.33967,-0.0547 1.22461,-0.19457 1.96653,-0.31088 1.92301,-0.30146 1.92422,-0.30213 1.92422,-1.05082 0,-0.34727 -0.0566,-0.62064 -0.12844,-0.62064 -0.0706,0 -0.34533,0.11065 -0.61043,0.2459 -0.2651,0.13524 -0.56424,0.21433 -0.66477,0.17576 -0.10052,-0.0386 -0.30182,-0.006 -0.44734,0.0715 -0.27509,0.14723 -0.61934,-0.006 -0.61934,-0.27634 0,-0.068 0.0846,-0.0533 0.18826,0.0327 0.24447,0.20289 0.38766,0.0597 0.18477,-0.18477 -0.21331,-0.25702 -0.0155,-0.23831 0.27677,0.0262 0.2306,0.20868 0.23494,0.20124 0.16215,-0.27791 -0.0649,-0.42751 -0.0558,-0.45575 0.0696,-0.21444 0.16908,0.32549 0.29829,0.35329 0.40077,0.0862 0.0405,-0.10543 0.0244,-0.16133 -0.0356,-0.12423 -0.18308,0.11316 -0.27323,-0.32043 -0.10801,-0.51951 0.13422,-0.16172 0.0975,-0.17857 -0.27577,-0.12668 -0.23683,0.0329 -0.54176,0.10429 -0.67763,0.15861 -0.18691,0.0747 -0.21434,0.0631 -0.11268,-0.0476 0.0739,-0.0805 0.40311,-0.21373 0.73158,-0.29608 0.65606,-0.16449 0.84453,-0.4049 0.43593,-0.55605 -0.23772,-0.0879 -0.21514,-0.11822 0.23669,-0.31757 0.5003,-0.22073 0.68062,-0.57304 0.2933,-0.57304 -0.11339,0 -0.51601,0.17487 -0.89471,0.38859 -0.3787,0.21373 -0.61371,0.29843 -0.52225,0.18822 0.0915,-0.1102 0.52186,-0.36837 0.95646,-0.5737 0.4346,-0.20534 0.79018,-0.42725 0.79018,-0.49314 0,-0.0659 0.0834,-0.0878 0.18527,-0.0487 0.11732,0.045 0.18528,-0.002 0.18528,-0.12739 0,-0.27882 -0.326,-0.24557 -1.09303,0.11151 -0.3634,0.16917 -0.72468,0.30332 -0.80286,0.29811 -0.21614,-0.0144 1.30848,-0.7308 1.55622,-0.73124 0.11888,-2.1e-4 0.21615,-0.0882 0.21615,-0.19547 0,-0.23152 -0.45635,-0.16031 -1.35375,0.21126 -0.40658,0.16834 -0.49408,0.18051 -0.31827,0.0443 0.13336,-0.10336 0.53633,-0.28055 0.89549,-0.39377 0.35916,-0.11321 0.65301,-0.24953 0.65301,-0.30292 0,-0.0534 0.0763,-0.0678 0.16951,-0.032 0.18178,0.0698 0.36823,-0.5253 0.19763,-0.63073 -0.0952,-0.0588 -0.66954,0.12616 -1.50966,0.48624 -0.54756,0.23468 -0.61965,0.15895 -0.10301,-0.10822 0.506,-0.26166 3.84606,-1.33676 3.9208,-1.26202 0.0339,0.0339 -0.41525,0.21687 -0.99805,0.40667 -0.92225,0.30034 -1.05964,0.38182 -1.05964,0.62841 0,0.33661 0.10553,0.34877 0.71419,0.0823 0.25257,-0.11058 0.59817,-0.21671 0.768,-0.23583 0.30679,-0.0345 0.30699,-0.0339 0.0309,0.0964 -0.27986,0.13211 -0.38746,0.46399 -0.15042,0.46399 0.0701,0 0.32702,-0.0834 0.5709,-0.18527 0.24388,-0.1019 0.50611,-0.18406 0.58273,-0.18256 0.20106,0.004 -0.90329,0.49135 -1.11321,0.49135 -0.18804,0 -0.37029,0.33285 -0.24878,0.45436 0.0402,0.0402 0.19996,-0.008 0.35493,-0.10683 0.32145,-0.20535 1.33165,-0.61762 1.33165,-0.54346 0,0.027 -0.41687,0.25234 -0.92637,0.50072 -0.5095,0.24839 -0.92637,0.50375 -0.92637,0.56747 0,0.21919 0.50253,0.11515 1.23868,-0.25646 0.40567,-0.20478 0.73757,-0.32624 0.73757,-0.26991 0,0.0563 -0.20843,0.20042 -0.46318,0.3202 -0.25475,0.11978 -0.59002,0.29926 -0.74503,0.39885 -0.34744,0.2232 -0.24516,0.47662 0.11465,0.28406 0.13756,-0.0736 0.27853,-0.10544 0.31326,-0.0707 0.0546,0.0546 -0.30376,0.27878 -1.21248,0.75833 -0.24606,0.12985 -0.24925,0.32451 -0.007,0.40539 0.0807,0.0269 0.14667,-0.0374 0.14667,-0.1428 0,-0.1153 0.0702,-0.16473 0.17628,-0.12405 0.14683,0.0564 0.49974,-0.0746 1.4775,-0.5483 0.0604,-0.0293 0.0682,0.0142 0.0173,0.0966 -0.0509,0.0824 -0.33655,0.25435 -0.63477,0.38218 -0.5198,0.22281 -0.66275,0.39916 -0.43677,0.53882 0.058,0.0358 0.3637,-0.0986 0.67934,-0.29878 0.31564,-0.20017 0.57389,-0.31072 0.57389,-0.24566 0,0.0651 -0.22233,0.2317 -0.49407,0.37033 -0.27173,0.13863 -0.49406,0.30825 -0.49406,0.37694 0,0.26661 0.43394,0.27363 0.9067,0.0147 0.61586,-0.33734 0.74167,-0.26702 0.14846,0.083 -0.24067,0.142 -0.43758,0.31563 -0.43758,0.38586 0,0.16315 0.20879,0.16597 0.30879,0.004 0.042,-0.0679 0.14253,-0.12166 0.22344,-0.1194 0.14502,0.004 -0.27208,0.40121 -0.63416,0.60384 -0.15928,0.0891 -0.14695,0.15359 0.0861,0.44982 0.14959,0.19017 0.38451,0.42458 0.52204,0.52091 0.21809,0.15276 0.27795,0.14989 0.46836,-0.0224 0.27052,-0.24482 0.46688,-0.26082 0.26858,-0.0219 -0.0802,0.0966 -0.31911,0.23611 -0.53092,0.30994 -0.21182,0.0738 -0.34642,0.0956 -0.29911,0.0482 0.10916,-0.10916 -0.77926,-1.02794 -0.99397,-1.02794 -0.26276,0 -0.18801,0.12694 0.36474,0.61936 0.28872,0.25721 0.48197,0.51153 0.42946,0.56515 -0.0525,0.0536 -0.18072,-0.0242 -0.28491,-0.17296 -0.10419,-0.14875 -0.26966,-0.27046 -0.36771,-0.27046 -0.0981,0 -0.17827,-0.07 -0.17827,-0.15556 0,-0.19419 -0.45996,-0.4936 -0.54555,-0.35513 -0.0346,0.056 0.18444,0.33076 0.48679,0.61056 l 0.54973,0.50872 -0.5234,0.1543 c -0.66712,0.19666 -1.12681,0.42961 -0.99577,0.50461 0.24177,0.13838 1.39111,0.46734 2.01633,0.5771 1.09274,0.19185 5.26301,0.0738 5.92263,-0.16769 z m -1.87531,-0.74255 c -0.0316,-0.16545 -0.0194,-0.36244 0.0271,-0.43776 0.0465,-0.0753 0.0921,0.06 0.1011,0.3008 0.019,0.50555 -0.0448,0.57365 -0.12824,0.13696 z m 0.41285,-0.48566 c -0.10538,-0.12698 -0.10147,-0.201 0.0158,-0.29829 0.0858,-0.0712 0.18371,-0.12523 0.21768,-0.12013 0.1675,0.0251 0.99793,-0.31399 1.07981,-0.44097 0.0515,-0.0798 0.22196,-0.21715 0.37887,-0.30517 0.2602,-0.14598 0.27396,-0.14055 0.15648,0.0618 -0.27472,0.47308 -0.47935,0.6541 -0.73942,0.6541 -0.36582,0 -1.02508,0.35236 -0.93425,0.49933 0.11012,0.17818 -0.0151,0.14193 -0.17492,-0.0506 z m -14.62962,-0.20752 c -0.1472,-0.11579 -0.32322,-0.20353 -0.39115,-0.19497 -0.13895,0.0175 -0.53445,-1.39467 -0.5474,-1.95453 -0.01,-0.43009 0.19659,-0.28729 0.25903,0.1791 0.0287,0.21426 0.10751,0.29768 0.25749,0.2725 0.11888,-0.02 0.21615,0.025 0.21615,0.0999 0,0.0749 0.0495,0.10563 0.11001,0.0682 0.15784,-0.0976 0.4752,0.4346 0.57435,0.96308 0.10452,0.55717 0.30204,0.71087 0.3086,0.24014 l 0.005,-0.34696 0.18044,0.41561 c 0.0992,0.22858 0.18028,0.42312 0.18008,0.4323 -2e-4,0.009 -0.19936,0.0211 -0.44258,0.0264 -0.24322,0.005 -0.56266,-0.085 -0.70986,-0.20082 z m 0.0411,-1.2293 c 0,-0.0679 -0.0556,-0.12352 -0.12352,-0.12352 -0.0679,0 -0.12351,0.0556 -0.12351,0.12352 0,0.0679 0.0556,0.12351 0.12351,0.12351 0.0679,0 0.12352,-0.0556 0.12352,-0.12351 z m 1.30722,1.15572 c -0.11347,-0.29571 -0.025,-0.31842 0.14981,-0.0385 0.0829,0.13277 0.10066,0.24141 0.0394,0.24141 -0.0612,0 -0.14639,-0.0913 -0.18923,-0.20295 z m 4.18923,0.12813 c 0.92519,-0.24959 1.08089,-0.27733 0.97762,-0.1742 -0.0622,0.0621 -0.36312,0.14166 -0.66883,0.17685 -0.3057,0.0352 -0.44465,0.034 -0.30879,-0.003 z m 8.53135,-0.28156 c -0.0461,-0.0746 -0.0336,-0.22562 0.0279,-0.3355 0.0942,-0.16832 0.12262,-0.17157 0.18053,-0.0206 0.0902,0.23496 -0.0915,0.54536 -0.20845,0.35615 z m -14.5011,-2.5003 c -0.016,-0.4419 -0.0838,-0.61352 -0.29868,-0.75619 -0.25917,-0.17212 -0.27586,-0.26198 -0.24753,-1.33296 0.0167,-0.63162 0.11079,-1.48635 0.20907,-1.8994 0.0983,-0.41304 0.21591,-0.94553 0.2614,-1.1833 0.12655,-0.66144 0.57411,-2.00474 0.77161,-2.31592 0.19338,-0.30468 0.42688,-0.38116 0.32095,-0.10513 -0.0365,0.095 -0.007,0.20947 0.0656,0.25432 0.0726,0.0448 0.13194,0.0143 0.13194,-0.0678 0,-0.0821 0.16295,0.0756 0.3621,0.35054 0.45872,0.63323 1.06648,1.09772 1.8232,1.39339 0.32659,0.12761 0.5036,0.23462 0.39335,0.23779 -0.37133,0.0107 -1.37441,-0.5117 -1.8858,-0.98213 -0.45815,-0.42145 -0.52523,-0.44792 -0.6888,-0.27181 -0.1603,0.17257 -0.1577,0.18607 0.0225,0.11691 0.14951,-0.0574 0.30717,0.0829 0.59211,0.52699 0.21359,0.33285 0.49944,0.64044 0.63522,0.68354 0.24849,0.0789 0.20815,0.24107 -0.0599,0.24107 -0.0793,0 -0.16151,0.18064 -0.1828,0.40143 -0.0426,0.44181 -0.23384,0.56106 -0.21814,0.13601 0.0183,-0.49411 -0.27248,-0.38046 -0.36057,0.14094 -0.065,0.3848 -0.12228,0.47518 -0.23945,0.37794 -0.18797,-0.15601 -0.32372,-0.0453 -0.23333,0.1902 0.0364,0.0949 0.12321,0.13726 0.1929,0.0942 0.12389,-0.0766 0.0943,0.41631 -0.16404,2.73531 -0.0841,0.75495 -0.0898,0.70795 -0.0446,-0.37055 0.0284,-0.67933 0.0889,-1.45105 0.1345,-1.71491 0.0658,-0.38121 0.0472,-0.46794 -0.0904,-0.42218 -0.20802,0.0691 -0.43095,1.19351 -0.55231,2.78555 -0.0479,0.62839 -0.12331,1.14252 -0.16758,1.14252 -0.0443,0 -0.0401,-0.40297 0.009,-0.89549 0.13611,-1.35755 0.12749,-2.26424 -0.0201,-2.11663 -0.11072,0.11071 -0.28077,1.23744 -0.408,2.70333 -0.0428,0.49353 -0.0429,0.49344 -0.0636,-0.0776 z m 0.0282,-1.04521 c 0.0906,-0.23599 -0.0205,-0.45331 -0.18099,-0.35413 -0.14696,0.0908 -0.15087,0.55055 -0.005,0.55055 0.0607,0 0.14421,-0.0884 0.18567,-0.19642 z m 0.0746,-0.66819 c 0,-0.0679 -0.0556,-0.12352 -0.12352,-0.12352 -0.0679,0 -0.12351,0.0556 -0.12351,0.12352 0,0.0679 0.0556,0.12351 0.12351,0.12351 0.0679,0 0.12352,-0.0556 0.12352,-0.12351 z m 0.0449,-0.67863 c -0.0389,-0.10151 -0.12058,-0.15381 -0.1814,-0.11623 -0.17439,0.10778 -0.12895,0.30079 0.0708,0.30079 0.11019,0 0.1536,-0.0725 0.11057,-0.18456 z m 0.20209,-0.61829 c 0,-0.0939 -0.0556,-0.20505 -0.12351,-0.24703 -0.0703,-0.0435 -0.12352,0.0629 -0.12352,0.24703 0,0.18413 0.0532,0.2905 0.12352,0.24703 0.0679,-0.042 0.12351,-0.15315 0.12351,-0.24703 z m 0.45258,-0.23873 c -0.0409,-0.10647 -0.1316,-0.19358 -0.20167,-0.19358 -0.14211,0 -0.17457,0.40572 -0.043,0.5373 0.1356,0.13559 0.32597,-0.13185 0.24466,-0.34372 z m -0.32906,-0.56412 c 0,-0.13587 -0.0556,-0.24704 -0.12352,-0.24704 -0.0679,0 -0.12351,0.11117 -0.12351,0.24704 0,0.13586 0.0556,0.24703 0.12351,0.24703 0.0679,0 0.12352,-0.11117 0.12352,-0.24703 z m 0.49406,-0.0618 c 0,-0.16984 -0.0556,-0.30879 -0.12351,-0.30879 -0.0679,0 -0.12352,0.13895 -0.12352,0.30879 0,0.16983 0.0556,0.30879 0.12352,0.30879 0.0679,0 0.12351,-0.13896 0.12351,-0.30879 z m 0.12352,-0.61029 c 0,-0.18542 -0.22176,-0.38253 -0.31992,-0.28437 -0.0862,0.0862 0.0844,0.46235 0.20962,0.46235 0.0607,0 0.1103,-0.0801 0.1103,-0.17798 z m -0.49407,-0.13081 c 0,-0.1019 -0.0556,-0.18527 -0.12351,-0.18527 -0.0679,0 -0.12352,0.0834 -0.12352,0.18527 0,0.1019 0.0556,0.18528 0.12352,0.18528 0.0679,0 0.12351,-0.0834 0.12351,-0.18528 z m 0.86461,0.0618 c 0,-0.0679 -0.0556,-0.12351 -0.12351,-0.12351 -0.0679,0 -0.12352,0.0556 -0.12352,0.12351 0,0.0679 0.0556,0.12352 0.12352,0.12352 0.0679,0 0.12351,-0.0556 0.12351,-0.12352 z m -0.28965,-0.67401 c -0.0402,-0.10483 -0.13242,-0.1906 -0.20488,-0.1906 -0.0914,0 -0.0895,0.079 0.006,0.25761 0.15332,0.28648 0.31365,0.23243 0.19875,-0.067 z m 0.50838,0.15679 c -0.0763,-0.22903 -0.34224,-0.26701 -0.34224,-0.0489 0,0.10756 0.088,0.19556 0.19557,0.19556 0.10756,0 0.17356,-0.066 0.14667,-0.14667 z m -0.99896,-0.24703 c -0.0394,-0.0985 -0.0687,-0.0693 -0.0746,0.0746 -0.005,0.13021 0.0238,0.20316 0.0649,0.16212 0.041,-0.0411 0.0454,-0.14758 0.01,-0.23674 z m 1.52133,0.0849 c 0,-0.1019 -0.0834,-0.18527 -0.18527,-0.18527 -0.1019,0 -0.18528,0.0834 -0.18528,0.18527 0,0.1019 0.0834,0.18528 0.18528,0.18528 0.1019,0 0.18527,-0.0834 0.18527,-0.18528 z m -0.82146,-0.49802 c -0.0383,-0.0997 -0.11922,-0.18131 -0.17988,-0.18131 -0.12674,0 -0.14903,0.29065 -0.0313,0.40836 0.13176,0.13176 0.28547,-0.0335 0.21119,-0.22705 z m -0.78425,0.0657 c 0,-0.0679 -0.0556,-0.12352 -0.12351,-0.12352 -0.0679,0 -0.12352,0.0556 -0.12352,0.12352 0,0.0679 0.0556,0.12351 0.12352,0.12351 0.0679,0 0.12351,-0.0556 0.12351,-0.12351 z m 1.23516,0.0137 c 0,-0.0604 -0.10931,-0.24105 -0.24292,-0.40142 -0.26783,-0.32149 -0.34087,-0.12314 -0.0979,0.2659 0.15892,0.25446 0.34084,0.3268 0.34084,0.13552 z m -0.86461,-0.11359 c 0,-0.0549 -0.0816,-0.2078 -0.18134,-0.33967 -0.18514,-0.24477 -0.24926,-0.10768 -0.11423,0.2442 0.0774,0.20181 0.29557,0.27227 0.29557,0.0955 z m 4.32306,6.02867 c 0.1019,-0.0658 0.24085,-0.11973 0.30879,-0.11973 0.0679,0 0.0401,0.0539 -0.0618,0.11973 -0.1019,0.0659 -0.24086,0.11973 -0.30879,0.11973 -0.0679,0 -0.0401,-0.0539 0.0618,-0.11973 z m -3.6814,-1.66747 c 0.002,-0.2038 0.0302,-0.27222 0.0615,-0.15204 0.0313,0.12018 0.0293,0.28692 -0.005,0.37055 -0.0338,0.0836 -0.0595,-0.0147 -0.0569,-0.21851 z m 0.17772,-1.6057 c 0.0368,-0.47554 0.1186,-0.91846 0.18186,-0.98427 0.0715,-0.0744 0.088,0.019 0.0434,0.24703 -0.0394,0.20168 -0.12122,0.6446 -0.18186,0.98427 -0.0982,0.55021 -0.10298,0.52326 -0.0434,-0.24703 z m 4.16891,-0.16246 c 0.0485,-0.0785 0.82188,-0.37347 1.71861,-0.65553 0.89673,-0.28207 1.71379,-0.54119 1.81569,-0.57582 0.12477,-0.0424 0.14494,-0.0218 0.0618,0.0631 -0.0679,0.0694 -0.62375,0.27746 -1.23515,0.46247 -0.96316,0.29146 -1.55471,0.49414 -2.27443,0.77928 -0.11063,0.0438 -0.14233,0.0169 -0.0865,-0.0735 z m 0.38465,-0.76365 c 0.86209,-0.4371 2.68889,-1.02417 2.99844,-0.9636 0.11713,0.0229 -0.25948,0.17118 -0.83691,0.32946 -0.57744,0.15828 -1.38338,0.42568 -1.79098,0.59421 -1.09014,0.45073 -1.20522,0.46313 -0.37055,0.0399 z m 0.18527,-0.55357 c 0,-0.22883 2.02956,-0.89133 2.37415,-0.77499 0.0869,0.0293 -0.26502,0.14771 -0.78195,0.26307 -0.51693,0.11536 -1.04496,0.28929 -1.1734,0.38653 -0.23648,0.17902 -0.4188,0.23361 -0.4188,0.12539 z m 1.3458,-1.0637 c 0.29862,-0.13249 0.56865,-0.21519 0.60005,-0.18379 0.0686,0.0685 -0.80517,0.44583 -1.00368,0.4334 -0.0766,-0.005 0.10501,-0.11712 0.40363,-0.24961 z m 1.64946,-0.94221 c -0.15285,-0.17643 -0.27594,-0.43703 -0.27353,-0.57912 0.004,-0.23965 0.0172,-0.236 0.1809,0.0504 0.17536,0.30677 0.23385,0.25967 0.19173,-0.15439 -0.0121,-0.11888 0.0371,-0.21615 0.10929,-0.21615 0.0752,0 0.13128,0.26385 0.13128,0.61758 0,0.33966 -0.0139,0.61416 -0.0309,0.60999 -0.017,-0.004 -0.15594,-0.15193 -0.30879,-0.32835 z m 0.5402,0.0224 c -0.0424,-0.11039 -0.0714,-0.34901 -0.0646,-0.53027 0.01,-0.26511 0.0345,-0.23533 0.12546,0.15226 0.11596,0.49422 0.0769,0.73694 -0.0609,0.37801 z m -2.16207,-1.19611 c 0.15118,-0.28248 1.11751,-0.30712 1.34396,-0.0343 0.17012,0.20498 0.18122,0.20203 -0.88513,0.23565 -0.51658,0.0163 -0.56415,-0.005 -0.45883,-0.20138 z m 3.88806,-0.0475 c -0.13991,-0.36459 -0.21851,-1.35197 -0.0973,-1.22194 0.10881,0.1167 0.30721,1.42043 0.21616,1.42043 -0.0235,0 -0.077,-0.0893 -0.11889,-0.19849 z m 0.50115,-0.0177 c -0.16253,-0.59249 -0.20042,-1.13039 -0.0847,-1.20194 0.0795,-0.0492 0.12731,0.11249 0.12731,0.43079 0,0.28022 0.0575,0.61699 0.12786,0.74839 0.0793,0.14824 0.0825,0.23891 0.008,0.23891 -0.0658,0 -0.14623,-0.0973 -0.17884,-0.21615 z m -1.0775,-0.0618 c -0.005,-0.0849 -0.0297,-0.31654 -0.0555,-0.51473 -0.0259,-0.19818 -0.002,-0.55946 0.0523,-0.80285 0.086,-0.38301 0.10591,-0.31376 0.14817,0.51501 0.0268,0.52665 0.007,0.95741 -0.0438,0.95725 -0.051,-1.6e-4 -0.0965,-0.0698 -0.10115,-0.15468 z m 1.6823,0.0411 c -0.0385,-0.0623 -0.0984,-0.38189 -0.13306,-0.71021 -0.0455,-0.43039 -0.0304,-0.52802 0.054,-0.34992 0.0644,0.13587 0.121,0.38877 0.12577,0.562 0.005,0.17323 0.0754,0.38167 0.1569,0.46319 0.10676,0.10676 0.1088,0.14822 0.007,0.14822 -0.0775,0 -0.17243,-0.051 -0.21093,-0.11328 z m 0.55751,-0.0623 c -0.0789,-0.0951 -0.16757,-0.38628 -0.19699,-0.6471 l -0.0535,-0.4742 0.15665,0.47049 c 0.0862,0.25877 0.23002,0.51584 0.3197,0.57126 0.0996,0.0616 0.11531,0.13027 0.0403,0.17661 -0.0675,0.0417 -0.18728,-0.002 -0.2662,-0.0971 z m -2.76826,-0.41355 c -0.0409,-0.25611 -0.0278,-0.63129 0.0292,-0.83373 0.0875,-0.31088 0.11106,-0.23846 0.15132,0.46591 0.0514,0.89987 -0.0593,1.12556 -0.18051,0.36782 z m 3.14287,-0.29388 c -0.1611,-0.46212 -0.1623,-0.47563 -0.0423,-0.47563 0.0513,0 0.15418,0.19454 0.2286,0.43231 0.16825,0.53752 -3.5e-4,0.57673 -0.18629,0.0433 z m -3.57454,-0.10508 c 0,-0.16984 0.028,-0.23931 0.0623,-0.1544 0.0343,0.0849 0.0343,0.22388 0,0.30879 -0.0343,0.0849 -0.0623,0.0154 -0.0623,-0.15439 z m 3.98044,-0.0545 c -0.0376,-0.0979 -0.0423,-0.27858 -0.0105,-0.40143 0.039,-0.15059 0.0625,-0.11606 0.0722,0.10601 0.008,0.18115 0.0838,0.35741 0.16872,0.39167 0.12093,0.0488 0.12009,0.0644 -0.004,0.072 -0.0871,0.005 -0.18901,-0.0704 -0.2266,-0.1683 z m 0.50543,-0.44883 c -0.1168,-0.36802 -0.0197,-0.39672 0.14703,-0.0434 0.0778,0.16488 0.0949,0.29979 0.0379,0.29979 -0.057,0 -0.14019,-0.11536 -0.18494,-0.25634 z m 0.38672,-0.18607 c -0.15678,-0.40856 -0.0714,-0.60356 0.11106,-0.25369 0.2154,0.41302 0.22136,0.44907 0.0742,0.44907 -0.0607,0 -0.14404,-0.0879 -0.18527,-0.19538 z m 0.32028,-0.32339 c -0.23299,-0.23299 -0.17305,-0.40577 0.0679,-0.19583 0.11888,0.10356 0.29952,0.21895 0.40143,0.25642 0.13029,0.0479 0.11014,0.071 -0.0679,0.0779 -0.13927,0.005 -0.31991,-0.057 -0.40143,-0.13847 z m -0.4047,-1.36485 c -0.005,-0.017 -0.0276,-0.12483 -0.0498,-0.23967 -0.0222,-0.11483 -0.1056,-0.40663 -0.1854,-0.64845 -0.14824,-0.44916 -0.30848,-0.56113 -0.40823,-0.28528 -0.0307,0.0849 -0.0958,-0.10043 -0.14477,-0.41187 -0.0937,-0.59668 -0.25296,-0.95643 -0.37109,-0.8383 -0.0722,0.0722 0.20194,1.47887 0.36396,1.86775 0.11952,0.28687 0.0107,0.27255 -0.46631,-0.0613 -0.21804,-0.15262 -0.42261,-0.2946 -0.45461,-0.31551 -0.032,-0.0209 0.0113,-0.0809 0.0962,-0.13341 0.11927,-0.0737 0.098,-0.21961 -0.0935,-0.64174 -0.26743,-0.58948 -0.35426,-1.07899 -0.12977,-0.73162 0.12811,0.19824 0.15771,0.11944 0.13918,-0.37055 -0.0106,-0.28066 -0.002,-0.28628 0.0981,-0.0618 0.0604,0.13586 0.0792,0.38038 0.0417,0.54336 -0.0497,0.21647 -0.0265,0.27063 0.0863,0.20098 0.11009,-0.068 0.1347,-0.3299 0.0859,-0.91392 -0.0597,-0.71422 -0.0519,-0.75951 0.0613,-0.35537 0.22516,0.80437 0.38859,0.54433 0.32696,-0.52024 -0.0478,-0.82536 -0.0311,-0.94944 0.10372,-0.77197 0.2177,0.28654 0.20929,0.0304 -0.0168,-0.51059 -0.23267,-0.55686 -0.23267,-0.73486 0,-0.32784 0.17014,0.29762 0.17668,0.29903 0.1809,0.0389 0.002,-0.14842 -0.0528,-0.42015 -0.1226,-0.60383 -0.19171,-0.50423 -0.0614,-0.49171 0.2425,0.0233 0.15714,0.26632 0.26323,0.6422 0.25424,0.90076 -0.056,1.60963 0.0106,2.86076 0.14778,2.77601 0.055,-0.034 0.10003,0.0509 0.10003,0.18862 0,0.17187 -0.0581,0.22814 -0.18527,0.17935 -0.1019,-0.0391 -0.18613,-0.19021 -0.18717,-0.3358 -0.001,-0.14558 -0.0558,-0.34807 -0.12162,-0.44997 -0.0877,-0.13568 -0.12024,-0.0448 -0.12162,0.33967 -0.001,0.34417 0.0492,0.51431 0.14648,0.49407 0.0816,-0.017 0.20991,0.15114 0.28513,0.37361 0.0752,0.22247 0.17521,0.36606 0.22218,0.31908 0.047,-0.047 0.0858,-0.007 0.0862,0.0896 4.2e-4,0.0962 0.0848,0.3361 0.18748,0.53303 0.1027,0.19692 0.15794,0.38683 0.12276,0.42201 -0.0352,0.0352 -0.064,-8.8e-4 -0.064,-0.0801 0,-0.0793 -0.0504,-0.14411 -0.11195,-0.14411 -0.0616,0 -0.0829,0.11117 -0.0473,0.24704 0.0355,0.13586 0.0303,0.24703 -0.0116,0.24703 -0.0419,0 -0.0804,-0.0139 -0.0856,-0.0309 z m -0.77079,-3.45072 c -0.0394,-0.0985 -0.0687,-0.0693 -0.0746,0.0746 -0.005,0.13021 0.0238,0.20316 0.0649,0.16211 0.041,-0.041 0.0454,-0.14757 0.01,-0.23673 z m 0.23967,2.79749 c -0.11919,-0.31061 -0.084,-0.39075 0.0616,-0.14036 0.0721,0.12398 0.10506,0.25144 0.0733,0.28324 -0.0318,0.0318 -0.0925,-0.0325 -0.13484,-0.14288 z m -5.51171,-0.48223 c 0,-0.12175 0.52839,-0.94028 0.57615,-0.89251 0.0283,0.0283 -0.0674,0.253 -0.21278,0.49933 -0.23997,0.40672 -0.36337,0.54024 -0.36337,0.39318 z m 3.92868,-0.16146 c -0.32676,-0.38049 -0.37832,-0.52931 -0.15349,-0.44304 0.17896,0.0687 0.18661,0.0427 0.0582,-0.19727 -0.0813,-0.15198 -0.12555,-0.29868 -0.0982,-0.326 0.0583,-0.0582 0.58793,0.9063 0.58793,1.07062 0,0.18028 -0.19405,0.12896 -0.39437,-0.10431 z m -9.28342,-1.00478 c -0.0664,-0.71422 -0.32447,-2.12903 -0.63349,-3.47267 l -0.071,-0.30879 0.13647,0.30879 c 0.32158,0.72762 0.91052,4.32306 0.70813,4.32306 -0.0336,0 -0.0966,-0.38267 -0.14009,-0.85039 z m 2.82678,0.0434 c -0.0482,-0.44999 -0.0617,-0.84411 -0.03,-0.87581 0.0317,-0.0317 0.0971,0.31054 0.14526,0.76053 0.0482,0.44999 0.0617,0.8441 0.03,0.8758 -0.0317,0.0317 -0.0971,-0.31053 -0.14526,-0.76052 z m -0.66087,-0.48995 c -0.005,-0.27173 0.0376,-0.71639 0.0938,-0.98813 l 0.10219,-0.49406 0.005,0.43231 c 0.003,0.23776 -0.0395,0.68242 -0.0939,0.98812 l -0.0989,0.55582 z m -1.3715,-1.36897 c 0.006,-0.14388 0.0352,-0.17315 0.0746,-0.0746 0.0357,0.0892 0.0313,0.1957 -0.01,0.23674 -0.041,0.041 -0.0702,-0.0319 -0.0649,-0.16212 z m 0.61016,0.1894 c 10e-4,-0.0306 0.13943,-0.47245 0.30698,-0.98196 0.16754,-0.5095 0.27309,-0.73183 0.23455,-0.49406 -0.0867,0.53513 -0.31438,1.25767 -0.44556,1.41426 -0.0541,0.0645 -0.0972,0.0923 -0.096,0.0618 z m -2.70993,-0.68346 c 0.006,-0.14389 0.0352,-0.17316 0.0746,-0.0746 0.0357,0.0892 0.0313,0.19569 -0.01,0.23674 -0.041,0.041 -0.0702,-0.0319 -0.0649,-0.16212 z m 2.2285,0.0721 c -0.002,-0.1019 0.0725,-0.35202 0.16584,-0.55582 0.21843,-0.47702 0.22164,-0.25515 0.004,0.30879 -0.0916,0.23777 -0.1682,0.34893 -0.1703,0.24703 z m -1.73444,-0.19556 c 0.006,-0.14389 0.0352,-0.17316 0.0746,-0.0746 0.0357,0.0892 0.0313,0.1957 -0.01,0.23674 -0.041,0.041 -0.0702,-0.0319 -0.0649,-0.16211 z m -1.05964,-0.33778 c -0.28506,-0.35404 -0.56044,-0.94885 -0.43928,-0.94885 0.0718,0 0.13049,0.0471 0.13049,0.10462 0,0.0575 0.11117,0.23279 0.24704,0.38945 0.13586,0.15665 0.24703,0.35969 0.24703,0.4512 0,0.20144 -0.0256,0.20194 -0.18528,0.004 z m 0.93612,-0.15629 c 0.006,-0.14389 0.0352,-0.17316 0.0746,-0.0746 0.0357,0.0892 0.0313,0.19569 -0.01,0.23674 -0.041,0.041 -0.0702,-0.0319 -0.0649,-0.16212 z m -0.49406,-0.12351 c 0.006,-0.14389 0.0352,-0.17316 0.0746,-0.0746 0.0357,0.0892 0.0313,0.1957 -0.01,0.23674 -0.041,0.041 -0.0702,-0.0319 -0.0649,-0.16211 z m 2.10059,-0.36026 c 0.0129,-0.23397 0.21872,-0.62793 0.22589,-0.4323 0.004,0.1019 -0.0471,0.26864 -0.11294,0.37054 -0.0658,0.1019 -0.11668,0.1297 -0.11295,0.0618 z m 0.69079,-0.37055 c 0.0404,-0.2038 0.147,-0.53729 0.23679,-0.74109 l 0.16325,-0.37055 -0.0735,0.37055 c -0.0404,0.2038 -0.147,0.53729 -0.23679,0.74109 l -0.16325,0.37055 z m 9.55695,-0.15439 c -0.18287,-0.65847 -0.15601,-0.75129 0.12113,-0.41862 0.25075,0.30099 0.33323,0.8818 0.12521,0.8818 -0.0647,0 -0.17559,-0.20843 -0.24634,-0.46318 z m -12.1013,0.13362 c -0.005,-0.0794 -0.0417,-0.24611 -0.0808,-0.37055 -0.0676,-0.21507 -0.0641,-0.21534 0.0705,-0.005 0.0779,0.12144 0.11425,0.28819 0.0808,0.37055 -0.0439,0.10807 -0.0635,0.10959 -0.0705,0.005 z m -1.15227,-0.42232 c -0.22512,-0.39554 -0.3049,-0.81173 -0.0926,-0.48327 0.0947,0.14647 0.11931,0.1206 0.1177,-0.12352 -10e-4,-0.16983 -0.0836,-0.41668 -0.18339,-0.54855 -0.0997,-0.13187 -0.18011,-0.29862 -0.1786,-0.37055 0.006,-0.27849 0.48598,0.50415 0.48857,0.7964 0.002,0.17028 0.0545,0.48988 0.11764,0.71021 0.14494,0.50535 0.0127,0.51481 -0.26928,0.0193 z m 3.25419,0.0108 c -0.005,-0.034 0.10402,-0.39525 0.24126,-0.80285 0.13724,-0.40761 0.22237,-0.56637 0.18917,-0.35281 -0.0544,0.35009 -0.41037,1.30577 -0.43043,1.15566 z m 10.19389,-0.64985 c -0.10404,-0.38815 -0.0951,-0.48724 0.0367,-0.40581 0.0628,0.0388 0.13972,-0.0274 0.17094,-0.14711 0.0312,-0.11971 0.0632,-0.0125 0.0711,0.23823 0.0164,0.52068 -0.16779,0.7286 -0.27873,0.31469 z m -10.56964,-0.153 c -0.002,-0.0679 0.0771,-0.34585 0.17502,-0.61758 0.0979,-0.27174 0.18043,-0.40318 0.18341,-0.2921 0.003,0.11109 -0.0758,0.389 -0.17502,0.61758 -0.0992,0.22859 -0.18178,0.36003 -0.18341,0.2921 z m -0.29135,-0.61603 c 0.11298,-0.23692 0.22734,-0.40883 0.25414,-0.38203 0.0565,0.0565 -0.31845,0.81278 -0.40297,0.81278 -0.0311,0 0.0359,-0.19384 0.14883,-0.43075 z m 0.29523,-0.74265 c 0.0129,-0.23397 0.21871,-0.62793 0.22588,-0.4323 0.004,0.1019 -0.0471,0.26864 -0.11294,0.37054 -0.0658,0.1019 -0.11668,0.1297 -0.11294,0.0618 z m -0.4979,-0.15189 c -0.009,-0.20236 0.38081,-1.16919 0.44535,-1.10465 0.0278,0.0278 -0.0595,0.32195 -0.194,0.65358 -0.13454,0.33163 -0.24765,0.53461 -0.25135,0.45107 z m 0.99007,-0.24225 c -0.005,-0.14884 0.0469,-0.30497 0.11483,-0.34695 0.1461,-0.0903 0.1461,0.0306 0,0.37054 -0.10234,0.23817 -0.10646,0.23733 -0.11483,-0.0236 z m -3.51179,-0.47047 c -0.0391,-0.1019 -0.0173,-0.18527 0.0485,-0.18527 0.0658,0 0.11964,0.0834 0.11964,0.18527 0,0.1019 -0.0218,0.18527 -0.0485,0.18527 -0.0267,0 -0.0805,-0.0834 -0.11964,-0.18527 z m 3.26583,-0.0103 c 0.006,-0.14389 0.0352,-0.17316 0.0746,-0.0746 0.0357,0.0892 0.0313,0.1957 -0.01,0.23674 -0.041,0.041 -0.0702,-0.0319 -0.0649,-0.16211 z m -3.0441,-0.51967 c 0.044,-0.13866 0.0222,-0.28785 -0.0485,-0.33155 -0.0707,-0.0437 -0.12209,-0.22901 -0.11421,-0.41182 0.009,-0.20912 0.0353,-0.25222 0.0708,-0.11622 0.0773,0.2959 0.2854,0.27339 0.2854,-0.0309 0,-0.14155 -0.0823,-0.24703 -0.19284,-0.24703 -0.15963,0 -0.17822,-0.10105 -0.10794,-0.5867 0.0467,-0.32269 0.12828,-0.64229 0.18129,-0.71022 0.053,-0.0679 0.13638,-0.40143 0.18527,-0.74109 0.0489,-0.33967 0.12939,-0.67317 0.17888,-0.7411 0.0495,-0.0679 0.32472,-0.75327 0.61161,-1.52296 0.60061,-1.61137 1.20097,-2.98537 1.30444,-2.98537 0.0392,0 0.0137,0.10751 -0.0566,0.23891 -0.15814,0.29548 -0.16416,0.50219 -0.0146,0.50219 0.0623,0 0.16905,-0.15285 0.23728,-0.33967 0.11521,-0.31545 0.12475,-0.31942 0.13381,-0.0556 0.005,0.15623 -0.0801,0.45773 -0.18984,0.67002 -0.10978,0.21228 -0.36462,0.86225 -0.56633,1.44437 -0.2017,0.58213 -0.40951,1.08657 -0.46179,1.12097 -0.0523,0.0344 -0.18669,0.22931 -0.29868,0.43311 l -0.20362,0.37054 0.07,-0.37054 c 0.0596,-0.31579 0.0488,-0.3371 -0.0732,-0.14422 -0.16443,0.25999 -0.0596,1.0288 0.14985,1.09861 0.16808,0.056 0.0255,0.9601 -0.15141,0.9601 -0.0649,0 -0.11792,-0.0589 -0.11792,-0.1308 0,-0.072 -0.0556,-0.0965 -0.12351,-0.0545 -0.1932,0.1194 -0.14471,0.55582 0.0618,0.55582 0.1019,0 0.18527,0.0945 0.18527,0.20998 0,0.16331 -0.0329,0.17704 -0.14822,0.0617 -0.0815,-0.0815 -0.18373,-0.14821 -0.22714,-0.14821 -0.0434,0 -0.14926,0.47275 -0.23522,1.05056 -0.086,0.57781 -0.21204,1.08501 -0.28016,1.12711 -0.076,0.047 -0.0929,-0.0209 -0.0438,-0.17556 z m 0.317,-1.50076 c 0,-0.0639 -0.0556,-0.15058 -0.12352,-0.19256 -0.0679,-0.042 -0.12352,0.0103 -0.12352,0.11622 0,0.10591 0.0556,0.19257 0.12352,0.19257 0.0679,0 0.12352,-0.0523 0.12352,-0.11623 z m 0.12351,-0.75568 c 0,-0.0639 -0.0556,-0.11622 -0.12351,-0.11622 -0.0679,0 -0.12352,0.0866 -0.12352,0.19256 0,0.10591 0.0556,0.15821 0.12352,0.11623 0.0679,-0.042 0.12351,-0.12864 0.12351,-0.19257 z m 0.55433,-0.98326 c -0.0692,-0.11204 -0.11515,-0.10862 -0.19107,0.0142 -0.13023,0.21071 -0.002,0.41773 0.15869,0.25676 0.0679,-0.0679 0.0825,-0.18987 0.0324,-0.27098 z m -0.24554,-0.2446 c 0.042,-0.0679 0.0175,-0.12352 -0.0545,-0.12352 -0.0719,0 -0.1308,0.0556 -0.1308,0.12352 0,0.0679 0.0245,0.12351 0.0545,0.12351 0.03,0 0.0888,-0.0556 0.1308,-0.12351 z m 1.6449,3.27671 c 0.10688,-0.23582 0.21152,-0.41158 0.23252,-0.39058 0.0698,0.0698 -0.23248,0.81934 -0.33049,0.81934 -0.053,0 -0.009,-0.19294 0.098,-0.42876 z m 2.98695,0.24349 c 0,-0.1019 -0.0556,-0.18528 -0.12352,-0.18528 -0.0679,0 -0.12352,-0.0556 -0.12352,-0.12351 0,-0.0679 0.0834,-0.12352 0.18528,-0.12352 0.11528,0 0.18527,0.11666 0.18527,0.30879 0,0.16984 -0.0278,0.30879 -0.0618,0.30879 -0.034,0 -0.0618,-0.0834 -0.0618,-0.18527 z m -2.52617,-0.3708 c 0.0483,-0.20367 0.13518,-0.42213 0.19316,-0.48548 0.058,-0.0634 0.0525,0.0692 -0.0121,0.29468 -0.15064,0.52524 -0.29677,0.67926 -0.18103,0.1908 z m -0.80687,-0.14686 c 10e-4,-0.055 0.0558,-0.1833 0.12162,-0.2852 0.10319,-0.15966 0.12,-0.1564 0.12163,0.0236 0.001,0.11488 -0.0537,0.24322 -0.12163,0.2852 -0.0679,0.042 -0.12266,0.0314 -0.12162,-0.0236 z m -1.34106,-0.65574 c 0,-0.16984 0.028,-0.23932 0.0623,-0.1544 0.0343,0.0849 0.0343,0.22387 0,0.30879 -0.0343,0.0849 -0.0623,0.0154 -0.0623,-0.15439 z m 1.95031,-0.86137 c 0.34693,-1.08393 0.60254,-1.38091 0.29515,-0.34291 -0.1763,0.59531 -0.49418,1.32779 -0.57624,1.32779 -0.0188,0 0.10771,-0.44319 0.28109,-0.98488 z m -0.83688,0.5217 c 0.023,-0.051 0.19815,-0.38997 0.38914,-0.75338 0.191,-0.36341 0.31984,-0.68817 0.28631,-0.72169 -0.0335,-0.0335 -0.14985,0.11095 -0.2585,0.32107 -0.28294,0.54713 -0.36504,0.47357 -0.0906,-0.0812 0.12603,-0.25475 0.32684,-0.78268 0.44624,-1.17317 0.11939,-0.39049 0.25951,-0.73621 0.31135,-0.76825 0.0519,-0.032 -0.01,0.25704 -0.13688,0.6424 -0.12713,0.38537 -0.20687,0.75888 -0.1772,0.83001 0.0308,0.0739 0.0581,0.0632 0.0637,-0.025 0.005,-0.0849 0.066,-0.1544 0.13464,-0.1544 0.0687,0 -0.0987,0.44466 -0.37192,0.98813 -0.27325,0.54347 -0.52862,0.98813 -0.56749,0.98813 -0.0389,0 -0.0518,-0.0417 -0.0288,-0.0926 z m 0.18922,-1.88362 c 0.0481,-0.16983 0.0944,-0.44781 0.10292,-0.61773 0.008,-0.16991 0.0803,-0.4299 0.15939,-0.57775 0.0791,-0.14785 0.11226,-0.3512 0.0736,-0.45189 -0.0386,-0.10069 0.0137,-0.3454 0.1163,-0.54381 0.1026,-0.1984 0.18181,-0.52723 0.17602,-0.73071 -0.006,-0.20349 0.0516,-0.47694 0.12743,-0.60766 0.12508,-0.21551 0.14036,-0.20312 0.16389,0.13287 0.0462,0.65914 -0.0319,1.22078 -0.26603,1.91449 -0.25312,0.74991 -0.7925,1.97319 -0.65354,1.48219 z m -0.69401,-0.74109 c -0.004,-0.1019 0.0471,-0.26865 0.11295,-0.37055 0.14591,-0.22578 0.14591,-0.0308 0,0.30879 -0.07,0.16288 -0.10847,0.18392 -0.11295,0.0618 z m 12.89518,-2.67068 c 0.21893,-0.52396 0.23232,-0.66425 0.0634,-0.66425 -0.0679,0 -0.1308,0.0973 -0.13971,0.21615 -0.009,0.11889 -0.0573,-0.10448 -0.10744,-0.49637 -0.0502,-0.39189 -0.0517,-0.89213 -0.003,-1.11164 l 0.0879,-0.39912 0.13521,0.49406 c 0.19003,0.69433 0.40068,1.91169 0.38331,2.21509 -0.0101,0.17687 -0.042,0.14146 -0.10379,-0.11532 l -0.0892,-0.37055 -0.14018,0.33967 c -0.0771,0.18682 -0.1701,0.33967 -0.20666,0.33967 -0.0366,0 0.0177,-0.20132 0.12046,-0.44739 z m -11.79221,-1.81903 c -0.003,-0.17553 0.8902,-1.56257 1.00642,-1.56257 0.0597,0 -0.0732,0.35023 -0.29547,0.77829 -0.22223,0.42807 -0.42468,0.72748 -0.44989,0.66537 -0.0252,-0.0621 -0.0938,-0.0372 -0.1525,0.0554 -0.0587,0.0926 -0.10752,0.12117 -0.10856,0.0635 z m 5.06226,32.98481 c 0,-0.24744 -0.26622,-0.45701 -0.58053,-0.45701 -0.27575,0 -0.40201,0.33497 -0.20174,0.53524 0.15092,0.15092 0.78227,0.0878 0.78227,-0.0782 z m 0.31386,-0.32528 c -0.0448,-0.0725 -0.14052,-0.13173 -0.21276,-0.13173 -0.0819,0 -0.0725,0.0709 0.0249,0.18826 0.1694,0.20412 0.32081,0.15857 0.18787,-0.0565 z m 9.2214,-0.426 c 0.63898,-0.47969 0.74486,-0.91486 0.73519,-3.02158 -0.01,-2.16561 -0.21914,-3.46336 -0.88664,-5.50018 -0.62139,-1.89611 -0.65625,-1.95158 -0.91368,-1.45377 -0.1105,0.21369 -0.17338,0.38853 -0.13971,0.38853 0.0337,0 -0.13152,0.3196 -0.36706,0.71022 -0.23555,0.39062 -0.42841,0.75846 -0.42858,0.81743 -1.8e-4,0.059 -0.17049,0.30102 -0.37848,0.53791 -0.20799,0.23689 -0.34673,0.46214 -0.3083,0.50056 0.0833,0.0833 0.68646,-0.46117 0.68646,-0.61963 0,-0.0606 0.1339,-0.28716 0.29756,-0.50342 0.16366,-0.21625 0.38449,-0.58772 0.49074,-0.82549 0.11665,-0.26104 0.18698,-0.33444 0.17752,-0.18527 -0.009,0.13587 0.0207,0.3443 0.0651,0.46318 0.1928,0.51615 0.19517,0.62655 0.0202,0.93752 -0.18376,0.32653 -0.68053,1.47545 -0.68053,1.57392 0,0.0283 0.0576,0.0515 0.12791,0.0515 0.0703,0 0.23796,-0.26402 0.37247,-0.5867 0.44878,-1.07662 0.48305,-1.12115 0.40403,-0.52494 -0.0405,0.3057 -0.12137,0.64895 -0.17967,0.76277 -0.0597,0.11656 -0.0577,0.33235 0.005,0.49406 0.10457,0.27157 0.12446,0.25702 0.36726,-0.26871 0.29515,-0.63909 0.35634,-0.46458 0.074,0.21111 -0.13302,0.31835 -0.1496,0.48872 -0.0566,0.5817 0.093,0.093 0.1642,0.0786 0.24315,-0.0492 0.17945,-0.29036 0.28852,-0.0477 0.15312,0.34067 -0.14569,0.41794 0.10766,1.591 0.3325,1.53955 0.0939,-0.0215 0.10792,0.0782 0.0435,0.30879 -0.0524,0.18729 -0.0952,0.60454 -0.0952,0.92722 0,0.33757 -0.0566,0.5867 -0.13333,0.5867 -0.0761,0 -0.13946,0.2696 -0.14762,0.62765 -0.0113,0.49693 -0.08,0.69338 -0.32986,0.94321 -0.17356,0.17356 -0.31556,0.3821 -0.31556,0.46341 0,0.2017 0.15245,0.33921 0.2386,0.21522 0.0386,-0.0556 0.27577,-0.25535 0.52704,-0.44399 z m -9.80351,-0.17708 c 0.0398,-0.28115 0.034,-0.28269 -0.33967,-0.0895 -0.47193,0.24405 -0.49371,0.46677 -0.0405,0.41463 0.24649,-0.0284 0.35079,-0.11756 0.38021,-0.32516 z m -2.40197,-0.33792 c 0.0422,-0.10992 0.0215,-0.1595 -0.0485,-0.11622 -0.0672,0.0415 -0.12211,0.12776 -0.12211,0.19169 0,0.17766 0.0885,0.13851 0.17065,-0.0755 z m 2.24518,0.0147 c 0.18043,-0.13316 0.2048,-0.21244 0.0985,-0.32037 -0.21645,-0.21973 -0.5951,-0.089 -0.63929,0.22068 -0.0459,0.32175 0.18282,0.36391 0.54081,0.0997 z m -1.78317,-0.40047 c -0.14561,-0.2504 -0.18077,-0.17025 -0.0616,0.14035 0.0424,0.11039 0.10303,0.17468 0.13484,0.14288 0.0318,-0.0318 -0.001,-0.15926 -0.0733,-0.28323 z m 0.81871,-0.009 c 0.0301,-0.0906 -0.055,-0.15439 -0.20592,-0.15439 -0.15172,0 -0.25732,0.0797 -0.25732,0.19433 0,0.227 0.38542,0.19378 0.46324,-0.0399 z m 1.51301,0.0999 c 0,-0.14573 -0.2409,-0.30163 -0.32937,-0.21315 -0.0885,0.0885 0.0674,0.32937 0.21314,0.32937 0.0639,0 0.11623,-0.0523 0.11623,-0.11622 z m 8.89314,-0.007 c 0,-0.0679 -0.0556,-0.12352 -0.12351,-0.12352 -0.0679,0 -0.12352,0.0556 -0.12352,0.12352 0,0.0679 0.0556,0.12351 0.12352,0.12351 0.0679,0 0.12351,-0.0556 0.12351,-0.12351 z m -8.34597,-0.10952 c 0.0949,-0.15362 -0.2604,-0.42368 -0.42424,-0.32242 -0.0964,0.0596 -0.0936,0.13315 0.01,0.25766 0.16561,0.19955 0.31664,0.22314 0.41453,0.0648 z m -1.17763,-0.25045 c 0.0948,-0.06 0.13881,-0.19668 0.0978,-0.30364 -0.0441,-0.11497 0.0116,-0.24315 0.1364,-0.31356 0.15441,-0.0871 0.17439,-0.15613 0.0745,-0.25713 -0.14385,-0.14544 -0.78984,-0.046 -0.78984,0.12164 0,0.094 -0.47088,0.2862 -0.64402,0.26289 -0.0485,-0.007 -0.0545,0.0758 -0.0134,0.18297 0.0737,0.19214 0.29354,0.19001 0.84271,-0.008 0.19909,-0.0718 0.18711,-0.0395 -0.0618,0.16664 -0.28413,0.23535 -0.28906,0.25585 -0.0618,0.25664 0.13587,4.7e-4 0.32461,-0.0483 0.41943,-0.1083 z m 1.7421,-0.15887 c 0,-0.067 -0.10732,-0.14993 -0.23848,-0.18423 -0.13117,-0.0343 -0.26838,-0.14027 -0.30492,-0.23547 -0.0781,-0.20355 -0.44472,-0.23489 -0.44472,-0.038 0,0.0743 0.10602,0.1628 0.23561,0.19669 0.12959,0.0339 0.2634,0.16787 0.29736,0.29773 0.0631,0.24142 0.45515,0.2098 0.45515,-0.0367 z m -3.58196,0.0248 c 0,-0.0679 -0.0556,-0.12352 -0.12351,-0.12352 -0.0679,0 -0.12352,0.0556 -0.12352,0.12352 0,0.0679 0.0556,0.12351 0.12352,0.12351 0.0679,0 0.12351,-0.0556 0.12351,-0.12351 z m 0.49407,0 c 0,-0.0679 -0.0556,-0.12352 -0.12352,-0.12352 -0.0679,0 -0.12351,0.0556 -0.12351,0.12352 0,0.0679 0.0556,0.12351 0.12351,0.12351 0.0679,0 0.12352,-0.0556 0.12352,-0.12351 z m 9.60053,-0.11554 c -0.0361,-0.13821 0.01,-0.26684 0.10911,-0.30492 0.0944,-0.0362 0.17163,-0.18738 0.17163,-0.33591 0,-0.25898 -0.01,-0.26121 -0.23845,-0.0543 -0.24435,0.22114 -0.31984,0.93414 -0.0989,0.93414 0.0655,0 0.091,-0.10757 0.0566,-0.23905 z m -7.44765,0.006 c 0.0372,-0.0602 -0.0193,-0.18172 -0.12565,-0.26996 -0.15926,-0.13218 -0.21199,-0.13025 -0.29927,0.011 -0.0583,0.0943 -0.0786,0.21578 -0.0451,0.26997 0.0818,0.13243 0.38573,0.12532 0.46997,-0.011 z m 6.31017,-0.6246 c -0.0467,-0.14718 -0.1497,-0.24604 -0.22885,-0.21969 -0.17651,0.0588 -0.25333,0.40444 -0.14982,0.67417 0.1254,0.3268 0.48837,-0.10883 0.37867,-0.45448 z m -9.08063,0.36358 c 0,-0.0679 -0.0556,-0.12352 -0.12352,-0.12352 -0.0679,0 -0.12351,0.0556 -0.12351,0.12352 0,0.0679 0.0556,0.12351 0.12351,0.12351 0.0679,0 0.12352,-0.0556 0.12352,-0.12351 z m 9.86084,-0.73862 c 0.0589,-0.39578 -0.14325,-0.54687 -0.37895,-0.28331 -0.19453,0.21753 -0.26092,0.43396 -0.23284,0.75908 0.0238,0.27544 0.56237,-0.1434 0.61179,-0.47577 z m -8.50217,0.16822 c 0,-0.1019 -0.0556,-0.15092 -0.12351,-0.10894 -0.0679,0.042 -0.12352,0.15971 -0.12352,0.26161 0,0.1019 0.0556,0.15092 0.12352,0.10894 0.0679,-0.042 0.12351,-0.15971 0.12351,-0.26161 z m 10.25182,0.19985 c 0,-0.0679 -0.0556,-0.12352 -0.12352,-0.12352 -0.0679,0 -0.12351,0.0556 -0.12351,0.12352 0,0.0679 0.0556,0.12352 0.12351,0.12352 0.0679,0 0.12352,-0.0556 0.12352,-0.12352 z m -8.92549,-0.2088 c -0.11484,-0.11484 -0.24348,-0.17412 -0.28587,-0.13173 -0.12156,0.12156 0.065,0.34053 0.29022,0.34053 0.18854,0 0.1882,-0.0162 -0.004,-0.2088 z m -2.19094,-0.42792 c 0,-0.0574 -0.0556,-0.10437 -0.12351,-0.10437 -0.0679,0 -0.12352,0.0816 -0.12352,0.18139 0,0.1105 -0.0724,0.15361 -0.18527,0.1103 -0.18697,-0.0717 -0.25549,0.091 -0.10266,0.24381 0.0915,0.0915 0.53496,-0.26592 0.53496,-0.43113 z m 0.12352,0.38969 c 0,-0.0679 -0.0245,-0.12352 -0.0545,-0.12352 -0.03,0 -0.0888,0.0556 -0.13081,0.12352 -0.042,0.0679 -0.0175,0.12351 0.0545,0.12351 0.0719,0 0.13081,-0.0556 0.13081,-0.12351 z m 1.23412,0.003 c 0.14995,-0.0948 0.15474,-0.14599 0.0257,-0.27499 -0.12899,-0.12899 -0.18019,-0.1242 -0.27498,0.0257 -0.14139,0.22363 -0.1524,0.37017 -0.0276,0.36762 0.051,-0.001 0.17554,-0.0543 0.27687,-0.11837 z m 8.46187,-0.12677 c 0.042,-0.0679 0.0175,-0.12351 -0.0545,-0.12351 -0.0719,0 -0.13081,0.0556 -0.13081,0.12351 0,0.0679 0.0245,0.12352 0.0545,0.12352 0.03,0 0.0888,-0.0556 0.13081,-0.12352 z m 1.1734,-0.19256 c 0,-0.0979 -0.0556,-0.17798 -0.12351,-0.17798 -0.0679,0 -0.12352,0.11444 -0.12352,0.25432 0,0.13987 0.0556,0.21997 0.12352,0.17798 0.0679,-0.042 0.12351,-0.15643 0.12351,-0.25432 z m -2.66569,0.11759 c 0.10745,-0.0412 0.19537,-0.15835 0.19537,-0.26025 0,-0.1182 -0.0707,-0.15813 -0.19537,-0.1103 -0.10746,0.0412 -0.21862,0.075 -0.24703,0.075 -0.0284,0 -0.0517,0.0834 -0.0517,0.18527 0,0.20788 0.0226,0.21624 0.29868,0.1103 z m 2.96921,-0.04 c 0.0391,-0.0632 0.0146,-0.14989 -0.0545,-0.19256 -0.069,-0.0427 -0.12553,0.009 -0.12553,0.11498 0,0.21696 0.0741,0.2489 0.17999,0.0776 z m -1.55835,-0.73264 c -0.20646,-0.0737 -0.38996,0.19725 -0.29659,0.43789 0.0784,0.20214 0.10375,0.19375 0.25457,-0.0843 0.10532,-0.19419 0.12091,-0.32541 0.042,-0.35356 z m -8.311,0.3428 c 0.0456,-0.0739 0.0188,-0.19845 -0.0596,-0.27688 -0.10778,-0.10779 -0.1695,-0.0991 -0.25282,0.0357 -0.11772,0.19049 -0.0584,0.37542 0.12051,0.37542 0.0599,0 0.14628,-0.0604 0.19193,-0.13428 z m 7.81647,-0.27726 c 0.24402,-0.25176 0.37055,-0.48534 0.32593,-0.60164 -0.0424,-0.11045 0.008,-0.22104 0.11942,-0.26393 0.24369,-0.0935 0.25277,-0.45212 0.0114,-0.45212 -0.26521,0 -0.48836,0.46821 -0.3199,0.67119 0.10212,0.12305 0.0309,0.23993 -0.30022,0.49246 -0.40809,0.31126 -0.55864,0.56558 -0.33483,0.56558 0.0546,0 0.27878,-0.18519 0.49816,-0.41154 z m -7.14378,-0.0738 c 0,-0.0473 -0.1577,-0.23708 -0.35044,-0.42174 -0.35548,-0.34057 -0.7612,-0.34769 -0.7612,-0.0133 0,0.23746 0.24514,0.35416 0.40601,0.19329 0.20349,-0.20349 0.38979,-0.16692 0.21606,0.0424 -0.0821,0.0989 -0.11664,0.23266 -0.0768,0.29719 0.0786,0.12722 0.56633,0.043 0.56633,-0.0978 z m 8.33732,-0.50276 c 0.042,-0.0679 0.0207,-0.12352 -0.0472,-0.12352 -0.0679,0 -0.15787,0.0556 -0.19985,0.12352 -0.042,0.0679 -0.0207,0.12351 0.0472,0.12351 0.0679,0 0.15786,-0.0556 0.19985,-0.12351 z m -8.75124,-0.67596 c -0.0527,-0.14665 -0.57846,-0.11029 -0.73992,0.0512 -0.0601,0.0601 -0.0749,0.16471 -0.033,0.23255 0.0998,0.16153 0.83584,-0.10865 0.77289,-0.28372 z m 8.67404,0.12014 c 0.0374,-0.14954 -0.155,-0.10625 -0.20586,0.0463 -0.0311,0.0934 -0.001,0.13509 0.0669,0.0926 0.0679,-0.0425 0.13047,-0.10499 0.13896,-0.13895 z m -1.46805,-0.24546 c 0.0838,-0.10104 0.11971,-0.26904 0.0797,-0.37335 -0.0607,-0.15814 -0.11427,-0.16373 -0.32261,-0.0336 -0.28269,0.17654 -0.33855,0.59067 -0.0797,0.59067 0.0936,0 0.23875,-0.0827 0.32261,-0.1837 z m -8.27426,-0.0633 c 0,-0.0679 -0.0556,-0.12352 -0.12352,-0.12352 -0.0679,0 -0.12351,0.0556 -0.12351,0.12352 0,0.0679 0.0556,0.12351 0.12351,0.12351 0.0679,0 0.12352,-0.0556 0.12352,-0.12351 z m 8.95998,-0.008 c 0.13293,-0.2151 -0.0185,-0.26065 -0.18788,-0.0565 -0.0974,0.11739 -0.10679,0.18826 -0.0249,0.18826 0.0722,0 0.16799,-0.0593 0.21277,-0.13173 z m 1.28315,-0.45497 c 0.005,-0.0849 -0.0469,-0.15439 -0.11483,-0.15439 -0.0679,0 -0.11961,0.18064 -0.11484,0.40142 0.007,0.3364 0.0259,0.36141 0.11484,0.1544 0.0584,-0.13587 0.11006,-0.31651 0.11483,-0.40143 z m -9.1755,0.20143 c 0.29029,-0.24092 0.0532,-0.34606 -0.41493,-0.184 -0.60335,0.20889 -0.72229,0.51526 -0.15607,0.40201 0.22341,-0.0447 0.48036,-0.14279 0.571,-0.21801 z m 8.69012,-0.38972 c 0,-0.24905 -0.31145,0.0146 -0.3433,0.2906 -0.0334,0.28967 -0.0285,0.29154 0.1544,0.0594 0.10389,-0.13187 0.1889,-0.28935 0.1889,-0.34996 z m -0.92665,0.28139 c 0.0418,-0.0677 0.0959,-0.22052 0.12017,-0.33966 0.0243,-0.11914 0.0826,-0.31389 0.12973,-0.43277 0.13758,-0.34739 -0.11712,-0.249 -0.42163,0.16287 -0.15412,0.20846 -0.24969,0.45858 -0.21237,0.55582 0.0785,0.20467 0.27392,0.23201 0.3841,0.0537 z m 0.10424,-1.20502 c 0.2415,-0.40106 -0.0912,-0.2953 -0.49569,0.15757 l -0.43869,0.49117 0.32886,-0.46319 c 0.18087,-0.25475 0.29498,-0.46318 0.25358,-0.46318 -0.20278,0 -1.03132,0.79269 -0.95452,0.91322 0.0479,0.0752 0.0949,0.17835 0.10441,0.2293 0.01,0.051 0.0243,0.1269 0.0328,0.16877 0.0191,0.0942 1.0263,-0.79621 1.16928,-1.03366 z m -0.23394,-0.64103 c 0.1194,-0.13194 0.19642,-0.30189 0.17116,-0.37768 -0.0253,-0.0758 -0.17158,0.0322 -0.32516,0.23988 -0.3073,0.41564 -0.19134,0.51939 0.154,0.1378 z m 0.80539,-0.36194 c -0.003,-0.16889 -0.0329,-0.16269 -0.18527,0.0387 -0.23604,0.31207 -0.23354,0.51314 0.004,0.31606 0.1019,-0.0846 0.18351,-0.24422 0.18134,-0.35479 z m -0.0441,-0.54513 c 0.32222,-0.49784 0.47427,-0.95281 0.31842,-0.95281 -0.0643,0 -0.18516,0.1649 -0.26864,0.36645 -0.0835,0.20155 -0.22918,0.43068 -0.32377,0.50918 -0.18161,0.15072 -0.23655,0.4841 -0.0793,0.48151 0.051,-8.4e-4 0.20995,-0.18279 0.35334,-0.40433 z m -5.01607,-0.95281 c 0,-0.20381 -0.0556,-0.37055 -0.12351,-0.37055 -0.13739,0 -0.17048,0.52945 -0.0412,0.65875 0.13954,0.13954 0.16469,0.0955 0.16469,-0.2882 z m 1.19254,0.0564 c 0.10003,-0.26066 -0.0669,-0.40139 -0.20923,-0.17637 -0.15121,0.23909 -0.14818,0.36697 0.009,0.36697 0.0701,0 0.1603,-0.0858 0.20053,-0.1906 z m -0.49058,-0.20311 c -0.0394,-0.0985 -0.0687,-0.0693 -0.0746,0.0746 -0.005,0.13021 0.0238,0.20316 0.0649,0.16212 0.041,-0.041 0.0454,-0.14758 0.01,-0.23674 z m 0.90375,0.0232 c 0,-0.13587 -0.0556,-0.24703 -0.12352,-0.24703 -0.0679,0 -0.12351,0.11116 -0.12351,0.24703 0,0.13587 0.0556,0.24703 0.12351,0.24703 0.0679,0 0.12352,-0.11116 0.12352,-0.24703 z m 0.98813,-0.18527 c 0.45265,-0.33396 0.37698,-0.40963 -0.12352,-0.12352 -0.36521,0.20877 -0.53846,0.23352 -0.4323,0.0618 0.042,-0.0679 0.0175,-0.12352 -0.0545,-0.12352 -0.15151,0 -0.15772,0.0332 -0.0558,0.29869 0.10029,0.26135 0.17551,0.24855 0.66612,-0.11341 z m 2.1111,-0.45348 c 0.10477,-0.19577 0.10052,-0.24256 -0.0184,-0.20291 -0.085,0.0283 -0.20084,0.17654 -0.25737,0.32934 -0.12496,0.33781 0.0768,0.24529 0.27578,-0.12643 z m -12.36292,-0.1015 c 0,-0.2259 -0.42749,-1.11249 -0.53641,-1.11249 -0.0592,0 -0.0656,0.0973 -0.0144,0.21615 0.0513,0.11889 0.15419,0.3968 0.22871,0.61758 0.12784,0.37879 0.32207,0.5469 0.32207,0.27876 z m -0.52286,-0.46844 c -0.0786,-0.18439 -0.19394,-0.40403 -0.25619,-0.48808 -0.0623,-0.084 -0.0816,-0.23512 -0.043,-0.33571 0.0386,-0.10059 0.01,-0.22038 -0.0646,-0.2662 -0.15859,-0.098 -0.0259,0.99004 0.16396,1.34489 0.1859,0.3474 0.36131,0.12366 0.19984,-0.2549 z m -0.6597,-0.43812 c -0.0435,-0.11326 -0.13461,-0.20593 -0.20254,-0.20593 -0.0679,0 -0.0898,0.0879 -0.0485,0.19538 0.0412,0.10745 0.075,0.25753 0.075,0.33349 0,0.095 0.0398,0.0983 0.12756,0.0105 0.0702,-0.0702 0.092,-0.22023 0.0485,-0.33349 z m -0.42314,-0.14417 c 0,-0.1019 -0.0556,-0.18527 -0.12352,-0.18527 -0.0679,0 -0.12352,0.0834 -0.12352,0.18527 0,0.1019 0.0556,0.18527 0.12352,0.18527 0.0679,0 0.12352,-0.0834 0.12352,-0.18527 z m 1.34999,-1.39684 c -0.008,-0.29679 -0.02,-0.30593 -0.11484,-0.0854 -0.14745,0.34315 -0.14745,0.5852 0,0.49406 0.0679,-0.042 0.11961,-0.2259 0.11484,-0.40871 z m -0.36187,0.0309 c 0,-0.0979 -0.0556,-0.17799 -0.12351,-0.17799 -0.0679,0 -0.12352,0.11445 -0.12352,0.25432 0,0.13988 0.0556,0.21997 0.12352,0.17799 0.0679,-0.042 0.12351,-0.15643 0.12351,-0.25432 z m -1.97625,-0.0545 c 0,-0.0679 -0.0556,-0.12352 -0.12352,-0.12352 -0.0679,0 -0.12351,0.0556 -0.12351,0.12352 0,0.0679 0.0556,0.12351 0.12351,0.12351 0.0679,0 0.12352,-0.0556 0.12352,-0.12351 z m 1.48219,-0.37055 c 0,-0.0679 -0.0556,-0.12352 -0.12352,-0.12352 -0.0679,0 -0.12351,0.0556 -0.12351,0.12352 0,0.0679 0.0556,0.12352 0.12351,0.12352 0.0679,0 0.12352,-0.0556 0.12352,-0.12352 z m -0.37055,-0.39113 c 0,-0.14719 -0.0366,-0.23105 -0.0813,-0.18635 -0.0447,0.0447 -0.15586,0.0194 -0.24703,-0.0563 -0.23468,-0.19477 -0.20571,-0.0333 0.047,0.26181 0.26576,0.31038 0.28134,0.30932 0.28134,-0.0192 z m 0.98813,-0.34996 c 0,-0.0679 -0.0556,-0.12352 -0.12352,-0.12352 -0.0679,0 -0.12351,0.0556 -0.12351,0.12352 0,0.0679 0.0556,0.12351 0.12351,0.12351 0.0679,0 0.12352,-0.0556 0.12352,-0.12351 z m -1.23516,-0.61758 c 0,-0.0679 -0.0556,-0.12352 -0.12352,-0.12352 -0.0679,0 -0.12351,0.0556 -0.12351,0.12352 0,0.0679 0.0556,0.12351 0.12351,0.12351 0.0679,0 0.12352,-0.0556 0.12352,-0.12351 z m 5.80463,-3.86624 c -6.9e-4,-0.16545 -0.60553,0.52947 -0.61252,0.70374 -0.002,0.0609 0.13451,-0.0393 0.30434,-0.22252 0.16984,-0.18325 0.30852,-0.3998 0.30818,-0.48122 z m 0.24765,0.35332 c 0,-0.03 -0.0556,-0.0888 -0.12352,-0.1308 -0.0679,-0.042 -0.12351,-0.0175 -0.12351,0.0545 0,0.0719 0.0556,0.1308 0.12351,0.1308 0.0679,0 0.12352,-0.0245 0.12352,-0.0545 z m 0.12351,-0.43959 c 0,-0.0679 -0.0556,-0.12352 -0.12351,-0.12352 -0.0679,0 -0.12352,0.0556 -0.12352,0.12352 0,0.0679 0.0556,0.12352 0.12352,0.12352 0.0679,0 0.12351,-0.0556 0.12351,-0.12352 z m 0.37055,0 c 0,-0.0679 -0.0556,-0.12352 -0.12352,-0.12352 -0.0679,0 -0.12351,0.0556 -0.12351,0.12352 0,0.0679 0.0556,0.12352 0.12351,0.12352 0.0679,0 0.12352,-0.0556 0.12352,-0.12352 z m -2.02561,-1.41499 c -0.0419,-0.16683 -0.1379,-0.45864 -0.21338,-0.64845 -0.20421,-0.51347 -0.29347,-0.10481 -0.1031,0.47202 0.17207,0.52136 0.44063,0.67108 0.31648,0.17643 z m 0.69164,-0.46245 c -0.11528,-0.11528 -0.14822,-0.0823 -0.14822,0.14822 0,0.23056 0.0329,0.2635 0.14822,0.14822 0.11528,-0.11528 0.11528,-0.18116 0,-0.29644 z m -0.51877,-0.65464 c 0,-0.16983 -0.051,-0.30878 -0.11322,-0.30878 -0.14468,0 -0.23783,0.26284 -0.16416,0.46318 0.0983,0.26735 0.27738,0.16768 0.27738,-0.1544 z m 0.37055,-0.007 c 0,-0.17927 -0.0535,-0.28304 -0.12352,-0.23975 -0.0679,0.042 -0.12351,0.18422 -0.12351,0.31608 0,0.13186 0.0556,0.23974 0.12351,0.23974 0.0679,0 0.12352,-0.14223 0.12352,-0.31607 z m -0.61758,-0.98084 c 0,-0.23777 -0.0556,-0.43231 -0.12352,-0.43231 -0.0679,0 -0.12351,0.19454 -0.12351,0.43231 0,0.23777 0.0556,0.4323 0.12351,0.4323 0.0679,0 0.12352,-0.19453 0.12352,-0.4323 z m 0.49406,0 c 0,-0.23777 -0.0556,-0.43231 -0.12351,-0.43231 -0.0679,0 -0.12352,0.19454 -0.12352,0.43231 0,0.23777 0.0556,0.4323 0.12352,0.4323 0.0679,0 0.12351,-0.19453 0.12351,-0.4323 z m 1.24674,-0.2231 c -0.0978,-0.0978 -0.13509,-0.0657 -0.13509,0.11605 0,0.32655 0.17273,0.49987 0.22773,0.22852 0.0233,-0.11521 -0.0183,-0.27026 -0.0926,-0.34457 z m -2.181,-0.42536 c -0.0481,-0.39062 -0.10341,-0.79359 -0.12295,-0.89549 -0.0195,-0.1019 -0.0398,-0.25475 -0.045,-0.33967 -0.016,-0.26071 -0.25648,-0.1708 -0.25648,0.0959 0,0.47275 0.30341,1.8495 0.4076,1.8495 0.0573,0 0.0649,-0.3196 0.0168,-0.71022 z m 4.85846,0.31651 c -0.0269,-0.0807 -0.11493,-0.16869 -0.19565,-0.1956 -0.0903,-0.0301 -0.11786,0.0264 -0.0717,0.14668 0.0861,0.22452 0.34146,0.27123 0.26736,0.0489 z m -1.88772,-1.18663 c -0.10633,-1.54981 -0.2268,-2.4049 -0.30807,-2.18663 -0.1115,0.29942 0.12457,2.85478 0.24564,2.6589 0.0469,-0.076 0.075,-0.28848 0.0624,-0.47227 z m 7.26263,-4.49834 c 0.0154,-1.55289 -0.0219,-2.35627 -0.11365,-2.44804 -0.0998,-0.0998 -0.15409,0.60629 -0.20148,2.62023 -0.0424,1.80143 -0.11918,2.88964 -0.22158,3.14004 -0.0902,0.22049 -0.11578,0.48274 -0.0603,0.61758 0.0724,0.176 0.15585,0.004 0.33523,-0.692 0.18884,-0.73232 0.24369,-1.41056 0.26183,-3.23781 z m -6.37644,0.48958 c -0.0343,-0.0849 -0.0623,-0.0154 -0.0623,0.1544 0,0.16983 0.028,0.23931 0.0623,0.15439 0.0343,-0.0849 0.0343,-0.22387 0,-0.30879 z m 6.73224,-1.23301 c -0.10991,-0.10991 -0.1422,-0.0429 -0.13583,0.28194 0.008,0.40019 0.0166,0.40897 0.14419,0.14419 0.10043,-0.20846 0.0983,-0.31952 -0.008,-0.42613 z"
       style="fill:#000000"
       id="path1-65" /></g></svg>
