<?xml version="1.0" encoding="UTF-8" standalone="no" ?>
<!-- Created with Inkscape (http://www.inkscape.org/) -->
<svg
    width="11.2804mm"
    height="41.334808mm"
    viewBox="0 0 11.2804 41.334808"
    version="1.1"
    id="svg1"
    xml:space="preserve"
    xmlns="http://www.w3.org/2000/svg"
    xmlns:svg="http://www.w3.org/2000/svg"
><defs id="defs1" /><g
        id="layer1"
        transform="translate(-138.60967,-101.01455)"
    ><path
            d="m 142.98052,141.87608 c -0.85046,-1.08785 -1.15697,-1.50809 -1.30238,-1.78563 -0.0845,-0.16136 -0.46841,-0.71025 -0.85304,-1.21975 -1.08034,-1.43108 -1.93813,-2.94484 -2.10963,-3.72292 -0.22232,-1.00866 -0.0982,-2.37117 0.40921,-4.49088 1.06371,-4.4439 1.2736,-5.80309 1.37327,-8.89314 0.0895,-2.77591 0.23325,-4.47313 0.57002,-6.73162 0.12662,-0.84917 0.26199,-1.84965 0.30083,-2.22328 0.0388,-0.37364 0.14927,-1.01283 0.24541,-1.42043 0.0961,-0.40761 0.29386,-1.46367 0.43938,-2.34681 0.32515,-1.97322 0.69591,-3.29869 1.57201,-5.61997 0.94515,-2.5042 0.96378,-2.53324 1.49555,-2.33106 0.51823,0.19703 1.16258,1.24708 1.67053,2.72236 0.27202,0.79003 0.3261,1.16328 0.3261,2.25042 0,0.71682 0.0831,1.87471 0.18457,2.57309 0.10151,0.69838 0.23924,2.40921 0.30606,3.80185 0.22544,4.69826 0.36874,7.22347 0.43457,7.65798 0.35179,2.32161 0.54802,4.00704 0.6112,5.24942 0.0762,1.49788 0.31658,3.04963 0.90897,5.86701 0.38127,1.81327 0.4346,3.90862 0.13068,5.13443 -0.25945,1.04648 -1.18861,2.54303 -2.39624,3.8595 -1.80762,1.97053 -1.89653,2.03258 -2.99695,2.0917 l -0.95009,0.051 z m 2.01908,-0.36321 c 0.46269,-0.29296 1.99467,-1.76256 1.99467,-1.91345 0,-0.0611 0.0794,-0.11114 0.17645,-0.11114 0.26385,0 1.23466,-0.99192 1.42042,-1.45131 0.0893,-0.22079 0.21116,-0.40143 0.27085,-0.40143 0.0597,0 0.10853,-0.0929 0.10853,-0.20643 0,-0.11353 0.0946,-0.31094 0.2102,-0.43869 0.29836,-0.32969 0.30362,-3.7193 0.008,-4.97485 -0.11207,-0.47554 -0.2949,-1.36485 -0.40629,-1.97625 -0.21675,-1.18972 -0.9672,-3.88024 -1.20906,-4.33475 -0.13294,-0.24981 -1.07462,-1.05577 -2.25285,-1.92813 l -0.45126,-0.33411 0.35243,-0.0776 c 0.67012,-0.14761 0.73664,-0.21208 0.3165,-0.30679 -0.51253,-0.11553 -0.89175,-0.45296 -0.88599,-0.78836 0.004,-0.23431 0.0327,-0.2242 0.30332,0.10696 0.32671,0.39977 0.53673,0.36707 0.31411,-0.0489 -0.17329,-0.3238 -0.0565,-0.5353 0.24309,-0.44022 0.15399,0.0489 0.24309,10e-4 0.27811,-0.14937 0.032,-0.13766 0.0877,-0.0463 0.14731,0.2419 0.10107,0.48874 0.31532,0.63561 0.31532,0.21615 0,-0.13587 -0.0502,-0.24703 -0.11159,-0.24703 -0.0614,0 -0.13086,-0.27795 -0.1544,-0.61766 -0.0235,-0.33971 -0.001,-0.61762 0.0498,-0.61758 0.051,5e-5 0.0926,0.13576 0.0926,0.30158 0,0.16583 0.0607,0.33901 0.13488,0.38486 0.13177,0.0814 0.12612,-0.0737 -0.0812,-2.23031 -0.0588,-0.61202 -0.0578,-0.61424 0.11871,-0.24703 0.16653,0.34653 0.17988,0.27049 0.20606,-1.1734 0.0154,-0.84917 0.0162,-1.71902 0.002,-1.93299 -0.0144,-0.21397 0.0278,-0.42241 0.0938,-0.46321 0.066,-0.0408 0.089,-0.30499 0.0512,-0.58711 -0.0436,-0.32517 -0.0238,-0.48514 0.0541,-0.43699 0.0711,0.0439 0.15624,1.18425 0.202,2.70538 0.0959,3.18605 0.26601,4.88576 0.51687,5.16296 0.10117,0.11179 0.18395,0.37952 0.18395,0.59496 0,0.37084 0.15431,0.51812 0.29847,0.28487 0.0728,-0.1178 -0.0837,-2.13474 -0.36551,-4.71029 -0.10575,-0.96648 -0.18193,-2.8157 -0.18122,-4.39883 6.7e-4,-1.50226 -0.0526,-3.015 -0.11831,-3.36167 -0.0657,-0.34666 -0.23343,-1.75071 -0.37265,-3.1201 -0.18476,-1.81751 -0.33817,-2.74415 -0.56811,-3.43171 -0.17325,-0.51804 -0.36684,-0.9947 -0.4302,-1.05924 -0.0634,-0.0645 -0.11548,-0.20349 -0.1158,-0.30878 -7e-4,-0.22612 -0.78986,-1.11782 -0.98928,-1.11782 -0.51978,0 -2.40936,6.17535 -2.83457,9.26368 -0.0701,0.50951 -0.18213,1.28766 -0.24884,1.72923 -0.0667,0.44157 -0.12241,1.16415 -0.12378,1.60575 -0.001,0.44159 -0.0874,1.19195 -0.1911,1.66746 -0.23819,1.09183 -0.40915,5.99047 -0.20906,5.99047 0.0738,0 0.15183,-0.14946 0.17332,-0.33215 0.0355,-0.30174 0.0813,-0.26081 0.5001,0.44715 0.3177,0.53705 0.42821,0.83792 0.3555,0.96785 -0.0827,0.14781 -0.17821,0.0645 -0.44188,-0.38539 -0.45283,-0.77269 -0.64465,-0.73296 -0.24728,0.0512 0.18738,0.36979 0.28594,0.72235 0.24127,0.86309 -0.0668,0.21064 -0.0285,0.2298 0.33375,0.16702 0.2251,-0.039 0.47875,-0.0922 0.56366,-0.11812 0.19535,-0.0597 0.52495,0.063 0.52495,0.19548 0,0.0553 -0.15897,0.1354 -0.35327,0.17808 -0.1943,0.0427 -0.67864,0.33972 -1.07633,0.6601 -0.79037,0.63674 -0.84076,0.73937 -1.28494,2.61686 -0.15268,0.64537 -0.37723,1.5069 -0.49899,1.9145 -0.12177,0.4076 -0.31682,1.18575 -0.43344,1.72922 -0.11661,0.54347 -0.26819,1.05824 -0.33684,1.14394 -0.0687,0.0857 -0.15086,0.79064 -0.1827,1.56655 l -0.0579,1.41076 0.63585,1.21587 c 0.34972,0.66874 0.91054,1.53779 1.24628,1.93123 0.33573,0.39344 0.81357,1.08672 1.06185,1.54062 0.77829,1.42284 1.17774,2.00169 1.49662,2.16877 0.37637,0.1972 1.09017,0.089 1.61813,-0.24528 z m 0.8605,-2.32554 c -0.0273,-0.23346 0.0127,-0.73631 0.0888,-1.11745 0.0761,-0.38114 0.0945,-0.72012 0.0408,-0.7533 -0.15137,-0.0936 0.12248,-0.70767 0.41661,-0.93427 0.46103,-0.35519 0.60119,-0.15674 0.33231,0.47052 -0.26003,0.60663 -0.31534,0.95862 -0.10359,0.65919 0.0986,-0.13942 0.14653,-0.14706 0.19368,-0.0309 0.1146,0.28243 0.28132,0.16022 0.58976,-0.43231 0.16798,-0.32269 0.308,-0.5018 0.31116,-0.39803 0.003,0.10377 -0.0833,0.3158 -0.19212,0.47117 -0.10883,0.15538 -0.16383,0.31654 -0.12223,0.35815 0.15806,0.15805 0.83313,-0.66889 1.20544,-1.47663 0.21331,-0.46278 0.41019,-0.81908 0.43751,-0.79176 0.0821,0.0821 -0.73336,1.98047 -0.91585,2.13201 -0.0931,0.0773 -0.15324,0.19483 -0.13371,0.2612 0.0623,0.2119 -1.76741,2.00684 -2.04575,2.00684 -0.0293,0 -0.0756,-0.19101 -0.1028,-0.42446 z m 0.6401,-2.16937 c 0,-0.0679 -0.0589,-0.12351 -0.1308,-0.12351 -0.072,0 -0.0965,0.0556 -0.0545,0.12351 0.042,0.0679 0.10085,0.12352 0.1308,0.12352 0.03,0 0.0545,-0.0556 0.0545,-0.12352 z m -5.45386,0.7659 c -0.51697,-0.73141 -0.51445,-1.13645 0.007,-1.13645 0.29102,0 0.38398,0.0732 0.49407,0.38898 0.16758,0.48073 0.16788,0.51017 0.004,0.40901 -0.089,-0.055 -0.10449,0.0622 -0.048,0.36326 0.10666,0.56856 -0.0437,0.56041 -0.45734,-0.0248 z m -0.0283,-0.78297 c -0.21074,-0.30088 -0.24583,-0.23004 -0.11958,0.24139 0.0501,0.18718 0.11853,0.24415 0.19788,0.1648 0.0794,-0.0794 0.0523,-0.21976 -0.0783,-0.40619 z m 5.86057,0.0788 c 0,-0.0679 0.0816,-0.23141 0.18134,-0.36328 0.0997,-0.13187 0.18135,-0.18418 0.18135,-0.11624 0,0.0679 -0.0816,0.23141 -0.18135,0.36327 -0.0997,0.13187 -0.18134,0.18418 -0.18134,0.11625 z m -5.55632,-0.95337 c -0.007,-0.2419 0.0394,-0.31694 0.16597,-0.26836 0.0967,0.0371 0.20844,0.15269 0.24843,0.2569 0.0499,0.13003 0.0166,0.16797 -0.10598,0.12091 -0.0983,-0.0377 -0.20569,-0.002 -0.23868,0.0789 -0.033,0.0811 -0.0644,-0.004 -0.0697,-0.18833 z m 4.9,-0.26101 c -0.051,-0.12444 -0.0864,-0.70805 -0.0788,-1.29692 0.0133,-1.02876 0.0183,-1.04704 0.12918,-0.46724 0.13413,0.70157 0.0937,2.11613 -0.0504,1.76416 z m -6.5753,-0.76187 c -0.24335,-0.55666 -0.41303,-1.85142 -0.2028,-1.54753 0.1874,0.27089 0.30504,0.0666 0.13962,-0.24253 -0.0787,-0.14699 -0.10049,-0.36018 -0.0485,-0.47376 0.052,-0.11358 0.098,-0.31767 0.10215,-0.45353 0.004,-0.13587 0.0771,-0.23314 0.16201,-0.21616 0.0849,0.017 0.15439,-0.0247 0.15439,-0.0926 0,-0.0679 0.0628,-0.12352 0.13958,-0.12352 0.0934,0 0.11774,0.19374 0.0735,0.58595 -0.0363,0.32227 -0.0138,0.68355 0.05,0.80285 0.0638,0.1193 0.0675,0.21691 0.008,0.21691 -0.0594,0 -0.17135,-0.13896 -0.24873,-0.30879 -0.0774,-0.16984 -0.19358,-0.30879 -0.25821,-0.30879 -0.0646,0 0.0187,0.33526 0.18522,0.74502 0.2841,0.69916 0.29217,0.78089 0.13118,1.3278 l -0.17155,0.58277 z m 6.8032,-1.57483 c -0.0635,-0.31516 -0.10624,-0.36161 -0.19882,-0.21615 -0.091,0.14296 -0.11836,0.10603 -0.11982,-0.16169 -0.001,-0.19083 0.0499,-0.31498 0.11309,-0.27589 0.0632,0.0391 0.15813,0.001 0.21087,-0.0841 0.11023,-0.17834 0.25944,0.24868 0.27941,0.7996 0.0171,0.47089 -0.18628,0.42678 -0.28473,-0.0618 z m 1.12195,-1.85459 c -0.10525,-0.22181 -0.25293,-0.54141 -0.32817,-0.71022 -0.0752,-0.16881 -0.21696,-0.44589 -0.31494,-0.61572 -0.098,-0.16984 -0.17897,-0.45836 -0.17997,-0.64117 -0.002,-0.41316 -0.19162,-0.54791 -0.36103,-0.25692 -0.22582,0.38789 -0.14592,-0.0791 0.10096,-0.59007 0.12971,-0.26845 0.18529,-0.4881 0.12352,-0.4881 -0.0618,0 -0.11313,0.0417 -0.11414,0.0926 -0.001,0.051 -0.19436,0.31496 -0.42965,0.5867 l -0.42782,0.49406 0.38115,-0.71755 c 0.20962,-0.39465 0.34405,-0.75463 0.29873,-0.79996 -0.0453,-0.0453 -0.27823,0.13862 -0.51756,0.40876 -0.38259,0.43183 -0.40245,0.44182 -0.1644,0.0826 0.32403,-0.48893 0.20814,-0.70611 -0.14353,-0.26896 -0.17649,0.21939 -0.15472,0.13522 0.0763,-0.29507 0.42593,-0.7933 0.36363,-1.13546 -0.0904,-0.49651 -0.18682,0.26291 -0.33967,0.42747 -0.33967,0.36569 0,-0.0618 0.0923,-0.21431 0.2051,-0.33896 0.28514,-0.31507 0.10241,-0.44086 -0.22124,-0.15231 l -0.26469,0.23598 0.20217,-0.39529 c 0.27844,-0.54442 0.25984,-0.68954 -0.0748,-0.58334 -0.24023,0.0762 -0.2558,0.0624 -0.11752,-0.1042 0.0936,-0.11279 0.1113,-0.22184 0.0429,-0.26414 -0.0641,-0.0396 -0.1515,0.019 -0.19418,0.1302 -0.0427,0.11123 -0.10794,0.17191 -0.14502,0.13483 -0.0371,-0.0371 0.004,-0.18145 0.0909,-0.32085 0.20067,-0.32131 0.0573,-0.4775 -0.23081,-0.2514 -0.19556,0.15349 -0.2023,0.15042 -0.0626,-0.0285 0.0861,-0.11027 0.12458,-0.28374 0.0855,-0.38549 -0.0413,-0.10763 0.0152,-0.21806 0.13514,-0.26408 0.15122,-0.058 0.18657,-0.0281 0.1327,0.11225 -0.0421,0.10961 0.005,0.22138 0.10976,0.26165 0.10076,0.0387 0.18319,0.14772 0.18319,0.24235 0,0.26381 0.22016,0.20429 0.31175,-0.0843 0.0447,-0.14099 0.10817,-0.22952 0.14094,-0.19675 0.0328,0.0328 -0.0277,0.22834 -0.13434,0.4346 -0.10666,0.20626 -0.14437,0.40565 -0.0838,0.44308 0.0606,0.0374 0.14527,-0.0235 0.18822,-0.13547 0.0702,-0.18294 0.0956,-0.17974 0.25147,0.0316 0.16703,0.22653 0.17766,0.22384 0.29123,-0.0737 l 0.11787,-0.30879 0.13105,0.30879 c 0.0721,0.16984 0.21813,0.62556 0.32457,1.01272 0.10644,0.38716 0.24837,0.73783 0.31541,0.77927 0.14475,0.0895 0.14629,-0.0661 0.008,-0.78292 -0.0568,-0.29418 -0.0593,-0.48872 -0.005,-0.4323 0.0539,0.0564 0.24167,0.9363 0.41725,1.95531 0.17557,1.019 0.39771,2.17233 0.49364,2.56295 0.19204,0.78197 0.0849,0.93593 -0.21355,0.30694 z m -0.61701,-3.32536 c -0.0394,-0.0985 -0.0687,-0.0693 -0.0746,0.0746 -0.005,0.1302 0.0238,0.20316 0.0649,0.16211 0.0411,-0.041 0.0454,-0.14757 0.01,-0.23674 z m -0.82547,-0.59442 c 0,-0.0679 -0.0556,-0.12351 -0.12352,-0.12351 -0.0679,0 -0.12352,0.0556 -0.12352,0.12351 0,0.0679 0.0556,0.12352 0.12352,0.12352 0.0679,0 0.12352,-0.0556 0.12352,-0.12352 z m 0.37054,-0.069 c 0,-0.10591 -0.0556,-0.15822 -0.12351,-0.11623 -0.0679,0.042 -0.12352,0.12864 -0.12352,0.19256 0,0.0639 0.0556,0.11623 0.12352,0.11623 0.0679,0 0.12351,-0.0866 0.12351,-0.19256 z m -0.12351,-0.42502 c 0,-0.0679 -0.0556,-0.12352 -0.12352,-0.12352 -0.0679,0 -0.12351,0.0556 -0.12351,0.12352 0,0.0679 0.0556,0.12352 0.12351,0.12352 0.0679,0 0.12352,-0.0556 0.12352,-0.12352 z m -0.61758,-0.50135 c 0,-0.0639 -0.0834,-0.11623 -0.18528,-0.11623 -0.191,0 -0.24539,0.14575 -0.10628,0.28485 0.0987,0.0987 0.29156,-0.0129 0.29156,-0.16862 z m 0.49406,-0.0618 c 0,-0.0979 -0.0556,-0.17798 -0.12351,-0.17798 -0.0679,0 -0.12352,0.11444 -0.12352,0.25432 0,0.13987 0.0556,0.21997 0.12352,0.17798 0.0679,-0.042 0.12351,-0.15643 0.12351,-0.25432 z m -6.17304,5.0942 c -0.002,-0.0554 0.0632,-0.22217 0.14386,-0.37055 0.0806,-0.14839 0.19088,-0.5477 0.24498,-0.88737 0.0541,-0.33967 0.17696,-0.95107 0.27303,-1.35867 0.12954,-0.54962 0.17795,-0.64245 0.18733,-0.3593 0.007,0.20998 -0.0701,0.65464 -0.17128,0.98812 -0.10116,0.33349 -0.18577,0.80087 -0.18802,1.03864 -0.002,0.23777 -0.11277,0.57126 -0.24562,0.74109 -0.13285,0.16984 -0.24277,0.26345 -0.24428,0.20804 z m 4.25855,-7.98953 c -0.22058,-0.0948 -0.21144,-0.10709 0.0853,-0.11484 0.18281,-0.005 0.36673,0.0469 0.40872,0.11484 0.0911,0.14746 -0.15091,0.14746 -0.49406,0 z m -2.18871,-1.75625 c -0.29623,-0.45326 -0.7352,-1.35154 -0.68499,-1.40174 0.0254,-0.0254 0.25587,0.31847 0.51219,0.76413 0.25632,0.44566 0.4415,0.83484 0.4115,0.86484 -0.03,0.03 -0.13741,-0.0723 -0.2387,-0.22723 z m -0.14917,-1.16143 c -0.18082,-0.38192 -0.31198,-0.71119 -0.29144,-0.73173 0.0205,-0.0205 0.21973,0.29195 0.44267,0.6944 0.22294,0.40245 0.3541,0.73172 0.29145,0.73172 -0.0626,0 -0.26185,-0.31248 -0.44268,-0.69439 z m 0.13747,-0.60671 c -0.24288,-0.50932 -0.24937,-0.55164 -0.0846,-0.55164 0.0679,0 0.12352,0.0834 0.12352,0.18528 0,0.1019 0.0491,0.18527 0.10912,0.18527 0.06,0 0.13567,0.13896 0.16814,0.30879 0.0849,0.44421 -0.074,0.38001 -0.31614,-0.1277 z m 0.039,-0.86043 c -0.0161,-0.13586 -0.0168,-0.30261 -0.002,-0.37054 0.0153,-0.0679 0.0805,-0.53834 0.14487,-1.04534 0.0644,-0.507 0.16384,-0.97945 0.221,-1.04988 0.15349,-0.18916 0.35042,-1.65609 0.44831,-3.33948 0.0474,-0.8152 0.13094,-1.59335 0.18563,-1.72922 0.0634,-0.15757 0.0799,-0.0457 0.0455,0.30879 -0.0297,0.3057 -0.11236,1.33397 -0.18375,2.28504 -0.0714,0.95107 -0.18796,1.95155 -0.25905,2.22329 -0.0711,0.27173 -0.22879,1.04988 -0.35043,1.72922 -0.12165,0.67934 -0.23438,1.12399 -0.25053,0.98812 z m -0.20885,-3.08789 c 6.9e-4,-0.4076 0.0238,-0.55946 0.0512,-0.33746 0.0275,0.222 0.0269,0.5555 -0.001,0.7411 -0.0282,0.1856 -0.0507,0.004 -0.05,-0.40364 z m 0.53438,-1.48219 c 0.0374,-0.74727 0.11142,-1.60879 0.16451,-1.9145 0.15981,-0.92022 0.12596,0.0119 -0.0628,1.72923 l -0.1697,1.54394 z m -0.43271,0.0916 c -0.0401,-1.58682 1.40578,-8.6607 1.86175,-9.10824 0.0852,-0.0836 0.0973,-0.0293 0.0376,0.16797 -0.74357,2.45534 -0.94934,3.45657 -0.67564,3.28742 0.0843,-0.0521 0.0995,0.041 0.0444,0.27062 -0.11205,0.46646 -0.17117,0.51699 -0.18067,0.15445 l -0.008,-0.2985 -0.11465,0.28587 c -0.1414,0.35255 -0.71476,3.70272 -0.84949,4.96356 -0.0918,0.85883 -0.10019,0.87901 -0.11542,0.27685 z m 1.28841,-0.9575 c 0.008,-0.71402 0.0541,-1.33703 0.10152,-1.38447 0.0474,-0.0474 0.0782,0.30054 0.0683,0.77328 -0.0223,1.0702 -0.005,1.17668 0.13489,0.82865 0.0614,-0.15285 0.16403,-0.27791 0.22799,-0.27791 0.064,0 0.0102,0.21964 -0.11953,0.4881 -0.12971,0.26845 -0.23583,0.57415 -0.23583,0.67933 0,0.10519 -0.0433,0.19124 -0.0963,0.19124 -0.053,0 -0.0894,-0.5842 -0.081,-1.29822 z m 3.275,-0.009 c 0.006,-0.14389 0.0352,-0.17316 0.0746,-0.0746 0.0357,0.0892 0.0313,0.1957 -0.01,0.23674 -0.041,0.041 -0.0702,-0.0319 -0.0649,-0.16211 z m 0.0143,-0.73081 c 0.003,-0.2038 0.0302,-0.27222 0.0615,-0.15204 0.0313,0.12018 0.0293,0.28692 -0.005,0.37055 -0.0338,0.0836 -0.0595,-0.0147 -0.0569,-0.21851 z m -0.0241,-1.59841 c 0,-0.43756 -0.0556,-0.82992 -0.12352,-0.8719 -0.0679,-0.042 -0.12905,-0.004 -0.13583,0.0853 -0.007,0.0889 -0.0568,0.0227 -0.1112,-0.1471 -0.0544,-0.16984 -0.10485,-0.83682 -0.11214,-1.48219 -0.007,-0.64537 -0.0667,-1.63872 -0.13213,-2.20743 -0.0768,-0.66801 -0.0763,-1.1135 0.001,-1.25854 0.0721,-0.13475 0.0748,-0.25251 0.007,-0.29454 -0.0623,-0.0385 -0.14145,-2e-4 -0.17585,0.0851 -0.0389,0.0965 -0.0662,0.0761 -0.0723,-0.0537 -0.005,-0.11487 0.0378,-0.23827 0.096,-0.27421 0.0581,-0.0359 0.0873,-0.35882 0.0647,-0.71751 l -0.041,-0.65215 0.12529,0.49406 c 0.0689,0.27174 0.20106,1.14361 0.29366,1.93749 0.0926,0.79388 0.19502,1.48866 0.22761,1.54395 0.09,0.15272 0.24705,4.60885 0.16242,4.60885 -0.0406,0 -0.0738,-0.358 -0.0738,-0.79556 z m -0.16266,-1.5744 c -0.0394,-0.0985 -0.0687,-0.0693 -0.0746,0.0746 -0.005,0.13021 0.0238,0.20316 0.0649,0.16212 0.041,-0.041 0.0454,-0.14758 0.01,-0.23674 z m -0.25256,1.81414 c 0.0391,-0.1019 0.093,-0.18527 0.11964,-0.18527 0.0267,0 0.0486,0.0834 0.0486,0.18527 0,0.1019 -0.0538,0.18527 -0.11964,0.18527 -0.0658,0 -0.0876,-0.0834 -0.0486,-0.18527 z m -3.21258,-0.61758 c 0.0958,-0.93025 0.18287,-1.22787 0.30269,-1.034 0.0554,0.0896 0.0571,0.19213 0.004,0.22789 -0.0533,0.0358 -0.15832,0.37072 -0.23345,0.74435 l -0.1366,0.67934 z m 3.13374,29.81449 c 0,-0.0679 -0.0556,-0.0892 -0.12352,-0.0472 -0.0679,0.042 -0.12352,0.13191 -0.12352,0.19985 0,0.0679 0.0556,0.0892 0.12352,0.0472 0.0679,-0.042 0.12352,-0.13192 0.12352,-0.19986 z m 1.97489,-16.38214 c -0.003,-0.45918 -0.15949,-1.14252 -0.26183,-1.14252 -0.059,0 -0.10736,0.14298 -0.10736,0.31775 v 0.31775 l -0.32545,-0.25599 c -0.36655,-0.28833 -0.53916,-0.32416 -0.53916,-0.1119 0,0.0793 0.0288,0.11532 0.064,0.0801 0.0858,-0.0858 0.92416,0.71176 0.92416,0.87911 0,0.0725 0.0556,0.13181 0.12351,0.13181 0.0679,0 0.12291,-0.0973 0.12216,-0.21615 z m -6.7273,-0.41074 c 0.0926,-0.29162 0.014,-0.42448 -0.18001,-0.30456 -0.162,0.10012 -0.17559,0.5609 -0.0165,0.5609 0.0633,0 0.1518,-0.11535 0.19655,-0.25634 z m -0.12647,-0.60827 c 0.042,-0.0679 0.0175,-0.12351 -0.0545,-0.12351 -0.0719,0 -0.1308,0.0556 -0.1308,0.12351 0,0.0679 0.0245,0.12352 0.0545,0.12352 0.03,0 0.0888,-0.0556 0.13081,-0.12352 z m 6.36107,-0.23974 c 0,-0.0639 -0.0556,-0.15058 -0.12352,-0.19256 -0.0679,-0.042 -0.12352,0.0103 -0.12352,0.11622 0,0.10591 0.0556,0.19257 0.12352,0.19257 0.0679,0 0.12352,-0.0523 0.12352,-0.11623 z m 0.74109,-0.24703 c 0,-0.0639 -0.0556,-0.15058 -0.12352,-0.19257 -0.0679,-0.042 -0.12351,0.0103 -0.12351,0.11623 0,0.10591 0.0556,0.19256 0.12351,0.19256 0.0679,0 0.12352,-0.0523 0.12352,-0.11622 z m -1.05516,-0.73985 c 0.0391,-0.0632 0.0146,-0.1499 -0.0545,-0.19257 -0.069,-0.0427 -0.12553,0.009 -0.12553,0.11499 0,0.21695 0.0741,0.2489 0.18,0.0776 z m -1.41516,-0.25557 c 0,-0.0679 -0.0556,-0.12351 -0.12351,-0.12351 -0.0679,0 -0.12352,0.0556 -0.12352,0.12351 0,0.0679 0.0556,0.12352 0.12352,0.12352 0.0679,0 0.12351,-0.0556 0.12351,-0.12352 z m -0.12351,-20.31106 c 0,-0.03 -0.0556,-0.0888 -0.12352,-0.13081 -0.0679,-0.042 -0.12351,-0.0175 -0.12351,0.0545 0,0.0719 0.0556,0.1308 0.12351,0.1308 0.0679,0 0.12352,-0.0245 0.12352,-0.0545 z"
            style="fill:#000000"
            id="path1-4"
        /></g></svg>
